<svg width="1386" height="925" viewBox="0 0 1386 925" fill="none" xmlns="http://www.w3.org/2000/svg">
<mask id="mask0_222_73" style="mask-type:alpha" maskUnits="userSpaceOnUse" x="0" y="0" width="1386" height="981">
<rect width="1386" height="981" fill="#D9D9D9"/>
</mask>
<g mask="url(#mask0_222_73)">
<line x1="694.5" y1="-27" x2="694.5" y2="139" stroke="url(#paint0_linear_222_73)" stroke-width="3"/>
<circle cx="695" cy="150" r="13" fill="#292934"/>
<line x1="1071.5" y1="391" x2="1071.5" y2="606" stroke="url(#paint1_linear_222_73)" stroke-width="3"/>
<circle cx="1072" cy="617" r="13" fill="#292934"/>
<line x1="1252.5" y1="614" x2="1252.5" y2="829" stroke="url(#paint2_linear_222_73)" stroke-width="3"/>
<circle cx="1253" cy="840" r="13" fill="#292934"/>
<line x1="1312.5" y1="135" x2="1312.5" y2="350" stroke="url(#paint3_linear_222_73)" stroke-width="3"/>
<circle cx="1313" cy="361" r="13" fill="#292934"/>
<line x1="1114.5" y1="63" x2="1114.5" y2="278" stroke="url(#paint4_linear_222_73)" stroke-width="3"/>
<circle cx="1115" cy="289" r="13" fill="#292934"/>
<line x1="271.5" y1="348" x2="271.5" y2="133" stroke="url(#paint5_linear_222_73)" stroke-width="3"/>
<circle cx="271" cy="122" r="13" transform="rotate(-180 271 122)" fill="#292934"/>
<line x1="422.5" y1="737" x2="422.5" y2="522" stroke="url(#paint6_linear_222_73)" stroke-width="3"/>
<circle cx="422" cy="511" r="13" transform="rotate(180 422 511)" fill="#292934"/>
<line x1="128.5" y1="953" x2="128.5" y2="738" stroke="url(#paint7_linear_222_73)" stroke-width="3"/>
<circle cx="128" cy="727" r="13" transform="rotate(180 128 727)" fill="#292934"/>
<line x1="66.5" y1="600" x2="66.5" y2="385" stroke="url(#paint8_linear_222_73)" stroke-width="3"/>
<circle cx="66" cy="374" r="13" transform="rotate(180 66 374)" fill="#292934"/>
<line x1="695.5" y1="1039" x2="695.5" y2="695" stroke="url(#paint9_linear_222_73)" stroke-width="3"/>
<circle cx="695" cy="684" r="13" transform="rotate(-180 695 684)" fill="#292934"/>
</g>
<defs>
<linearGradient id="paint0_linear_222_73" x1="693" y1="155.6" x2="693" y2="16.2372" gradientUnits="userSpaceOnUse">
<stop/>
<stop stop-color="#292934"/>
<stop offset="0.942708" stop-color="white" stop-opacity="0"/>
</linearGradient>
<linearGradient id="paint1_linear_222_73" x1="1070" y1="627.5" x2="1070" y2="447" gradientUnits="userSpaceOnUse">
<stop/>
<stop stop-color="#292934"/>
<stop offset="0.942708" stop-color="white" stop-opacity="0"/>
</linearGradient>
<linearGradient id="paint2_linear_222_73" x1="1251" y1="850.5" x2="1251" y2="670" gradientUnits="userSpaceOnUse">
<stop/>
<stop stop-color="#292934"/>
<stop offset="0.942708" stop-color="white" stop-opacity="0"/>
</linearGradient>
<linearGradient id="paint3_linear_222_73" x1="1311" y1="371.5" x2="1311" y2="191" gradientUnits="userSpaceOnUse">
<stop/>
<stop stop-color="#292934"/>
<stop offset="0.942708" stop-color="white" stop-opacity="0"/>
</linearGradient>
<linearGradient id="paint4_linear_222_73" x1="1113" y1="299.5" x2="1113" y2="119" gradientUnits="userSpaceOnUse">
<stop/>
<stop stop-color="#292934"/>
<stop offset="0.942708" stop-color="white" stop-opacity="0"/>
</linearGradient>
<linearGradient id="paint5_linear_222_73" x1="273" y1="111.5" x2="273" y2="292" gradientUnits="userSpaceOnUse">
<stop/>
<stop stop-color="#292934"/>
<stop offset="0.942708" stop-color="white" stop-opacity="0"/>
</linearGradient>
<linearGradient id="paint6_linear_222_73" x1="424" y1="500.5" x2="424" y2="681" gradientUnits="userSpaceOnUse">
<stop/>
<stop stop-color="#292934"/>
<stop offset="0.942708" stop-color="white" stop-opacity="0"/>
</linearGradient>
<linearGradient id="paint7_linear_222_73" x1="130" y1="716.5" x2="130" y2="897" gradientUnits="userSpaceOnUse">
<stop/>
<stop stop-color="#292934"/>
<stop offset="0.942708" stop-color="white" stop-opacity="0"/>
</linearGradient>
<linearGradient id="paint8_linear_222_73" x1="68" y1="363.5" x2="68" y2="544" gradientUnits="userSpaceOnUse">
<stop/>
<stop stop-color="#292934"/>
<stop offset="0.942708" stop-color="white" stop-opacity="0"/>
</linearGradient>
<linearGradient id="paint9_linear_222_73" x1="697" y1="660.6" x2="697" y2="949.4" gradientUnits="userSpaceOnUse">
<stop/>
<stop stop-color="#292934"/>
<stop offset="0.942708" stop-color="white" stop-opacity="0"/>
</linearGradient>
</defs>
</svg>
