<svg width="104" height="91" viewBox="0 0 104 91" fill="none" xmlns="http://www.w3.org/2000/svg">
<path d="M3.25 39.2517C3.25 49.4629 7.30641 59.256 14.5269 66.4765C21.7473 73.6969 31.5404 77.7533 41.7517 77.7533C51.9629 77.7533 61.756 73.6969 68.9765 66.4765C76.1969 59.256 80.2533 49.4629 80.2533 39.2517C80.2533 29.0404 76.1969 19.2473 68.9765 12.0269C61.756 4.80642 51.9629 0.75 41.7517 0.75C31.5404 0.75 21.7473 4.80642 14.5269 12.0269C7.30641 19.2473 3.25 29.0404 3.25 39.2517Z" fill="#FFE500"/>
<path d="M41.7516 0.75C34.1315 0.750001 26.6825 3.0099 20.3469 7.24386C14.0113 11.4778 9.07373 17.4956 6.15863 24.5361C3.24353 31.5766 2.4819 39.3234 3.97009 46.7968C5.45828 54.2702 9.12942 61.1344 14.5192 66.5211C19.9089 71.9078 26.7752 75.5751 34.2494 77.0591C41.7236 78.5431 49.47 77.7771 56.5089 74.858C63.5477 71.939 69.5627 66.998 73.7931 60.66C78.0235 54.322 80.2792 46.8718 80.2749 39.2517C80.2692 29.0384 76.208 19.2454 68.9841 12.0256C61.7602 4.80572 51.9649 0.749998 41.7516 0.75ZM41.7516 71.99C34.8009 71.99 28.0063 69.9289 22.227 66.0673C16.4477 62.2057 11.9433 56.717 9.28341 50.2954C6.62349 43.8738 5.92754 36.8077 7.28355 29.9905C8.63956 23.1734 11.9866 16.9115 16.9015 11.9966C21.8164 7.08169 28.0784 3.73462 34.8955 2.3786C41.7126 1.02259 48.7788 1.71854 55.2004 4.37846C61.622 7.03838 67.1106 11.5428 70.9722 17.3221C74.8338 23.1014 76.895 29.896 76.895 36.8467C76.895 41.4618 75.9859 46.0316 74.2198 50.2954C72.4537 54.5592 69.8651 58.4334 66.6017 61.6968C63.3383 64.9601 59.4642 67.5487 55.2004 69.3149C50.9366 71.081 46.3667 71.99 41.7516 71.99Z" fill="#EBCB00"/>
<path d="M30.2031 8.44173C30.2031 9.20599 31.4198 9.93895 33.5856 10.4794C35.7513 11.0198 38.6887 11.3234 41.7515 11.3234C44.8143 11.3234 47.7516 11.0198 49.9174 10.4794C52.0831 9.93895 53.2998 9.20599 53.2998 8.44173C53.2998 7.67746 52.0831 6.9445 49.9174 6.40408C47.7516 5.86366 44.8143 5.56006 41.7515 5.56006C38.6887 5.56006 35.7513 5.86366 33.5856 6.40408C31.4198 6.9445 30.2031 7.67746 30.2031 8.44173Z" fill="#FFF48C"/>
<path d="M23.4648 41.1798C23.4648 41.6912 23.668 42.1817 24.0296 42.5433C24.3913 42.905 24.8818 43.1081 25.3932 43.1081C25.9046 43.1081 26.3951 42.905 26.7567 42.5433C27.1183 42.1817 27.3215 41.6912 27.3215 41.1798C27.3215 40.6684 27.1183 40.1779 26.7567 39.8163C26.3951 39.4546 25.9046 39.2515 25.3932 39.2515C24.8818 39.2515 24.3913 39.4546 24.0296 39.8163C23.668 40.1779 23.4648 40.6684 23.4648 41.1798Z" fill="#292934" stroke="#292934" stroke-width="0.5" stroke-linecap="round" stroke-linejoin="round"/>
<path d="M32.7599 38.2982C32.7599 38.2982 26.9749 29.6315 20.5833 32.5132" stroke="#292934" stroke-width="0.5" stroke-linecap="round" stroke-linejoin="round"/>
<path d="M50.7432 38.2982C50.7432 38.2982 56.5282 29.6315 62.9415 32.5132" stroke="#292934" stroke-width="0.5" stroke-linecap="round" stroke-linejoin="round"/>
<path d="M56.2031 41.1798C56.2031 41.6912 56.4063 42.1817 56.7679 42.5433C57.1296 42.905 57.62 43.1081 58.1315 43.1081C58.6429 43.1081 59.1334 42.905 59.495 42.5433C59.8566 42.1817 60.0598 41.6912 60.0598 41.1798C60.0598 40.6684 59.8566 40.1779 59.495 39.8163C59.1334 39.4546 58.6429 39.2515 58.1315 39.2515C57.62 39.2515 57.1296 39.4546 56.7679 39.8163C56.4063 40.1779 56.2031 40.6684 56.2031 41.1798Z" fill="#292934" stroke="#292934" stroke-width="0.5" stroke-linecap="round" stroke-linejoin="round"/>
<path d="M32.1316 58.5131C34.9822 56.6081 38.3338 55.5913 41.7624 55.5913C45.191 55.5913 48.5426 56.6081 51.3933 58.5131" stroke="#292934" stroke-width="0.5" stroke-linecap="round"/>
<path d="M69.6798 49.8465C69.6798 51.4498 67.5131 52.7498 64.8698 52.7498C62.2265 52.7498 60.0598 51.4498 60.0598 49.8465C60.0598 48.2432 62.2265 46.9648 64.8698 46.9648C67.5131 46.9648 69.6798 48.2648 69.6798 49.8465Z" fill="#FFAA54"/>
<path d="M13.845 49.8465C13.845 51.4498 16.0116 52.7498 18.655 52.7498C21.2983 52.7498 23.465 51.4498 23.465 49.8465C23.465 48.2432 21.2983 46.9648 18.655 46.9648C16.0116 46.9648 13.845 48.2648 13.845 49.8465Z" fill="#FFAA54"/>
<path opacity="0.15" d="M10.2266 87.3301C10.2266 87.7569 11.0235 88.1795 12.5718 88.5738C14.1202 88.9681 16.3896 89.3264 19.2506 89.6282C22.1116 89.93 25.508 90.1694 29.2461 90.3327C32.9841 90.496 36.9905 90.5801 41.0366 90.5801C45.0826 90.5801 49.089 90.496 52.827 90.3327C56.5651 90.1694 59.9616 89.93 62.8225 89.6282C65.6835 89.3264 67.9529 88.9681 69.5013 88.5738C71.0496 88.1795 71.8466 87.7569 71.8466 87.3301C71.8466 86.9033 71.0496 86.4807 69.5013 86.0864C67.9529 85.6921 65.6835 85.3338 62.8225 85.032C59.9616 84.7302 56.5651 84.4908 52.827 84.3275C49.089 84.1641 45.0826 84.0801 41.0366 84.0801C36.9905 84.0801 32.9841 84.1641 29.2461 84.3275C25.508 84.4908 22.1116 84.7302 19.2506 85.032C16.3896 85.3338 14.1202 85.6921 12.5718 86.0864C11.0235 86.4807 10.2266 86.9033 10.2266 87.3301Z" fill="#292934"/>
<path d="M3.25 39.2517C3.25 49.4629 7.30641 59.256 14.5269 66.4765C21.7473 73.6969 31.5404 77.7533 41.7517 77.7533C51.9629 77.7533 61.756 73.6969 68.9765 66.4765C76.1969 59.256 80.2533 49.4629 80.2533 39.2517C80.2533 29.0404 76.1969 19.2473 68.9765 12.0269C61.756 4.80641 51.9629 0.75 41.7517 0.75C31.5404 0.75 21.7473 4.80641 14.5269 12.0269C7.30641 19.2473 3.25 29.0404 3.25 39.2517V39.2517Z" stroke="#292934" stroke-width="0.5" stroke-linecap="round" stroke-linejoin="round"/>
<path d="M72.5615 16.1548H7.01988C6.72263 16.1556 6.42949 16.2243 6.16287 16.3557C5.89625 16.4872 5.6632 16.6778 5.48155 16.9131C3.80488 19.1118 2.3872 21.4965 1.25655 24.0198C1.12246 24.3131 1.06411 24.6354 1.08682 24.9572C1.10953 25.2789 1.21258 25.5898 1.38655 25.8615C1.56532 26.13 1.80658 26.3511 2.08962 26.5058C2.37266 26.6605 2.68902 26.7442 3.01155 26.7498H78.1949C76.8857 22.944 74.9846 19.3684 72.5615 16.1548Z" fill="#F0F0F0"/>
<path d="M72.5616 16.1548H7.01994C6.72269 16.1556 6.42955 16.2243 6.16293 16.3557C5.89631 16.4872 5.66326 16.6778 5.48161 16.9131C4.70478 17.9066 3.98153 18.9409 3.31494 20.0115H75.1183C74.3445 18.6756 73.4907 17.3877 72.5616 16.1548Z" fill="white"/>
<path d="M72.5615 16.1548H7.01988C6.72263 16.1556 6.42949 16.2243 6.16287 16.3557C5.89625 16.4872 5.6632 16.6778 5.48155 16.9131C3.80488 19.1118 2.3872 21.4965 1.25655 24.0198C1.12246 24.3131 1.06411 24.6354 1.08682 24.9572C1.10953 25.2789 1.21258 25.5898 1.38655 25.8615C1.56532 26.13 1.80658 26.3511 2.08962 26.5058C2.37266 26.6605 2.68902 26.7442 3.01155 26.7498H78.1949C76.8857 22.944 74.9845 19.3684 72.5615 16.1548Z" stroke="#292934" stroke-width="0.5" stroke-linecap="round" stroke-linejoin="round"/>
<path d="M74.49 21.9399C74.49 21.9399 85.0633 33.7483 100.793 32.3183C101.11 32.2842 101.431 32.3301 101.725 32.4518C102.02 32.5736 102.279 32.7672 102.48 33.0151C102.68 33.2629 102.815 33.5571 102.873 33.8707C102.93 34.1842 102.908 34.5071 102.808 34.8099C101.702 37.9575 100.385 41.0268 98.865 43.9966C98.6536 44.4253 98.2905 44.7603 97.8461 44.9364C97.4017 45.1126 96.9077 45.1174 96.46 44.9499C91.1733 42.9999 74.7717 35.6549 74.49 21.9399Z" fill="white" stroke="#292934" stroke-width="0.5" stroke-linecap="round" stroke-linejoin="round"/>
<path d="M74.3383 18.9282C74.3383 18.9282 77.9349 37.9949 89.7433 49.8466C89.9659 50.0718 90.129 50.349 90.2177 50.6531C90.3063 50.9572 90.3179 51.2786 90.2512 51.5882C90.1846 51.8979 90.0418 52.186 89.8358 52.4267C89.6299 52.6673 89.3672 52.8529 89.0716 52.9666C84.9409 54.437 80.6221 55.3124 76.2449 55.5666C75.7673 55.5939 75.2966 55.4427 74.9242 55.1424C74.5519 54.8421 74.3044 54.4141 74.2299 53.9416C73.2766 47.6799 70.3733 25.9482 74.3383 18.9282Z" fill="white" stroke="#292934" stroke-width="0.5" stroke-linecap="round" stroke-linejoin="round"/>
<path d="M81.2281 21.4418C81.2281 23.1024 80.5684 24.6951 79.3941 25.8694C78.2199 27.0437 76.6272 27.7034 74.9665 27.7034H74.0131C73.1613 27.7536 72.3082 27.6291 71.5062 27.3377C70.7043 27.0462 69.9703 26.5939 69.3494 26.0086C68.7286 25.4232 68.2339 24.7171 67.8958 23.9336C67.5577 23.1502 67.3833 22.3059 67.3833 21.4526C67.3833 20.5993 67.5577 19.755 67.8958 18.9715C68.2339 18.1881 68.7286 17.482 69.3494 16.8966C69.9703 16.3112 70.7043 15.8589 71.5062 15.5675C72.3082 15.276 73.1613 15.1516 74.0131 15.2018H74.9665C75.7877 15.1989 76.6015 15.3582 77.3611 15.6705C78.1207 15.9828 78.8111 16.442 79.3928 17.0217C79.9746 17.6014 80.4361 18.2903 80.7511 19.0488C81.066 19.8073 81.2282 20.6205 81.2281 21.4418Z" fill="#F0F0F0"/>
<path d="M74.0131 19.1668H74.9665C76.2902 19.1666 77.5799 19.5858 78.6504 20.3644C79.7209 21.143 80.5172 22.2407 80.9248 23.5001C81.1246 22.8693 81.2269 22.2117 81.2281 21.5501C81.2281 20.7288 81.066 19.9156 80.7511 19.1571C80.4361 18.3986 79.9746 17.7098 79.3928 17.1301C78.8111 16.5503 78.1206 16.0912 77.3611 15.7789C76.6015 15.4665 75.7877 15.3072 74.9665 15.3101H74.0131C73.1919 15.3072 72.3781 15.4665 71.6185 15.7789C70.859 16.0912 70.1685 16.5503 69.5868 17.1301C69.005 17.7098 68.5435 18.3986 68.2285 19.1571C67.9136 19.9156 67.7515 20.7288 67.7515 21.5501C67.7527 22.2117 67.855 22.8693 68.0548 23.5001C68.4653 22.2425 69.2623 21.1466 70.3322 20.3685C71.4021 19.5904 72.6902 19.1699 74.0131 19.1668Z" fill="white"/>
<path d="M81.2281 21.4418C81.2281 23.1024 80.5684 24.6951 79.3941 25.8694C78.2199 27.0437 76.6272 27.7034 74.9665 27.7034H74.0131C73.1613 27.7536 72.3082 27.6291 71.5062 27.3377C70.7043 27.0462 69.9703 26.5939 69.3494 26.0086C68.7286 25.4232 68.2339 24.7171 67.8958 23.9336C67.5577 23.1502 67.3833 22.3059 67.3833 21.4526C67.3833 20.5993 67.5577 19.755 67.8958 18.9715C68.2339 18.1881 68.7286 17.482 69.3494 16.8966C69.9703 16.3112 70.7043 15.8589 71.5062 15.5675C72.3082 15.276 73.1613 15.1516 74.0131 15.2018H74.9665C75.7877 15.1989 76.6015 15.3582 77.3611 15.6705C78.1207 15.9828 78.8111 16.442 79.3928 17.0217C79.9746 17.6014 80.4361 18.2903 80.7511 19.0488C81.066 19.8073 81.2282 20.6205 81.2281 21.4418V21.4418Z" stroke="#292934" stroke-width="0.5" stroke-linecap="round" stroke-linejoin="round"/>
</svg>
