<svg width="24" height="24" viewBox="0 0 24 24" fill="none" xmlns="http://www.w3.org/2000/svg">
<path d="M2.52 12.23C2.52 13.4749 2.76521 14.7077 3.24162 15.8578C3.71804 17.008 4.41633 18.0531 5.29663 18.9334C6.17693 19.8137 7.22199 20.512 8.37216 20.9884C9.52233 21.4648 10.7551 21.71 12 21.71C13.2449 21.71 14.4777 21.4648 15.6278 20.9884C16.778 20.512 17.8231 19.8137 18.7034 18.9334C19.5837 18.0531 20.282 17.008 20.7584 15.8578C21.2348 14.7077 21.48 13.4749 21.48 12.23C21.48 10.9851 21.2348 9.75233 20.7584 8.60216C20.282 7.45199 19.5837 6.40693 18.7034 5.52663C17.8231 4.64633 16.778 3.94804 15.6278 3.47162C14.4777 2.99521 13.2449 2.75 12 2.75C10.7551 2.75 9.52233 2.99521 8.37216 3.47162C7.22199 3.94804 6.17693 4.64633 5.29663 5.52663C4.41633 6.40693 3.71804 7.45199 3.24162 8.60216C2.76521 9.75233 2.52 10.9851 2.52 12.23V12.23Z" fill="#FFE500"/>
<path d="M12 2.75C10.1211 2.75 8.28435 3.30717 6.72208 4.35104C5.15982 5.39491 3.94218 6.87861 3.22314 8.61451C2.50411 10.3504 2.31598 12.2605 2.68254 14.1034C3.0491 15.9462 3.95389 17.6389 5.28249 18.9675C6.61108 20.2961 8.30382 21.2009 10.1466 21.5675C11.9895 21.934 13.8996 21.7459 15.6355 21.0269C17.3714 20.3078 18.8551 19.0902 19.899 17.5279C20.9428 15.9657 21.5 14.1289 21.5 12.25C21.5 9.73044 20.4991 7.31408 18.7175 5.53249C16.9359 3.75089 14.5196 2.75 12 2.75V2.75ZM12 20.285C10.2892 20.285 8.6168 19.7777 7.19432 18.8272C5.77183 17.8767 4.66314 16.5258 4.00844 14.9452C3.35374 13.3646 3.18245 11.6254 3.51621 9.94747C3.84997 8.26953 4.6738 6.72825 5.88353 5.51853C7.09325 4.3088 8.63453 3.48497 10.3125 3.15121C11.9904 2.81745 13.7296 2.98874 15.3102 3.64344C16.8908 4.29814 18.2417 5.40683 19.1922 6.82932C20.1427 8.2518 20.65 9.92419 20.65 11.635C20.65 13.9291 19.7387 16.1293 18.1165 17.7515C16.4943 19.3737 14.2941 20.285 12 20.285Z" fill="#EBCB00"/>
<path d="M9.155 4.645C9.155 4.8333 9.45474 5.01389 9.98828 5.14704C10.5218 5.28019 11.2455 5.355 12 5.355C12.7545 5.355 13.4782 5.28019 14.0117 5.14704C14.5453 5.01389 14.845 4.8333 14.845 4.645C14.845 4.45669 14.5453 4.2761 14.0117 4.14295C13.4782 4.0098 12.7545 3.935 12 3.935C11.2455 3.935 10.5218 4.0098 9.98828 4.14295C9.45474 4.2761 9.155 4.45669 9.155 4.645V4.645Z" fill="#FFF48C"/>
<path opacity="0.15" d="M4.415 22.75C4.415 22.8485 4.61119 22.946 4.99237 23.037C5.37356 23.128 5.93226 23.2107 6.6366 23.2803C7.34093 23.35 8.17709 23.4052 9.09735 23.4429C10.0176 23.4806 11.0039 23.5 12 23.5C12.9961 23.5 13.9824 23.4806 14.9027 23.4429C15.8229 23.4052 16.6591 23.35 17.3634 23.2803C18.0677 23.2107 18.6264 23.128 19.0076 23.037C19.3888 22.946 19.585 22.8485 19.585 22.75C19.585 22.6515 19.3888 22.554 19.0076 22.463C18.6264 22.372 18.0677 22.2893 17.3634 22.2197C16.6591 22.15 15.8229 22.0948 14.9027 22.0571C13.9824 22.0194 12.9961 22 12 22C11.0039 22 10.0176 22.0194 9.09735 22.0571C8.17709 22.0948 7.34093 22.15 6.6366 22.2197C5.93226 22.2893 5.37356 22.372 4.99237 22.463C4.61119 22.554 4.415 22.6515 4.415 22.75V22.75Z" fill="#45413C"/>
<path d="M2.52 12.23C2.52 13.4749 2.76521 14.7077 3.24162 15.8578C3.71804 17.008 4.41633 18.0531 5.29663 18.9334C6.17693 19.8137 7.22199 20.512 8.37216 20.9884C9.52233 21.4648 10.7551 21.71 12 21.71C13.2449 21.71 14.4777 21.4648 15.6278 20.9884C16.778 20.512 17.8231 19.8137 18.7034 18.9334C19.5837 18.0531 20.282 17.008 20.7584 15.8578C21.2348 14.7077 21.48 13.4749 21.48 12.23C21.48 10.9851 21.2348 9.75233 20.7584 8.60216C20.282 7.45199 19.5837 6.40693 18.7034 5.52663C17.8231 4.64633 16.778 3.94804 15.6278 3.47162C14.4777 2.99521 13.2449 2.75 12 2.75C10.7551 2.75 9.52233 2.99521 8.37216 3.47162C7.22199 3.94804 6.17693 4.64633 5.29663 5.52663C4.41633 6.40693 3.71804 7.45199 3.24162 8.60216C2.76521 9.75233 2.52 10.9851 2.52 12.23V12.23Z" stroke="#45413C" stroke-width="0.2" stroke-linecap="round" stroke-linejoin="round"/>
<path d="M9.395 11.5C9.395 11.8283 9.29764 12.1493 9.11524 12.4223C8.93284 12.6953 8.67358 12.908 8.37026 13.0337C8.06693 13.1593 7.73316 13.1922 7.41115 13.1281C7.08914 13.0641 6.79336 12.906 6.5612 12.6738C6.32905 12.4417 6.17095 12.1459 6.1069 11.8239C6.04285 11.5019 6.07572 11.1681 6.20136 10.8648C6.327 10.5614 6.53977 10.3022 6.81275 10.1198C7.08574 9.93738 7.40668 9.84003 7.735 9.84003C8.17526 9.84003 8.59749 10.0149 8.9088 10.3262C9.22011 10.6375 9.395 11.0598 9.395 11.5V11.5Z" fill="white" stroke="#45413C" stroke-width="0.2" stroke-linecap="round" stroke-linejoin="round"/>
<path d="M18.87 14.6C18.87 14.99 18.34 15.31 17.685 15.31C17.03 15.31 16.5 15 16.5 14.6C16.5 14.2 17.035 13.89 17.685 13.89C18.335 13.89 18.87 14.205 18.87 14.6Z" fill="#FFAA54"/>
<path d="M5.13 14.6C5.13 14.99 5.66 15.31 6.315 15.31C6.97 15.31 7.5 15 7.5 14.6C7.5 14.2 6.965 13.89 6.315 13.89C5.665 13.89 5.13 14.205 5.13 14.6Z" fill="#FFAA54"/>
<path d="M14.135 0.25V8.78" stroke="#45413C" stroke-width="0.2" stroke-linecap="round" stroke-linejoin="round"/>
<path d="M16.265 1.09003V8.91003" stroke="#45413C" stroke-width="0.2" stroke-linecap="round" stroke-linejoin="round"/>
<path d="M18.4 2.51501V9.86001" stroke="#45413C" stroke-width="0.2" stroke-linecap="round" stroke-linejoin="round"/>
<path d="M17.925 11.5C17.925 11.8283 17.8276 12.1493 17.6452 12.4223C17.4628 12.6953 17.2036 12.908 16.9003 13.0337C16.5969 13.1593 16.2632 13.1922 15.9412 13.1281C15.6191 13.0641 15.3234 12.906 15.0912 12.6738C14.859 12.4417 14.7009 12.1459 14.6369 11.8239C14.5728 11.5019 14.6057 11.1681 14.7314 10.8648C14.857 10.5614 15.0698 10.3022 15.3428 10.1198C15.6157 9.93738 15.9367 9.84003 16.265 9.84003C16.7053 9.84003 17.1275 10.0149 17.4388 10.3262C17.7501 10.6375 17.925 11.0598 17.925 11.5V11.5Z" fill="white" stroke="#45413C" stroke-width="0.2" stroke-linecap="round" stroke-linejoin="round"/>
<path d="M12 18.3C12.9937 18.3002 13.9763 18.508 14.885 18.91C15.855 19.345 16.975 19.065 17.215 17.78C17.545 16 15.08 13.415 12 13.415C8.92 13.415 6.455 16 6.785 17.78C7.025 19.065 8.145 19.345 9.115 18.91C10.0237 18.508 11.0063 18.3002 12 18.3V18.3Z" fill="#FFB0CA" stroke="#45413C" stroke-width="0.2" stroke-linecap="round" stroke-linejoin="round"/>
<path d="M12 18.3C12.9937 18.3003 13.9763 18.508 14.885 18.91C15.1641 19.0572 15.4789 19.123 15.7936 19.1C16.1083 19.0771 16.4102 18.9662 16.665 18.78C16.113 18.0688 15.4057 17.4932 14.5972 17.0972C13.7887 16.7012 12.9003 16.4954 12 16.4954C11.0997 16.4954 10.2113 16.7012 9.40279 17.0972C8.59426 17.4932 7.88697 18.0688 7.335 18.78C7.58976 18.9662 7.89168 19.0771 8.20637 19.1C8.52107 19.123 8.83589 19.0572 9.115 18.91C10.0237 18.508 11.0063 18.3003 12 18.3V18.3Z" fill="#FF87AF" stroke="#45413C" stroke-width="0.2" stroke-linecap="round" stroke-linejoin="round"/>
</svg>
