<svg width="24" height="24" viewBox="0 0 24 24" fill="none" xmlns="http://www.w3.org/2000/svg">
<path d="M2 10.75C2 13.4022 3.05357 15.9457 4.92893 17.8211C6.8043 19.6964 9.34784 20.75 12 20.75C14.6522 20.75 17.1957 19.6964 19.0711 17.8211C20.9464 15.9457 22 13.4022 22 10.75C22 8.09784 20.9464 5.5543 19.0711 3.67893C17.1957 1.80357 14.6522 0.75 12 0.75C9.34784 0.75 6.8043 1.80357 4.92893 3.67893C3.05357 5.5543 2 8.09784 2 10.75V10.75Z" fill="#FFE500"/>
<path d="M12 0.75C10.0222 0.75 8.08879 1.33649 6.44429 2.4353C4.7998 3.53412 3.51808 5.0959 2.7612 6.92317C2.00433 8.75043 1.80629 10.7611 2.19214 12.7009C2.578 14.6407 3.5304 16.4225 4.92893 17.8211C6.32745 19.2196 8.10928 20.172 10.0491 20.5579C11.9889 20.9437 13.9996 20.7457 15.8268 19.9888C17.6541 19.2319 19.2159 17.9502 20.3147 16.3057C21.4135 14.6612 22 12.7278 22 10.75C22 8.09784 20.9464 5.5543 19.0711 3.67893C17.1957 1.80357 14.6522 0.75 12 0.75V0.75ZM12 19.25C10.1952 19.25 8.43102 18.7148 6.93042 17.7122C5.42982 16.7095 4.26025 15.2844 3.5696 13.617C2.87895 11.9496 2.69824 10.1149 3.05033 8.3448C3.40242 6.57472 4.27149 4.9488 5.54765 3.67265C6.8238 2.3965 8.44972 1.52742 10.2198 1.17533C11.9899 0.823244 13.8246 1.00395 15.492 1.6946C17.1594 2.38525 18.5845 3.55482 19.5872 5.05542C20.5898 6.55602 21.125 8.32025 21.125 10.125C21.125 12.5451 20.1636 14.8661 18.4523 16.5773C16.7411 18.2886 14.4201 19.25 12 19.25V19.25Z" fill="#EBCB00"/>
<path d="M9 2.75C9 2.94891 9.31607 3.13968 9.87868 3.28033C10.4413 3.42098 11.2044 3.5 12 3.5C12.7956 3.5 13.5587 3.42098 14.1213 3.28033C14.6839 3.13968 15 2.94891 15 2.75C15 2.55109 14.6839 2.36032 14.1213 2.21967C13.5587 2.07902 12.7956 2 12 2C11.2044 2 10.4413 2.07902 9.87868 2.21967C9.31607 2.36032 9 2.55109 9 2.75Z" fill="#FFF48C"/>
<path opacity="0.15" d="M4 22.75C4 22.9489 4.84285 23.1397 6.34315 23.2803C7.84344 23.421 9.87827 23.5 12 23.5C14.1217 23.5 16.1566 23.421 17.6569 23.2803C19.1571 23.1397 20 22.9489 20 22.75C20 22.5511 19.1571 22.3603 17.6569 22.2197C16.1566 22.079 14.1217 22 12 22C9.87827 22 7.84344 22.079 6.34315 22.2197C4.84285 22.3603 4 22.5511 4 22.75V22.75Z" fill="#45413C"/>
<path d="M2 10.75C2 13.4022 3.05357 15.9457 4.92893 17.8211C6.8043 19.6964 9.34784 20.75 12 20.75C14.6522 20.75 17.1957 19.6964 19.0711 17.8211C20.9464 15.9457 22 13.4022 22 10.75C22 8.09784 20.9464 5.5543 19.0711 3.67893C17.1957 1.80357 14.6522 0.75 12 0.75C9.34784 0.75 6.8043 1.80357 4.92893 3.67893C3.05357 5.5543 2 8.09784 2 10.75V10.75Z" stroke="#45413C" stroke-width="0.2" stroke-linecap="round" stroke-linejoin="round"/>
<path d="M19.25 13.25C19.25 13.665 18.69 14 18 14C17.31 14 16.75 13.665 16.75 13.25C16.75 12.835 17.31 12.5 18 12.5C18.69 12.5 19.25 12.835 19.25 13.25Z" fill="#FFAA54"/>
<path d="M4.75 13.25C4.75 13.665 5.31 14 6 14C6.69 14 7.25 13.665 7.25 13.25C7.25 12.835 6.69 12.5 6 12.5C5.31 12.5 4.75 12.835 4.75 13.25Z" fill="#FFAA54"/>
<path d="M8.25 15.75C8.25 16.7446 8.64509 17.6984 9.34835 18.4017C10.0516 19.1049 11.0054 19.5 12 19.5C12.9946 19.5 13.9484 19.1049 14.6517 18.4017C15.3549 17.6984 15.75 16.7446 15.75 15.75C15.75 14.7554 15.3549 13.8016 14.6517 13.0983C13.9484 12.3951 12.9946 12 12 12C11.0054 12 10.0516 12.3951 9.34835 13.0983C8.64509 13.8016 8.25 14.7554 8.25 15.75Z" fill="#FFB0CA" stroke="#45413C" stroke-width="0.2" stroke-linecap="round" stroke-linejoin="round"/>
<path d="M8.825 17.74C8.825 18.2068 9.15951 18.6544 9.75493 18.9845C10.3504 19.3146 11.1579 19.5 12 19.5C12.8421 19.5 13.6496 19.3146 14.2451 18.9845C14.8405 18.6544 15.175 18.2068 15.175 17.74C15.175 17.2732 14.8405 16.8255 14.2451 16.4955C13.6496 16.1654 12.8421 15.98 12 15.98C11.1579 15.98 10.3504 16.1654 9.75493 16.4955C9.15951 16.8255 8.825 17.2732 8.825 17.74Z" fill="#FF866E" stroke="#45413C" stroke-width="0.2" stroke-linecap="round" stroke-linejoin="round"/>
<path d="M4.49 8.125C4.49 8.78804 4.75339 9.42393 5.22223 9.89277C5.69107 10.3616 6.32696 10.625 6.99 10.625C7.65304 10.625 8.28892 10.3616 8.75776 9.89277C9.22661 9.42393 9.49 8.78804 9.49 8.125C9.49 7.46196 9.22661 6.82607 8.75776 6.35723C8.28892 5.88839 7.65304 5.625 6.99 5.625C6.32696 5.625 5.69107 5.88839 5.22223 6.35723C4.75339 6.82607 4.49 7.46196 4.49 8.125V8.125Z" fill="white" stroke="#45413C" stroke-width="0.2" stroke-linecap="round" stroke-linejoin="round"/>
<path d="M6.5 8.125C6.5 8.22389 6.52932 8.32056 6.58427 8.40279C6.63921 8.48501 6.7173 8.5491 6.80866 8.58694C6.90002 8.62478 7.00055 8.63469 7.09755 8.61539C7.19454 8.5961 7.28363 8.54848 7.35355 8.47855C7.42348 8.40863 7.4711 8.31954 7.49039 8.22255C7.50969 8.12556 7.49978 8.02502 7.46194 7.93366C7.4241 7.8423 7.36001 7.76421 7.27779 7.70927C7.19556 7.65432 7.09889 7.625 7 7.625C6.86739 7.625 6.74021 7.67768 6.64645 7.77145C6.55268 7.86521 6.5 7.99239 6.5 8.125Z" fill="#45413C" stroke="#45413C" stroke-width="0.2" stroke-linecap="round" stroke-linejoin="round"/>
<path d="M14.51 8.125C14.51 8.78804 14.7734 9.42393 15.2422 9.89277C15.7111 10.3616 16.347 10.625 17.01 10.625C17.673 10.625 18.3089 10.3616 18.7778 9.89277C19.2466 9.42393 19.51 8.78804 19.51 8.125C19.51 7.46196 19.2466 6.82607 18.7778 6.35723C18.3089 5.88839 17.673 5.625 17.01 5.625C16.347 5.625 15.7111 5.88839 15.2422 6.35723C14.7734 6.82607 14.51 7.46196 14.51 8.125V8.125Z" fill="white" stroke="#45413C" stroke-width="0.2" stroke-linecap="round" stroke-linejoin="round"/>
<path d="M17.5 8.125C17.5 8.22389 17.4707 8.32056 17.4157 8.40279C17.3608 8.48501 17.2827 8.5491 17.1913 8.58694C17.1 8.62478 16.9994 8.63469 16.9025 8.61539C16.8055 8.5961 16.7164 8.54848 16.6464 8.47855C16.5765 8.40863 16.5289 8.31954 16.5096 8.22255C16.4903 8.12556 16.5002 8.02502 16.5381 7.93366C16.5759 7.8423 16.64 7.76421 16.7222 7.70927C16.8044 7.65432 16.9011 7.625 17 7.625C17.1326 7.625 17.2598 7.67768 17.3536 7.77145C17.4473 7.86521 17.5 7.99239 17.5 8.125Z" fill="#45413C" stroke="#45413C" stroke-width="0.2" stroke-linecap="round" stroke-linejoin="round"/>
<path d="M9.49999 4.84503C8.72999 4.12503 6.58499 3.12503 5.38499 4.81503" stroke="#45413C" stroke-width="0.2" stroke-linecap="round" stroke-linejoin="round"/>
<path d="M14.5 4.84503C15.27 4.12503 17.415 3.12503 18.615 4.81503" stroke="#45413C" stroke-width="0.2" stroke-linecap="round" stroke-linejoin="round"/>
</svg>
