<svg width="24" height="24" viewBox="0 0 24 24" fill="none" xmlns="http://www.w3.org/2000/svg">
<g clip-path="url(#clip0_613_90)">
<path d="M0.25 10.75C0.25 13.4022 1.30357 15.9457 3.17893 17.8211C5.0543 19.6964 7.59784 20.75 10.25 20.75C12.9022 20.75 15.4457 19.6964 17.3211 17.8211C19.1964 15.9457 20.25 13.4022 20.25 10.75C20.25 8.09784 19.1964 5.5543 17.3211 3.67893C15.4457 1.80357 12.9022 0.75 10.25 0.75C7.59784 0.75 5.0543 1.80357 3.17893 3.67893C1.30357 5.5543 0.25 8.09784 0.25 10.75V10.75Z" fill="#FFE500"/>
<path d="M10.25 0.75C8.27219 0.75 6.33879 1.33649 4.6943 2.4353C3.04981 3.53412 1.76808 5.0959 1.0112 6.92317C0.254328 8.75043 0.0562947 10.7611 0.442147 12.7009C0.827999 14.6407 1.78041 16.4225 3.17893 17.8211C4.57746 19.2196 6.35929 20.172 8.2991 20.5579C10.2389 20.9437 12.2496 20.7457 14.0768 19.9888C15.9041 19.2319 17.4659 17.9502 18.5647 16.3057C19.6635 14.6612 20.25 12.7278 20.25 10.75C20.25 8.09784 19.1964 5.5543 17.3211 3.67893C15.4457 1.80357 12.9022 0.75 10.25 0.75V0.75ZM10.25 19.25C8.44525 19.25 6.68102 18.7148 5.18042 17.7122C3.67982 16.7095 2.51025 15.2844 1.8196 13.617C1.12895 11.9496 0.948244 10.1149 1.30033 8.3448C1.65242 6.57472 2.5215 4.9488 3.79765 3.67265C5.0738 2.3965 6.69972 1.52742 8.4698 1.17533C10.2399 0.823244 12.0746 1.00395 13.742 1.6946C15.4094 2.38525 16.8345 3.55482 17.8372 5.05542C18.8398 6.55602 19.375 8.32025 19.375 10.125C19.375 12.5451 18.4136 14.8661 16.7023 16.5773C14.9911 18.2886 12.6701 19.25 10.25 19.25V19.25Z" fill="#EBCB00"/>
<path d="M7.25 2.75C7.25 2.84849 7.3276 2.94602 7.47836 3.03701C7.62913 3.12801 7.8501 3.21069 8.12868 3.28033C8.40725 3.34997 8.73797 3.40522 9.10195 3.44291C9.46593 3.4806 9.85603 3.5 10.25 3.5C10.644 3.5 11.0341 3.4806 11.398 3.44291C11.762 3.40522 12.0927 3.34997 12.3713 3.28033C12.6499 3.21069 12.8709 3.12801 13.0216 3.03701C13.1724 2.94602 13.25 2.84849 13.25 2.75C13.25 2.65151 13.1724 2.55398 13.0216 2.46299C12.8709 2.37199 12.6499 2.28931 12.3713 2.21967C12.0927 2.15003 11.762 2.09478 11.398 2.05709C11.0341 2.0194 10.644 2 10.25 2C9.85603 2 9.46593 2.0194 9.10195 2.05709C8.73797 2.09478 8.40725 2.15003 8.12868 2.21967C7.8501 2.28931 7.62913 2.37199 7.47836 2.46299C7.3276 2.55398 7.25 2.65151 7.25 2.75Z" fill="#FFF48C"/>
<path opacity="0.15" d="M2.25 22.75C2.25 22.9489 3.09285 23.1397 4.59315 23.2803C6.09344 23.421 8.12827 23.5 10.25 23.5C12.3717 23.5 14.4066 23.421 15.9069 23.2803C17.4071 23.1397 18.25 22.9489 18.25 22.75C18.25 22.5511 17.4071 22.3603 15.9069 22.2197C14.4066 22.079 12.3717 22 10.25 22C8.12827 22 6.09344 22.079 4.59315 22.2197C3.09285 22.3603 2.25 22.5511 2.25 22.75V22.75Z" fill="#45413C"/>
<path d="M0.25 10.75C0.25 13.4022 1.30357 15.9457 3.17893 17.8211C5.0543 19.6964 7.59784 20.75 10.25 20.75C12.9022 20.75 15.4457 19.6964 17.3211 17.8211C19.1964 15.9457 20.25 13.4022 20.25 10.75C20.25 8.09784 19.1964 5.5543 17.3211 3.67893C15.4457 1.80357 12.9022 0.75 10.25 0.75C7.59784 0.75 5.0543 1.80357 3.17893 3.67893C1.30357 5.5543 0.25 8.09784 0.25 10.75V10.75Z" stroke="#45413C" stroke-width="0.2" stroke-linecap="round" stroke-linejoin="round"/>
<path d="M17.5 13.25C17.5 13.665 16.94 14 16.25 14C15.56 14 15 13.665 15 13.25C15 12.835 15.56 12.5 16.25 12.5C16.94 12.5 17.5 12.835 17.5 13.25Z" fill="#FFAA54"/>
<path d="M3 13.25C3 13.665 3.56 14 4.25 14C4.94 14 5.5 13.665 5.5 13.25C5.5 12.835 4.94 12.5 4.25 12.5C3.56 12.5 3 12.835 3 13.25Z" fill="#FFAA54"/>
<path d="M3.25 11.375C3.25 11.1429 3.34219 10.9204 3.50628 10.7563C3.67038 10.5922 3.89294 10.5 4.125 10.5C4.35706 10.5 4.57962 10.5922 4.74372 10.7563C4.90781 10.9204 5 11.1429 5 11.375" stroke="#45413C" stroke-width="0.2" stroke-linecap="round" stroke-linejoin="round"/>
<path d="M15.5 11.375C15.5 11.1429 15.5922 10.9204 15.7563 10.7563C15.9204 10.5922 16.1429 10.5 16.375 10.5C16.6071 10.5 16.8296 10.5922 16.9937 10.7563C17.1578 10.9204 17.25 11.1429 17.25 11.375" stroke="#45413C" stroke-width="0.2" stroke-linecap="round" stroke-linejoin="round"/>
<path d="M21.335 15.335L23.605 14.575C23.6468 14.5601 23.6829 14.5326 23.7085 14.4964C23.734 14.4601 23.7478 14.4168 23.7478 14.3725C23.7478 14.3281 23.734 14.2849 23.7085 14.2486C23.6829 14.2124 23.6468 14.1849 23.605 14.17L21.74 13.55C21.6132 13.507 21.4983 13.4348 21.4045 13.3393C21.3107 13.2438 21.2407 13.1275 21.2 13L20.58 11.135C20.5647 11.0928 20.5369 11.0563 20.5002 11.0304C20.4636 11.0045 20.4199 10.9904 20.375 10.99C20.3306 10.9899 20.2874 11.0039 20.2514 11.03C20.2155 11.056 20.1887 11.0928 20.175 11.135L19.55 13C19.5083 13.1286 19.4368 13.2455 19.3412 13.3412C19.2456 13.4368 19.1286 13.5083 19 13.55L17.135 14.17C17.0932 14.1849 17.0571 14.2124 17.0315 14.2486C17.006 14.2849 16.9922 14.3281 16.9922 14.3725C16.9922 14.4168 17.006 14.4601 17.0315 14.4964C17.0571 14.5326 17.0932 14.5601 17.135 14.575L19 15.2C19.1257 15.242 19.2399 15.3126 19.3336 15.4064C19.4274 15.5001 19.498 15.6143 19.54 15.74L20.165 17.605C20.1787 17.6472 20.2055 17.684 20.2414 17.71C20.2774 17.7361 20.3206 17.7501 20.365 17.75C20.4099 17.7496 20.4536 17.7355 20.4902 17.7096C20.5269 17.6837 20.5547 17.6472 20.57 17.605L21.335 15.335Z" fill="white" stroke="#45413C" stroke-width="0.2" stroke-linecap="round" stroke-linejoin="round"/>
<path d="M10.25 18.275C14.85 18.275 15.465 16.355 15.195 14.775C15.137 14.5389 15.0292 14.3179 14.8788 14.1268C14.7284 13.9358 14.5388 13.7792 14.3229 13.6674C14.1069 13.5556 13.8696 13.4914 13.6268 13.4789C13.3839 13.4664 13.1413 13.506 12.915 13.595C12.0559 13.881 11.1554 14.0229 10.25 14.015C9.34458 14.0229 8.4441 13.881 7.585 13.595C7.35874 13.506 7.11605 13.4664 6.87323 13.4789C6.6304 13.4914 6.39306 13.5556 6.17712 13.6674C5.96118 13.7792 5.77165 13.9358 5.62123 14.1268C5.47081 14.3179 5.36299 14.5389 5.305 14.775C5.035 16.355 5.65 18.275 10.25 18.275Z" fill="white" stroke="#45413C" stroke-width="0.2" stroke-linecap="round" stroke-linejoin="round"/>
<path d="M15.24 15.14C14.5091 15.4737 13.7348 15.7027 12.94 15.82C12.0506 15.9633 11.1508 16.0318 10.25 16.025C9.34918 16.0318 8.44938 15.9633 7.56 15.82C6.76516 15.7027 5.99086 15.4737 5.26 15.14" stroke="#45413C" stroke-width="0.2" stroke-linecap="round" stroke-linejoin="round"/>
<path d="M7.89 13.695L7.56 15.82L7.245 17.865" stroke="#45413C" stroke-width="0.2" stroke-linecap="round" stroke-linejoin="round"/>
<path d="M10.25 18.275V14.025" stroke="#45413C" stroke-width="0.2" stroke-linecap="round" stroke-linejoin="round"/>
<path d="M12.615 13.695L12.94 15.82L13.255 17.865" stroke="#45413C" stroke-width="0.2" stroke-linecap="round" stroke-linejoin="round"/>
</g>
<defs>
<clipPath id="clip0_613_90">
<rect width="24" height="24" fill="white"/>
</clipPath>
</defs>
</svg>
