<svg width="24" height="24" viewBox="0 0 24 24" fill="none" xmlns="http://www.w3.org/2000/svg">
<path opacity="0.15" d="M3.995 22.75C3.995 22.9489 4.83785 23.1397 6.33814 23.2803C7.83843 23.421 9.87326 23.5 11.995 23.5C14.1167 23.5 16.1516 23.421 17.6518 23.2803C19.1521 23.1397 19.995 22.9489 19.995 22.75C19.995 22.5511 19.1521 22.3603 17.6518 22.2197C16.1516 22.079 14.1167 22 11.995 22C9.87326 22 7.83843 22.079 6.33814 22.2197C4.83785 22.3603 3.995 22.5511 3.995 22.75V22.75Z" fill="#45413C"/>
<path d="M21.33 4.79999C21.6035 4.42173 21.7505 3.96675 21.75 3.49999C21.7507 3.20433 21.6929 2.91145 21.5801 2.63817C21.4672 2.36489 21.3015 2.11659 21.0925 1.90753C20.8834 1.69846 20.6351 1.53276 20.3618 1.41992C20.0885 1.30708 19.7957 1.24933 19.5 1.24999C19.0332 1.24952 18.5783 1.39651 18.2 1.66999C18.1384 1.445 18.0151 1.24174 17.844 1.08318C17.6729 0.924622 17.4609 0.817101 17.2319 0.772776C17.0029 0.728451 16.766 0.74909 16.5481 0.832359C16.3302 0.915629 16.14 1.05821 15.9989 1.24397C15.8578 1.42973 15.7715 1.65126 15.7498 1.8835C15.7281 2.11575 15.7717 2.34945 15.8759 2.55816C15.9801 2.76688 16.1405 2.94229 16.3392 3.06455C16.5378 3.18681 16.7667 3.25104 17 3.24999C17.0943 3.24852 17.1882 3.23678 17.28 3.21499C17.2626 3.30906 17.2526 3.40435 17.25 3.49999C17.2493 3.79565 17.3071 4.08852 17.4199 4.3618C17.5328 4.63508 17.6985 4.88338 17.9075 5.09245C18.1166 5.30151 18.3649 5.46722 18.6382 5.58006C18.9115 5.6929 19.2043 5.75065 19.5 5.74999C19.5956 5.74741 19.6909 5.73738 19.785 5.71999C19.7632 5.81177 19.7515 5.90566 19.75 5.99999C19.749 6.23325 19.8132 6.46215 19.9354 6.6608C20.0577 6.85946 20.2331 7.01994 20.4418 7.1241C20.6505 7.22826 20.8842 7.27194 21.1165 7.2502C21.3487 7.22846 21.5703 7.14217 21.756 7.00108C21.9418 6.86 22.0844 6.66975 22.1676 6.45186C22.2509 6.23397 22.2715 5.99712 22.2272 5.76811C22.1829 5.5391 22.0754 5.32706 21.9168 5.15597C21.7583 4.98488 21.555 4.86157 21.33 4.79999V4.79999Z" fill="#00B8F0" stroke="#45413C" stroke-width="0.2" stroke-linecap="round" stroke-linejoin="round"/>
<path d="M2.67 4.79999C2.39653 4.42173 2.24953 3.96675 2.25 3.49999C2.24934 3.20433 2.30709 2.91145 2.41993 2.63817C2.53277 2.36489 2.69848 2.11659 2.90754 1.90753C3.11661 1.69846 3.36491 1.53276 3.63819 1.41992C3.91147 1.30708 4.20434 1.24933 4.5 1.24999C4.96677 1.24952 5.42175 1.39651 5.8 1.66999C5.86159 1.445 5.9849 1.24174 6.15598 1.08318C6.32707 0.924622 6.53911 0.817101 6.76812 0.772776C6.99714 0.728451 7.23398 0.74909 7.45187 0.832359C7.66977 0.915629 7.86002 1.05821 8.0011 1.24397C8.14218 1.42973 8.22847 1.65126 8.25021 1.8835C8.27195 2.11575 8.22827 2.34945 8.12411 2.55816C8.01996 2.76688 7.85947 2.94229 7.66082 3.06455C7.46216 3.18681 7.23326 3.25104 7 3.24999C6.90568 3.24852 6.81179 3.23678 6.72 3.21499C6.7374 3.30906 6.74743 3.40435 6.75 3.49999C6.75066 3.79565 6.69291 4.08852 6.58007 4.3618C6.46723 4.63508 6.30153 4.88338 6.09246 5.09245C5.8834 5.30151 5.6351 5.46722 5.36182 5.58006C5.08854 5.6929 4.79566 5.75065 4.5 5.74999C4.40437 5.74741 4.30908 5.73738 4.215 5.71999C4.23679 5.81177 4.24853 5.90566 4.25 5.99999C4.25106 6.23325 4.18682 6.46215 4.06456 6.6608C3.9423 6.85946 3.76689 7.01994 3.55818 7.1241C3.34946 7.22826 3.11577 7.27194 2.88352 7.2502C2.65127 7.22846 2.42974 7.14217 2.24398 7.00108C2.05822 6.86 1.91564 6.66975 1.83237 6.45186C1.74911 6.23397 1.72847 5.99712 1.77279 5.76811C1.81712 5.5391 1.92464 5.32706 2.08319 5.15597C2.24175 4.98488 2.44502 4.86157 2.67 4.79999V4.79999Z" fill="#00B8F0" stroke="#45413C" stroke-width="0.2" stroke-linecap="round" stroke-linejoin="round"/>
<path d="M2 11.25C2 13.9022 3.05357 16.4457 4.92893 18.3211C6.8043 20.1964 9.34784 21.25 12 21.25C14.6522 21.25 17.1957 20.1964 19.0711 18.3211C20.9464 16.4457 22 13.9022 22 11.25C22 8.59784 20.9464 6.0543 19.0711 4.17893C17.1957 2.30357 14.6522 1.25 12 1.25C9.34784 1.25 6.8043 2.30357 4.92893 4.17893C3.05357 6.0543 2 8.59784 2 11.25V11.25Z" fill="#FFFCE5"/>
<path d="M12 1.25C10.0222 1.25 8.08879 1.83649 6.4443 2.9353C4.79981 4.03412 3.51809 5.5959 2.76121 7.42317C2.00433 9.25043 1.8063 11.2611 2.19215 13.2009C2.578 15.1407 3.53041 16.9225 4.92894 18.3211C6.32746 19.7196 8.10929 20.672 10.0491 21.0579C11.9889 21.4437 13.9996 21.2457 15.8268 20.4888C17.6541 19.7319 19.2159 18.4502 20.3147 16.8057C21.4135 15.1612 22 13.2278 22 11.25C22 8.59784 20.9464 6.0543 19.0711 4.17893C17.1957 2.30357 14.6522 1.25 12 1.25V1.25ZM12 19.75C10.1953 19.75 8.43102 19.2148 6.93043 18.2122C5.42983 17.2095 4.26025 15.7844 3.5696 14.117C2.87895 12.4496 2.69825 10.6149 3.05034 8.8448C3.40243 7.07472 4.2715 5.4488 5.54766 4.17265C6.82381 2.8965 8.44973 2.02742 10.2198 1.67533C11.9899 1.32324 13.8246 1.50395 15.492 2.1946C17.1594 2.88525 18.5845 4.05482 19.5872 5.55542C20.5898 7.05602 21.125 8.82025 21.125 10.625C21.125 13.0451 20.1636 15.3661 18.4524 17.0773C16.7411 18.7886 14.4201 19.75 12 19.75V19.75Z" fill="#FFFACF"/>
<path d="M9 3.25C9 3.44891 9.31607 3.63968 9.87868 3.78033C10.4413 3.92098 11.2044 4 12 4C12.7956 4 13.5587 3.92098 14.1213 3.78033C14.6839 3.63968 15 3.44891 15 3.25C15 3.05109 14.6839 2.86032 14.1213 2.71967C13.5587 2.57902 12.7956 2.5 12 2.5C11.2044 2.5 10.4413 2.57902 9.87868 2.71967C9.31607 2.86032 9 3.05109 9 3.25Z" fill="white"/>
<path d="M2 11.25C2 13.9022 3.05357 16.4457 4.92893 18.3211C6.8043 20.1964 9.34784 21.25 12 21.25C14.6522 21.25 17.1957 20.1964 19.0711 18.3211C20.9464 16.4457 22 13.9022 22 11.25C22 8.59784 20.9464 6.0543 19.0711 4.17893C17.1957 2.30357 14.6522 1.25 12 1.25C9.34784 1.25 6.8043 2.30357 4.92893 4.17893C3.05357 6.0543 2 8.59784 2 11.25V11.25Z" stroke="#45413C" stroke-width="0.2" stroke-linecap="round" stroke-linejoin="round"/>
<path d="M19.5 13.75C19.5 14.165 18.94 14.5 18.25 14.5C17.56 14.5 17 14.165 17 13.75C17 13.335 17.56 13 18.25 13C18.94 13 19.5 13.335 19.5 13.75Z" fill="#FF87AF"/>
<path d="M4.5 13.75C4.5 14.165 5.06 14.5 5.75 14.5C6.44 14.5 7 14.165 7 13.75C7 13.335 6.44 13 5.75 13C5.06 13 4.5 13.335 4.5 13.75Z" fill="#FF87AF"/>
<path d="M9.75 13C9.75 13.4641 9.98705 13.9092 10.409 14.2374C10.831 14.5656 11.4033 14.75 12 14.75C12.5967 14.75 13.169 14.5656 13.591 14.2374C14.0129 13.9092 14.25 13.4641 14.25 13C14.25 12.5359 14.0129 12.0908 13.591 11.7626C13.169 11.4344 12.5967 11.25 12 11.25C11.4033 11.25 10.831 11.4344 10.409 11.7626C9.98705 12.0908 9.75 12.5359 9.75 13V13Z" fill="#FF6242"/>
<path d="M12 12.25C12.441 12.2236 12.8799 12.3282 13.2615 12.5507C13.6432 12.7731 13.9506 13.1034 14.145 13.5C14.2099 13.3411 14.2455 13.1716 14.25 13C14.25 12.035 13.25 11.25 12 11.25C10.75 11.25 9.75 12.035 9.75 13C9.75448 13.1716 9.79006 13.3411 9.855 13.5C10.0494 13.1034 10.3568 12.7731 10.7385 12.5507C11.1201 12.3282 11.559 12.2236 12 12.25V12.25Z" fill="#FF866E"/>
<path d="M9.75 13C9.75 13.4641 9.98705 13.9092 10.409 14.2374C10.831 14.5656 11.4033 14.75 12 14.75C12.5967 14.75 13.169 14.5656 13.591 14.2374C14.0129 13.9092 14.25 13.4641 14.25 13C14.25 12.5359 14.0129 12.0908 13.591 11.7626C13.169 11.4344 12.5967 11.25 12 11.25C11.4033 11.25 10.831 11.4344 10.409 11.7626C9.98705 12.0908 9.75 12.5359 9.75 13V13Z" stroke="#45413C" stroke-width="0.2" stroke-linecap="round" stroke-linejoin="round"/>
<path d="M12 19C11.1479 19.0257 10.301 18.8593 9.52199 18.513C8.74299 18.1668 8.05192 17.6497 7.5 17C7.40151 16.8687 7.32985 16.7192 7.28911 16.5602C7.24837 16.4012 7.23935 16.2357 7.26256 16.0732C7.28578 15.9107 7.34077 15.7544 7.42441 15.6131C7.50804 15.4719 7.61868 15.3485 7.75 15.25C8.01522 15.0511 8.34859 14.9657 8.67678 15.0126C9.00497 15.0595 9.30109 15.2348 9.5 15.5C9.81944 15.8378 10.2084 16.1021 10.6401 16.2748C11.0717 16.4475 11.5357 16.5243 12 16.5C12.4645 16.5263 12.9291 16.4504 13.3611 16.2777C13.793 16.1049 14.1818 15.8394 14.5 15.5C14.7026 15.2411 14.9981 15.0712 15.3239 15.0264C15.6496 14.9816 15.98 15.0654 16.245 15.26C16.3764 15.3572 16.4872 15.4794 16.5712 15.6196C16.6552 15.7599 16.7106 15.9153 16.7343 16.077C16.758 16.2387 16.7495 16.4035 16.7093 16.5619C16.6691 16.7203 16.598 16.8692 16.5 17C15.9481 17.6497 15.257 18.1668 14.478 18.513C13.699 18.8593 12.8521 19.0257 12 19V19Z" fill="#FF6242"/>
<path d="M16.245 15.26C15.98 15.0654 15.6496 14.9816 15.3239 15.0264C14.9981 15.0712 14.7026 15.241 14.5 15.5C14.1818 15.8394 13.793 16.1049 13.3611 16.2776C12.9291 16.4504 12.4645 16.5263 12 16.5C11.5357 16.5243 11.0717 16.4474 10.6401 16.2748C10.2084 16.1021 9.81944 15.8378 9.5 15.5C9.34934 15.2949 9.13944 15.1408 8.89856 15.0587C8.65769 14.9765 8.39742 14.9701 8.15281 15.0404C7.9082 15.1107 7.69101 15.2542 7.53048 15.4517C7.36996 15.6492 7.27382 15.8912 7.255 16.145C7.39896 16.0226 7.5666 15.9311 7.74746 15.8764C7.92832 15.8217 8.11852 15.8048 8.30619 15.8269C8.49386 15.8489 8.67497 15.9094 8.83822 16.0046C9.00147 16.0997 9.14335 16.2275 9.255 16.38C9.60397 16.7545 10.0302 17.0487 10.5042 17.2421C10.9782 17.4355 11.4886 17.5235 12 17.5C12.5124 17.5282 13.0247 17.4445 13.5014 17.2545C13.978 17.0645 14.4076 16.7729 14.76 16.4C14.8712 16.2469 15.0129 16.1185 15.1761 16.023C15.3394 15.9274 15.5207 15.8666 15.7085 15.8445C15.8964 15.8224 16.0869 15.8395 16.2678 15.8947C16.4488 15.9498 16.6164 16.0419 16.76 16.165C16.7446 15.9859 16.6906 15.8123 16.6017 15.6561C16.5128 15.4998 16.3911 15.3647 16.245 15.26Z" fill="#FF866E"/>
<path d="M12 19C11.1479 19.0257 10.301 18.8593 9.52199 18.513C8.74299 18.1668 8.05192 17.6497 7.5 17C7.40151 16.8687 7.32985 16.7192 7.28911 16.5602C7.24837 16.4012 7.23935 16.2357 7.26256 16.0732C7.28578 15.9107 7.34077 15.7544 7.42441 15.6131C7.50804 15.4719 7.61868 15.3485 7.75 15.25C8.01522 15.0511 8.34859 14.9657 8.67678 15.0126C9.00497 15.0595 9.30109 15.2348 9.5 15.5C9.81944 15.8378 10.2084 16.1021 10.6401 16.2748C11.0717 16.4475 11.5357 16.5243 12 16.5C12.4645 16.5263 12.9291 16.4504 13.3611 16.2777C13.793 16.1049 14.1818 15.8394 14.5 15.5C14.7026 15.2411 14.9981 15.0712 15.3239 15.0264C15.6496 14.9816 15.98 15.0654 16.245 15.26C16.3764 15.3572 16.4872 15.4794 16.5712 15.6196C16.6552 15.7599 16.7106 15.9153 16.7343 16.077C16.758 16.2387 16.7495 16.4035 16.7093 16.5619C16.6691 16.7203 16.598 16.8692 16.5 17C15.9481 17.6497 15.257 18.1668 14.478 18.513C13.699 18.8593 12.8521 19.0257 12 19V19Z" stroke="#45413C" stroke-width="0.2" stroke-linecap="round" stroke-linejoin="round"/>
<path d="M8.75 16.5C8.75 16.5 9.69 17.75 12 17.75C14.31 17.75 15.25 16.5 15.25 16.5" stroke="#45413C" stroke-width="0.2" stroke-linecap="round" stroke-linejoin="round"/>
<path d="M15 10.25C15 10.7804 15.1844 11.2891 15.5126 11.6642C15.8408 12.0393 16.2859 12.25 16.75 12.25C17.2141 12.25 17.6592 12.0393 17.9874 11.6642C18.3156 11.2891 18.5 10.7804 18.5 10.25C18.5 9.71957 18.3156 9.21086 17.9874 8.83579C17.6592 8.46071 17.2141 8.25 16.75 8.25C16.2859 8.25 15.8408 8.46071 15.5126 8.83579C15.1844 9.21086 15 9.71957 15 10.25Z" fill="#4ACFFF" stroke="#45413C" stroke-width="0.2" stroke-linecap="round" stroke-linejoin="round"/>
<path d="M5.5 10.25C5.5 10.5126 5.54526 10.7727 5.63321 11.0154C5.72116 11.258 5.85006 11.4785 6.01256 11.6642C6.17507 11.8499 6.36798 11.9972 6.5803 12.0978C6.79262 12.1983 7.02019 12.25 7.25 12.25C7.47981 12.25 7.70738 12.1983 7.9197 12.0978C8.13202 11.9972 8.32493 11.8499 8.48744 11.6642C8.64994 11.4785 8.77884 11.258 8.86679 11.0154C8.95473 10.7727 9 10.5126 9 10.25C9 9.98736 8.95473 9.72728 8.86679 9.48463C8.77884 9.24198 8.64994 9.0215 8.48744 8.83579C8.32493 8.65007 8.13202 8.50275 7.9197 8.40224C7.70738 8.30173 7.47981 8.25 7.25 8.25C7.02019 8.25 6.79262 8.30173 6.5803 8.40224C6.36798 8.50275 6.17507 8.65007 6.01256 8.83579C5.85006 9.0215 5.72116 9.24198 5.63321 9.48463C5.54526 9.72728 5.5 9.98736 5.5 10.25V10.25Z" fill="#4ACFFF" stroke="#45413C" stroke-width="0.2" stroke-linecap="round" stroke-linejoin="round"/>
<path d="M7.75 10.25C7.75 10.3489 7.72068 10.4456 7.66574 10.5278C7.61079 10.61 7.53271 10.6741 7.44134 10.7119C7.34998 10.7498 7.24945 10.7597 7.15246 10.7404C7.05546 10.7211 6.96637 10.6735 6.89645 10.6036C6.82652 10.5336 6.7789 10.4445 6.75961 10.3475C6.74031 10.2506 6.75022 10.15 6.78806 10.0587C6.8259 9.9673 6.88999 9.88921 6.97221 9.83426C7.05444 9.77932 7.15111 9.75 7.25 9.75C7.38261 9.75 7.50979 9.80268 7.60355 9.89645C7.69732 9.99021 7.75 10.1174 7.75 10.25Z" fill="#45413C" stroke="#45413C" stroke-width="0.2" stroke-linecap="round" stroke-linejoin="round"/>
<path d="M16.25 10.25C16.25 10.3489 16.2793 10.4456 16.3343 10.5278C16.3892 10.61 16.4673 10.6741 16.5587 10.7119C16.65 10.7498 16.7506 10.7597 16.8475 10.7404C16.9445 10.7211 17.0336 10.6735 17.1036 10.6036C17.1735 10.5336 17.2211 10.4445 17.2404 10.3475C17.2597 10.2506 17.2498 10.15 17.2119 10.0587C17.1741 9.9673 17.11 9.88921 17.0278 9.83426C16.9456 9.77932 16.8489 9.75 16.75 9.75C16.6174 9.75 16.4902 9.80268 16.3964 9.89645C16.3027 9.99021 16.25 10.1174 16.25 10.25Z" fill="#45413C" stroke="#45413C" stroke-width="0.2" stroke-linecap="round" stroke-linejoin="round"/>
<path d="M15 7C15.1423 6.6466 15.3827 6.34121 15.6927 6.11977C16.0027 5.89832 16.3695 5.77003 16.75 5.75C17.1305 5.77003 17.4973 5.89832 17.8073 6.11977C18.1173 6.34121 18.3577 6.6466 18.5 7" stroke="#45413C" stroke-width="0.2" stroke-linecap="round" stroke-linejoin="round"/>
<path d="M5.5 7C5.64234 6.6466 5.88267 6.34121 6.19269 6.11977C6.50271 5.89832 6.86954 5.77003 7.25 5.75C7.63046 5.77003 7.99729 5.89832 8.30731 6.11977C8.61733 6.34121 8.85766 6.6466 9 7" stroke="#45413C" stroke-width="0.2" stroke-linecap="round" stroke-linejoin="round"/>
</svg>
