<svg width="75" height="84" viewBox="0 0 75 84" fill="none" xmlns="http://www.w3.org/2000/svg">
<path opacity="0.15" d="M8.30029 81.2637C8.30029 81.9894 11.3767 82.6854 16.8528 83.1986C22.3288 83.7117 29.756 84 37.5003 84C45.2446 84 52.6717 83.7117 58.1478 83.1986C63.6239 82.6854 66.7003 81.9894 66.7003 81.2637C66.7003 80.538 63.6239 79.842 58.1478 79.3289C52.6717 78.8157 45.2446 78.5275 37.5003 78.5275C29.756 78.5275 22.3288 78.8157 16.8528 79.3289C11.3767 79.842 8.30029 80.538 8.30029 81.2637V81.2637Z" fill="#45413C"/>
<path d="M1 37.4835C1 47.1596 4.84552 56.4393 11.6906 63.2813C18.5357 70.1233 27.8196 73.967 37.5 73.967C47.1804 73.967 56.4643 70.1233 63.3094 63.2813C70.1545 56.4393 74 47.1596 74 37.4835C74 27.8075 70.1545 18.5278 63.3094 11.6858C56.4643 4.84379 47.1804 1 37.5 1C27.8196 1 18.5357 4.84379 11.6906 11.6858C4.84552 18.5278 1 27.8075 1 37.4835V37.4835Z" fill="#FFE500"/>
<path d="M37.5 1C30.281 1 23.2241 3.13972 17.2217 7.14858C11.2193 11.1574 6.54101 16.8554 3.77841 23.5219C1.01581 30.1884 0.292993 37.524 1.70135 44.6011C3.10971 51.6782 6.586 58.1789 11.6906 63.2813C16.7952 68.3836 23.2989 71.8583 30.3792 73.266C37.4595 74.6737 44.7985 73.9512 51.468 71.1899C58.1375 68.4285 63.838 63.7524 67.8486 57.7527C71.8593 51.753 74 44.6993 74 37.4835C74 27.8075 70.1545 18.5278 63.3094 11.6858C56.4643 4.84379 47.1804 1 37.5 1V1ZM37.5 68.4945C30.9127 68.4945 24.4732 66.542 18.9961 62.8839C13.5189 59.2258 9.24992 54.0265 6.72905 47.9433C4.20818 41.8601 3.54861 35.1664 4.83374 28.7085C6.11886 22.2506 9.29098 16.3187 13.9489 11.6629C18.6069 7.007 24.5415 3.83632 31.0023 2.55177C37.4631 1.26722 44.1598 1.9265 50.2458 4.44623C56.3317 6.96596 61.5334 11.233 65.1931 16.7077C68.8529 22.1824 70.8063 28.6189 70.8063 35.2033C70.8063 44.0327 67.2972 52.5004 61.0511 58.7437C54.8049 64.987 46.3334 68.4945 37.5 68.4945V68.4945Z" fill="#EBCB00"/>
<path d="M26.5498 8.29675C26.5498 9.02245 27.7035 9.71843 29.757 10.2316C31.8105 10.7447 34.5957 11.033 37.4998 11.033C40.4039 11.033 43.1891 10.7447 45.2426 10.2316C47.2961 9.71843 48.4498 9.02245 48.4498 8.29675C48.4498 7.57105 47.2961 6.87507 45.2426 6.36192C43.1891 5.84877 40.4039 5.56049 37.4998 5.56049C34.5957 5.56049 31.8105 5.84877 29.757 6.36192C27.7035 6.87507 26.5498 7.57105 26.5498 8.29675Z" fill="#FFF48C"/>
<path d="M24.7249 37.4835H9.2124" stroke="#45413C" stroke-width="0.5" stroke-linecap="round" stroke-linejoin="round"/>
<path d="M50.2749 37.4835H65.7874" stroke="#45413C" stroke-width="0.5" stroke-linecap="round" stroke-linejoin="round"/>
<path d="M26.4405 52.0769C26.1939 52.0783 25.9505 52.1328 25.7269 52.2367C25.5033 52.3405 25.3047 52.4914 25.1447 52.6789C24.987 52.8705 24.87 53.0923 24.801 53.3307C24.7319 53.5691 24.7123 53.8191 24.7432 54.0653C25.2317 57.1004 26.7858 59.8623 29.1268 61.8559C31.4678 63.8495 34.4428 64.9445 37.5182 64.9445C40.5937 64.9445 43.5686 63.8495 45.9097 61.8559C48.2507 59.8623 49.8048 57.1004 50.2932 54.0653C50.3242 53.8191 50.3045 53.5691 50.2355 53.3307C50.1664 53.0923 50.0495 52.8705 49.8917 52.6789C49.7317 52.4914 49.5331 52.3405 49.3095 52.2367C49.0859 52.1328 48.8426 52.0783 48.596 52.0769H26.4405Z" fill="#FFB0CA" stroke="#45413C" stroke-width="0.5" stroke-linecap="round" stroke-linejoin="round"/>
<path d="M47.6655 59.9938C44.5362 58.3442 41.037 57.5215 37.5002 57.6042C33.9634 57.5215 30.4642 58.3442 27.335 59.9938C28.5598 61.5096 30.1084 62.7322 31.8673 63.5722C33.6263 64.4121 35.5509 64.848 37.5002 64.848C39.4495 64.848 41.3742 64.4121 43.1331 63.5722C44.892 62.7322 46.4406 61.5096 47.6655 59.9938Z" fill="#FF87AF" stroke="#45413C" stroke-width="0.5" stroke-linecap="round" stroke-linejoin="round"/>
<path d="M12.8623 64.4084C15.5782 66.8938 18.6547 68.9541 21.9873 70.5193V37.4835H12.8623V64.4084Z" fill="#4AEFF7" stroke="#45413C" stroke-width="0.5" stroke-linecap="round" stroke-linejoin="round"/>
<path d="M62.1377 64.4084C59.4218 66.8938 56.3453 68.9541 53.0127 70.5193V37.4835H62.1377V64.4084Z" fill="#4AEFF7" stroke="#45413C" stroke-width="0.5" stroke-linecap="round" stroke-linejoin="round"/>
<path d="M1 37.4835C1 47.1596 4.84552 56.4393 11.6906 63.2813C18.5357 70.1233 27.8196 73.967 37.5 73.967C47.1804 73.967 56.4643 70.1233 63.3094 63.2813C70.1545 56.4393 74 47.1596 74 37.4835C74 27.8075 70.1545 18.5278 63.3094 11.6858C56.4643 4.84379 47.1804 1 37.5 1C27.8196 1 18.5357 4.84379 11.6906 11.6858C4.84552 18.5278 1 27.8075 1 37.4835V37.4835Z" stroke="#45413C" stroke-width="0.5" stroke-linecap="round" stroke-linejoin="round"/>
</svg>
