<svg width="83" height="83" viewBox="0 0 83 83" fill="none" xmlns="http://www.w3.org/2000/svg">
<path d="M6.9165 37.1771C6.9165 46.3492 10.5601 55.1456 17.0457 61.6312C23.5314 68.1168 32.3278 71.7604 41.4998 71.7604C50.6719 71.7604 59.4683 68.1168 65.9539 61.6312C72.4396 55.1456 76.0832 46.3492 76.0832 37.1771C76.0832 28.005 72.4396 19.2086 65.9539 12.723C59.4683 6.23734 50.6719 2.59375 41.4998 2.59375C32.3278 2.59375 23.5314 6.23734 17.0457 12.723C10.5601 19.2086 6.9165 28.005 6.9165 37.1771V37.1771Z" fill="#FFE500"/>
<path d="M41.4999 2.59375C34.6599 2.59375 27.9736 4.62203 22.2864 8.42209C16.5992 12.2222 12.1665 17.6233 9.54902 23.9426C6.93149 30.2619 6.24662 37.2154 7.58103 43.924C8.91543 50.6325 12.2092 56.7946 17.0457 61.6312C21.8823 66.4678 28.0445 69.7615 34.753 71.0959C41.4615 72.4303 48.415 71.7454 54.7343 69.1279C61.0536 66.5104 66.4548 62.0778 70.2548 56.3906C74.0549 50.7034 76.0832 44.017 76.0832 37.1771C76.0832 28.005 72.4396 19.2086 65.954 12.723C59.4683 6.23734 50.6719 2.59375 41.4999 2.59375V2.59375ZM41.4999 66.5729C35.2584 66.5729 29.1571 64.7221 23.9676 61.2546C18.778 57.787 14.7332 52.8584 12.3447 47.0921C9.95622 41.3257 9.33128 34.9806 10.5489 28.8591C11.7666 22.7376 14.7721 17.1146 19.1855 12.7012C23.5988 8.28788 29.2218 5.28234 35.3433 4.0647C41.4648 2.84705 47.81 3.47199 53.5763 5.86049C59.3426 8.24899 64.2712 12.2938 67.7388 17.4833C71.2063 22.6729 73.0571 28.7742 73.0571 35.0156C73.0571 43.3851 69.7324 51.4119 63.8142 57.33C57.8961 63.2481 49.8694 66.5729 41.4999 66.5729V66.5729Z" fill="#EBCB00"/>
<path d="M31.125 9.51041C31.125 10.1983 32.2181 10.858 34.1638 11.3445C36.1095 11.8309 38.7484 12.1042 41.5 12.1042C44.2516 12.1042 46.8905 11.8309 48.8362 11.3445C50.7819 10.858 51.875 10.1983 51.875 9.51041C51.875 8.8225 50.7819 8.16277 48.8362 7.67635C46.8905 7.18993 44.2516 6.91666 41.5 6.91666C38.7484 6.91666 36.1095 7.18993 34.1638 7.67635C32.2181 8.16277 31.125 8.8225 31.125 9.51041Z" fill="#FFF48C"/>
<path d="M6.9165 37.1771C6.9165 46.3492 10.5601 55.1456 17.0457 61.6312C23.5314 68.1168 32.3278 71.7604 41.4998 71.7604C50.6719 71.7604 59.4683 68.1168 65.9539 61.6312C72.4396 55.1456 76.0832 46.3492 76.0832 37.1771C76.0832 28.005 72.4396 19.2086 65.9539 12.723C59.4683 6.23734 50.6719 2.59375 41.4998 2.59375C32.3278 2.59375 23.5314 6.23734 17.0457 12.723C10.5601 19.2086 6.9165 28.005 6.9165 37.1771V37.1771Z" stroke="#45413C" stroke-width="0.5" stroke-linecap="round" stroke-linejoin="round"/>
<path d="M32.854 54.4688C35.4132 52.7588 38.422 51.8462 41.4998 51.8462C44.5777 51.8462 47.5865 52.7588 50.1457 54.4688" stroke="#45413C" stroke-width="0.5" stroke-linecap="round"/>
<path opacity="0.15" d="M13.833 78.6771C13.833 79.365 16.7479 80.0247 21.9364 80.5111C27.1249 80.9975 34.162 81.2708 41.4997 81.2708C48.8373 81.2708 55.8745 80.9975 61.063 80.5111C66.2515 80.0247 69.1663 79.365 69.1663 78.6771C69.1663 77.9892 66.2515 77.3294 61.063 76.843C55.8745 76.3566 48.8373 76.0833 41.4997 76.0833C34.162 76.0833 27.1249 76.3566 21.9364 76.843C16.7479 77.3294 13.833 77.9892 13.833 78.6771V78.6771Z" fill="#45413C"/>
<path d="M25.9373 37.1771C25.9373 37.5191 25.8359 37.8534 25.6459 38.1377C25.4559 38.4221 25.1859 38.6437 24.8699 38.7746C24.5539 38.9055 24.2063 38.9397 23.8708 38.873C23.5354 38.8063 23.2273 38.6416 22.9855 38.3998C22.7436 38.158 22.579 37.8498 22.5122 37.5144C22.4455 37.179 22.4798 36.8313 22.6106 36.5154C22.7415 36.1994 22.9631 35.9293 23.2475 35.7393C23.5319 35.5493 23.8662 35.4479 24.2082 35.4479C24.6668 35.4479 25.1066 35.6301 25.4309 35.9544C25.7552 36.2786 25.9373 36.7185 25.9373 37.1771Z" fill="#45413C" stroke="#45413C" stroke-width="0.5" stroke-linecap="round" stroke-linejoin="round"/>
<path d="M57.0625 37.1771C57.0625 37.5191 57.1639 37.8534 57.3539 38.1377C57.5439 38.4221 57.814 38.6437 58.1299 38.7746C58.4459 38.9055 58.7936 38.9397 59.129 38.873C59.4644 38.8063 59.7725 38.6416 60.0144 38.3998C60.2562 38.158 60.4209 37.8498 60.4876 37.5144C60.5543 37.179 60.5201 36.8313 60.3892 36.5154C60.2583 36.1994 60.0367 35.9293 59.7523 35.7393C59.468 35.5493 59.1337 35.4479 58.7917 35.4479C58.3331 35.4479 57.8932 35.6301 57.569 35.9544C57.2447 36.2786 57.0625 36.7185 57.0625 37.1771Z" fill="#45413C" stroke="#45413C" stroke-width="0.5" stroke-linecap="round" stroke-linejoin="round"/>
<path d="M66.5726 45.8229C66.5726 47.2581 64.6359 48.4167 62.2497 48.4167C59.8634 48.4167 57.9268 47.2581 57.9268 45.8229C57.9268 44.3877 59.8634 43.2292 62.2497 43.2292C64.6359 43.2292 66.5726 44.3877 66.5726 45.8229Z" fill="#FFAA54"/>
<path d="M16.4268 45.8229C16.4268 47.2581 18.3634 48.4167 20.7497 48.4167C23.1359 48.4167 25.0726 47.2581 25.0726 45.8229C25.0726 44.3877 23.1359 43.2292 20.7497 43.2292C18.3634 43.2292 16.4268 44.3877 16.4268 45.8229Z" fill="#FFAA54"/>
<path d="M15.0435 36.1915C15.5773 33.9543 16.7374 31.9156 18.388 30.3139C20.0387 28.7123 22.1115 27.6141 24.3637 27.1479C26.072 26.7686 27.8428 26.7686 29.5512 27.1479" stroke="#45413C" stroke-width="0.5" stroke-linecap="round" stroke-linejoin="round"/>
<path d="M67.9559 36.1915C67.4221 33.9543 66.262 31.9156 64.6114 30.3139C62.9607 28.7123 60.888 27.6141 58.6357 27.1479C56.9274 26.7686 55.1566 26.7686 53.4482 27.1479" stroke="#45413C" stroke-width="0.5" stroke-linecap="round" stroke-linejoin="round"/>
<path d="M65.518 69.6508C59.2066 66.8842 66.9878 59.9675 66.1232 55.2123C73.282 59.6735 71.8122 72.4002 65.518 69.6508Z" fill="#00B8F0"/>
<path d="M66.1232 55.2123C66.1328 55.3274 66.1328 55.443 66.1232 55.5581C70.7574 60.8494 69.0628 70.4635 63.5986 68.2848C64.0918 68.8947 64.7355 69.3655 65.4661 69.6508C71.8122 72.4002 73.282 59.6735 66.1232 55.2123Z" fill="#4ACFFF"/>
<path d="M65.518 69.6508C59.2066 66.8842 66.9878 59.9675 66.1232 55.2123C73.282 59.6735 71.8122 72.4002 65.518 69.6508Z" stroke="#45413C" stroke-width="0.5" stroke-linecap="round" stroke-linejoin="round"/>
<path d="M65.207 51.5465C60.4518 50.5435 64.8266 44.6298 63.4778 41.5C69.1668 43.5577 69.9449 52.5494 65.207 51.5465Z" fill="#00B8F0"/>
<path d="M63.564 41.5C63.564 41.5 63.564 41.6556 63.564 41.7421C67.5238 44.7162 67.7313 51.5983 63.6504 50.8721C64.0777 51.2245 64.5909 51.4572 65.1375 51.5465C69.9446 52.5494 69.1665 43.5577 63.564 41.5Z" fill="#4ACFFF"/>
<path d="M65.207 51.5465C60.4518 50.5435 64.8266 44.6298 63.4778 41.5C69.1668 43.5577 69.9449 52.5494 65.207 51.5465Z" stroke="#45413C" stroke-width="0.5" stroke-linecap="round" stroke-linejoin="round"/>
<path d="M17.7928 51.5465C22.548 50.5435 18.1732 44.6298 19.522 41.5C13.833 43.5577 13.0549 52.5494 17.7928 51.5465Z" fill="#00B8F0"/>
<path d="M19.4357 41.5C19.4357 41.5 19.4357 41.6556 19.4357 41.7421C15.4759 44.7162 15.2684 51.5983 19.4357 50.8721C19.0084 51.2245 18.4953 51.4572 17.9486 51.5465C13.0551 52.5494 13.8332 43.5577 19.4357 41.5Z" fill="#4ACFFF"/>
<path d="M17.7928 51.5465C22.548 50.5435 18.1732 44.6298 19.522 41.5C13.833 43.5577 13.0549 52.5494 17.7928 51.5465Z" stroke="#45413C" stroke-width="0.5" stroke-linecap="round" stroke-linejoin="round"/>
</svg>
