<svg width="83" height="83" viewBox="0 0 83 83" fill="none" xmlns="http://www.w3.org/2000/svg">
<path d="M2.59375 38.5086C2.59375 46.658 5.83108 54.4736 11.5936 60.2361C17.356 65.9986 25.1717 69.2359 33.321 69.2359C41.4704 69.2359 49.286 65.9986 55.0485 60.2361C60.811 54.4736 64.0483 46.658 64.0483 38.5086C64.0483 30.3592 60.811 22.5436 55.0485 16.7811C49.286 11.0187 41.4704 7.78133 33.321 7.78133C25.1717 7.78133 17.356 11.0187 11.5936 16.7811C5.83108 22.5436 2.59375 30.3592 2.59375 38.5086Z" fill="#FFE500"/>
<path d="M33.3213 7.78133C27.2398 7.78133 21.295 9.5849 16.2387 12.9639C11.1824 16.3429 7.24179 21.1456 4.91531 26.7645C2.58883 32.3833 1.981 38.5659 3.16869 44.5302C4.35638 50.4946 7.28623 55.9727 11.5877 60.2717C15.8891 64.5707 21.3689 67.4975 27.3339 68.6819C33.2989 69.8662 39.4811 69.2549 45.0987 66.9252C50.7162 64.5956 55.5167 60.6523 58.8928 55.5941C62.269 50.5359 64.0693 44.5901 64.0658 38.5086C64.0612 30.3576 60.8201 22.5421 55.0548 16.7801C49.2896 11.0181 41.4722 7.78133 33.3213 7.78133ZM33.3213 64.6363C27.7741 64.6363 22.3514 62.9914 17.7391 59.9095C13.1268 56.8277 9.53194 52.4473 7.40913 47.3224C5.28631 42.1975 4.73088 36.5581 5.81309 31.1175C6.89529 25.6769 9.56651 20.6794 13.489 16.757C17.4114 12.8345 22.4089 10.1633 27.8495 9.08108C33.2901 7.99887 38.9295 8.5543 44.0544 10.6771C49.1793 12.7999 53.5597 16.3948 56.6415 21.0071C59.7234 25.6194 61.3683 31.0421 61.3683 36.5892C61.3683 40.2724 60.6429 43.9196 59.2334 47.3224C57.8239 50.7252 55.7579 53.8171 53.1535 56.4215C50.5491 59.0259 47.4572 61.0919 44.0544 62.5014C40.6516 63.9109 37.0044 64.6363 33.3213 64.6363Z" fill="#EBCB00"/>
<path d="M24.1045 13.9199C24.1045 14.5298 25.0755 15.1148 26.8039 15.5461C28.5324 15.9774 30.8766 16.2197 33.321 16.2197C35.7653 16.2197 38.1095 15.9774 39.838 15.5461C41.5664 15.1148 42.5374 14.5298 42.5374 13.9199C42.5374 13.3099 41.5664 12.725 39.838 12.2937C38.1095 11.8624 35.7653 11.6201 33.321 11.6201C30.8766 11.6201 28.5324 11.8624 26.8039 12.2937C25.0755 12.725 24.1045 13.3099 24.1045 13.9199Z" fill="#FFF48C"/>
<path d="M18.7271 40.0476C18.7271 40.4557 18.8892 40.8472 19.1778 41.1358C19.4664 41.4244 19.8579 41.5865 20.266 41.5865C20.6742 41.5865 21.0656 41.4244 21.3542 41.1358C21.6428 40.8472 21.805 40.4557 21.805 40.0476C21.805 39.6394 21.6428 39.248 21.3542 38.9594C21.0656 38.6708 20.6742 38.5086 20.266 38.5086C19.8579 38.5086 19.4664 38.6708 19.1778 38.9594C18.8892 39.248 18.7271 39.6394 18.7271 40.0476Z" fill="#45413C" stroke="#45413C" stroke-width="0.5" stroke-linecap="round" stroke-linejoin="round"/>
<path d="M26.1452 37.7478C26.1452 37.7478 21.5283 30.8311 16.4272 33.1309" stroke="#45413C" stroke-width="0.5" stroke-linecap="round" stroke-linejoin="round"/>
<path d="M40.4971 37.7478C40.4971 37.7478 45.1139 30.8311 50.2323 33.1309" stroke="#45413C" stroke-width="0.5" stroke-linecap="round" stroke-linejoin="round"/>
<path d="M44.8545 40.0476C44.8545 40.4557 45.0166 40.8472 45.3052 41.1358C45.5939 41.4244 45.9853 41.5865 46.3934 41.5865C46.8016 41.5865 47.193 41.4244 47.4817 41.1358C47.7703 40.8472 47.9324 40.4557 47.9324 40.0476C47.9324 39.6394 47.7703 39.248 47.4817 38.9594C47.193 38.6708 46.8016 38.5086 46.3934 38.5086C45.9853 38.5086 45.5939 38.6708 45.3052 38.9594C45.0166 39.248 44.8545 39.6394 44.8545 40.0476Z" fill="#45413C" stroke="#45413C" stroke-width="0.5" stroke-linecap="round" stroke-linejoin="round"/>
<path d="M25.6436 53.8809C27.9186 52.3606 30.5934 51.5491 33.3297 51.5491C36.066 51.5491 38.7408 52.3606 41.0158 53.8809" stroke="#45413C" stroke-width="0.5" stroke-linecap="round"/>
<path d="M55.6101 46.9642C55.6101 48.2438 53.881 49.2813 51.7714 49.2813C49.6618 49.2813 47.9326 48.2438 47.9326 46.9642C47.9326 45.6847 49.6618 44.6645 51.7714 44.6645C53.881 44.6645 55.6101 45.702 55.6101 46.9642Z" fill="#FFAA54"/>
<path d="M11.0493 46.9642C11.0493 48.2438 12.7785 49.2813 14.8881 49.2813C16.9976 49.2813 18.7268 48.2438 18.7268 46.9642C18.7268 45.6847 16.9976 44.6645 14.8881 44.6645C12.7785 44.6645 11.0493 45.702 11.0493 46.9642Z" fill="#FFAA54"/>
<path opacity="0.15" d="M8.16162 76.8788C8.16162 77.2194 8.79763 77.5567 10.0333 77.8714C11.269 78.1861 13.0802 78.472 15.3635 78.7129C17.6468 78.9537 20.3574 79.1448 23.3407 79.2751C26.3239 79.4055 29.5213 79.4726 32.7504 79.4726C35.9794 79.4726 39.1768 79.4055 42.1601 79.2751C45.1433 79.1448 47.854 78.9537 50.1372 78.7129C52.4205 78.472 54.2317 78.1861 55.4674 77.8714C56.7031 77.5567 57.3391 77.2194 57.3391 76.8788C57.3391 76.5382 56.7031 76.2009 55.4674 75.8862C54.2317 75.5716 52.4205 75.2856 50.1372 75.0448C47.854 74.8039 45.1433 74.6129 42.1601 74.4825C39.1768 74.3522 35.9794 74.2851 32.7504 74.2851C29.5213 74.2851 26.3239 74.3522 23.3407 74.4825C20.3574 74.6129 17.6468 74.8039 15.3635 75.0448C13.0802 75.2856 11.269 75.5716 10.0333 75.8862C8.79763 76.2009 8.16162 76.5382 8.16162 76.8788Z" fill="#45413C"/>
<path d="M2.59375 38.5086C2.59375 46.658 5.83108 54.4736 11.5936 60.2361C17.356 65.9986 25.1717 69.2359 33.321 69.2359C41.4704 69.2359 49.286 65.9986 55.0485 60.2361C60.811 54.4736 64.0483 46.658 64.0483 38.5086C64.0483 30.3592 60.811 22.5436 55.0485 16.7811C49.286 11.0187 41.4704 7.78133 33.321 7.78133C25.1717 7.78133 17.356 11.0187 11.5936 16.7811C5.83108 22.5436 2.59375 30.3592 2.59375 38.5086V38.5086Z" stroke="#45413C" stroke-width="0.5" stroke-linecap="round" stroke-linejoin="round"/>
<path d="M57.9099 20.0757H5.60263C5.3654 20.0763 5.13145 20.1312 4.91867 20.2361C4.70588 20.341 4.5199 20.4931 4.37492 20.6809C3.03681 22.4357 1.90539 24.3388 1.00305 26.3526C0.896038 26.5867 0.849464 26.8439 0.86759 27.1007C0.885715 27.3575 0.967961 27.6056 1.1068 27.8224C1.24947 28.0367 1.44202 28.2131 1.6679 28.3366C1.89379 28.4601 2.14627 28.5269 2.40367 28.5313H62.4058C61.3609 25.494 59.8437 22.6404 57.9099 20.0757Z" fill="#F0F0F0"/>
<path d="M57.9102 20.0757H5.60287C5.36564 20.0763 5.13169 20.1312 4.91891 20.2361C4.70612 20.341 4.52014 20.4931 4.37516 20.6809C3.7552 21.4738 3.17799 22.2992 2.646 23.1536H59.9506C59.333 22.0875 58.6516 21.0597 57.9102 20.0757Z" fill="white"/>
<path d="M57.9099 20.0757H5.60263C5.3654 20.0763 5.13145 20.1312 4.91867 20.2361C4.70588 20.341 4.5199 20.4931 4.37492 20.6809C3.03681 22.4357 1.90539 24.3388 1.00305 26.3526C0.896038 26.5867 0.849464 26.8439 0.86759 27.1007C0.885715 27.3575 0.967961 27.6056 1.1068 27.8224C1.24947 28.0367 1.44202 28.2131 1.6679 28.3366C1.89379 28.4601 2.14627 28.5269 2.40367 28.5313H62.4058C61.3609 25.494 59.8437 22.6404 57.9099 20.0757Z" stroke="#45413C" stroke-width="0.5" stroke-linecap="round" stroke-linejoin="round"/>
<path d="M59.4487 24.6926C59.4487 24.6926 67.8871 34.1165 80.4408 32.9753C80.6938 32.9481 80.9495 32.9847 81.1846 33.0819C81.4197 33.179 81.6267 33.3336 81.7867 33.5314C81.9467 33.7292 82.0545 33.964 82.1003 34.2142C82.1461 34.4644 82.1285 34.7222 82.0489 34.9638C81.1664 37.4759 80.1149 39.9253 78.9019 42.2955C78.7331 42.6377 78.4433 42.905 78.0887 43.0455C77.734 43.1861 77.3398 43.19 76.9825 43.0563C72.7633 41.5001 59.6735 35.6382 59.4487 24.6926Z" fill="white" stroke="#45413C" stroke-width="0.5" stroke-linecap="round" stroke-linejoin="round"/>
<path d="M59.328 22.289C59.328 22.289 62.1984 37.5057 71.6224 46.9642C71.8001 47.144 71.9302 47.3652 72.001 47.6079C72.0718 47.8506 72.081 48.1071 72.0278 48.3542C71.9746 48.6013 71.8607 48.8313 71.6963 49.0234C71.5319 49.2154 71.3223 49.3635 71.0864 49.4542C67.7898 50.6278 64.343 51.3264 60.8497 51.5292C60.4685 51.5511 60.0929 51.4304 59.7957 51.1907C59.4985 50.9511 59.301 50.6095 59.2416 50.2324C58.4807 45.2351 56.1637 27.8915 59.328 22.289Z" fill="white" stroke="#45413C" stroke-width="0.5" stroke-linecap="round" stroke-linejoin="round"/>
<path d="M64.8266 24.2949C64.8266 25.6202 64.3001 26.8913 63.3629 27.8285C62.4257 28.7657 61.1547 29.2922 59.8293 29.2922H59.0685C58.3886 29.3322 57.7078 29.2329 57.0678 29.0003C56.4277 28.7677 55.842 28.4067 55.3465 27.9395C54.851 27.4724 54.4562 26.9089 54.1864 26.2836C53.9165 25.6583 53.7773 24.9845 53.7773 24.3035C53.7773 23.6225 53.9165 22.9487 54.1864 22.3234C54.4562 21.6982 54.851 21.1347 55.3465 20.6675C55.842 20.2003 56.4277 19.8394 57.0678 19.6068C57.7078 19.3742 58.3886 19.2748 59.0685 19.3149H59.8293C60.4847 19.3126 61.1342 19.4397 61.7404 19.689C62.3466 19.9382 62.8976 20.3047 63.3619 20.7673C63.8261 21.23 64.1945 21.7798 64.4459 22.3851C64.6972 22.9904 64.8266 23.6394 64.8266 24.2949Z" fill="#F0F0F0"/>
<path d="M59.0686 22.4792H59.8294C60.8858 22.4791 61.9151 22.8137 62.7695 23.435C63.6238 24.0564 64.2593 24.9325 64.5846 25.9376C64.7441 25.4342 64.8257 24.9094 64.8267 24.3813C64.8267 23.7259 64.6973 23.0769 64.446 22.4716C64.1946 21.8662 63.8263 21.3165 63.362 20.8538C62.8977 20.3911 62.3467 20.0247 61.7405 19.7754C61.1343 19.5262 60.4848 19.3991 59.8294 19.4013H59.0686C58.4131 19.3991 57.7637 19.5262 57.1575 19.7754C56.5513 20.0247 56.0003 20.3911 55.536 20.8538C55.0717 21.3165 54.7034 21.8662 54.452 22.4716C54.2007 23.0769 54.0713 23.7259 54.0713 24.3813C54.0723 24.9094 54.1539 25.4342 54.3134 25.9376C54.641 24.9339 55.2771 24.0593 56.1309 23.4383C56.9848 22.8174 58.0128 22.4817 59.0686 22.4792Z" fill="white"/>
<path d="M64.8266 24.2949C64.8266 25.6202 64.3001 26.8913 63.3629 27.8285C62.4257 28.7657 61.1547 29.2922 59.8293 29.2922H59.0685C58.3886 29.3322 57.7078 29.2329 57.0678 29.0003C56.4277 28.7677 55.842 28.4067 55.3465 27.9395C54.851 27.4724 54.4562 26.9089 54.1864 26.2836C53.9165 25.6583 53.7773 24.9845 53.7773 24.3035C53.7773 23.6225 53.9165 22.9487 54.1864 22.3234C54.4562 21.6982 54.851 21.1347 55.3465 20.6675C55.842 20.2003 56.4277 19.8394 57.0678 19.6068C57.7078 19.3742 58.3886 19.2748 59.0685 19.3149H59.8293C60.4847 19.3126 61.1342 19.4397 61.7404 19.689C62.3466 19.9382 62.8976 20.3047 63.3619 20.7673C63.8261 21.23 64.1945 21.7798 64.4459 22.3851C64.6972 22.9904 64.8266 23.6394 64.8266 24.2949V24.2949Z" stroke="#45413C" stroke-width="0.5" stroke-linecap="round" stroke-linejoin="round"/>
</svg>
