<svg width="83" height="83" viewBox="0 0 83 83" fill="none" xmlns="http://www.w3.org/2000/svg">
<path d="M6.9165 37.1771C6.9165 46.3492 10.5601 55.1456 17.0457 61.6312C23.5314 68.1168 32.3278 71.7604 41.4998 71.7604C50.6719 71.7604 59.4683 68.1168 65.9539 61.6312C72.4396 55.1456 76.0832 46.3492 76.0832 37.1771C76.0832 28.005 72.4396 19.2086 65.9539 12.723C59.4683 6.23734 50.6719 2.59375 41.4998 2.59375C32.3278 2.59375 23.5314 6.23734 17.0457 12.723C10.5601 19.2086 6.9165 28.005 6.9165 37.1771V37.1771Z" fill="#FFE500"/>
<path d="M41.4999 2.59375C34.6599 2.59375 27.9736 4.62203 22.2864 8.42209C16.5992 12.2222 12.1665 17.6233 9.54902 23.9426C6.93149 30.2619 6.24662 37.2154 7.58103 43.924C8.91543 50.6325 12.2092 56.7946 17.0457 61.6312C21.8823 66.4678 28.0445 69.7615 34.753 71.0959C41.4615 72.4303 48.415 71.7454 54.7343 69.1279C61.0536 66.5104 66.4548 62.0778 70.2548 56.3906C74.0549 50.7034 76.0832 44.017 76.0832 37.1771C76.0832 28.005 72.4396 19.2086 65.954 12.723C59.4683 6.23734 50.6719 2.59375 41.4999 2.59375V2.59375ZM41.4999 66.5729C35.2584 66.5729 29.1571 64.7221 23.9676 61.2546C18.778 57.787 14.7332 52.8584 12.3447 47.0921C9.95622 41.3257 9.33128 34.9806 10.5489 28.8591C11.7666 22.7376 14.7721 17.1146 19.1855 12.7012C23.5988 8.28788 29.2218 5.28234 35.3433 4.0647C41.4648 2.84705 47.81 3.47199 53.5763 5.86049C59.3426 8.24899 64.2712 12.2938 67.7388 17.4833C71.2063 22.6729 73.0571 28.7742 73.0571 35.0156C73.0571 43.3851 69.7324 51.4119 63.8142 57.33C57.8961 63.2481 49.8694 66.5729 41.4999 66.5729V66.5729Z" fill="#EBCB00"/>
<path d="M31.125 9.51041C31.125 10.1983 32.2181 10.858 34.1638 11.3445C36.1095 11.8309 38.7484 12.1042 41.5 12.1042C44.2516 12.1042 46.8905 11.8309 48.8362 11.3445C50.7819 10.858 51.875 10.1983 51.875 9.51041C51.875 8.8225 50.7819 8.16277 48.8362 7.67635C46.8905 7.18993 44.2516 6.91666 41.5 6.91666C38.7484 6.91666 36.1095 7.18993 34.1638 7.67635C32.2181 8.16277 31.125 8.8225 31.125 9.51041Z" fill="#FFF48C"/>
<path opacity="0.15" d="M13.833 78.6771C13.833 79.365 16.7479 80.0247 21.9364 80.5111C27.1249 80.9975 34.162 81.2708 41.4997 81.2708C48.8373 81.2708 55.8745 80.9975 61.063 80.5111C66.2515 80.0247 69.1663 79.365 69.1663 78.6771C69.1663 77.9892 66.2515 77.3294 61.063 76.843C55.8745 76.3566 48.8373 76.0833 41.4997 76.0833C34.162 76.0833 27.1249 76.3566 21.9364 76.843C16.7479 77.3294 13.833 77.9892 13.833 78.6771V78.6771Z" fill="#45413C"/>
<path d="M6.9165 37.1771C6.9165 46.3492 10.5601 55.1456 17.0457 61.6312C23.5314 68.1168 32.3278 71.7604 41.4998 71.7604C50.6719 71.7604 59.4683 68.1168 65.9539 61.6312C72.4396 55.1456 76.0832 46.3492 76.0832 37.1771C76.0832 28.005 72.4396 19.2086 65.9539 12.723C59.4683 6.23734 50.6719 2.59375 41.4998 2.59375C32.3278 2.59375 23.5314 6.23734 17.0457 12.723C10.5601 19.2086 6.9165 28.005 6.9165 37.1771V37.1771Z" stroke="#45413C" stroke-width="0.5" stroke-linecap="round" stroke-linejoin="round"/>
<path d="M66.5726 45.8229C66.5726 47.2581 64.6359 48.4167 62.2497 48.4167C59.8634 48.4167 57.9268 47.2581 57.9268 45.8229C57.9268 44.3877 59.8634 43.2292 62.2497 43.2292C64.6359 43.2292 66.5726 44.3877 66.5726 45.8229Z" fill="#FFAA54"/>
<path d="M16.4268 45.8229C16.4268 47.2581 18.3634 48.4167 20.7497 48.4167C23.1359 48.4167 25.0726 47.2581 25.0726 45.8229C25.0726 44.3877 23.1359 43.2292 20.7497 43.2292C18.3634 43.2292 16.4268 44.3877 16.4268 45.8229Z" fill="#FFAA54"/>
<path d="M20.75 32.8542L26.8021 38.9062" stroke="#45413C" stroke-width="0.5" stroke-linecap="round" stroke-linejoin="round"/>
<path d="M26.8021 32.8542L20.75 38.9062" stroke="#45413C" stroke-width="0.5" stroke-linecap="round" stroke-linejoin="round"/>
<path d="M62.2498 32.8542L56.1978 38.9062" stroke="#45413C" stroke-width="0.5" stroke-linecap="round" stroke-linejoin="round"/>
<path d="M56.1978 32.8542L62.2498 38.9062" stroke="#45413C" stroke-width="0.5" stroke-linecap="round" stroke-linejoin="round"/>
<path d="M18.4502 27.6667C19.8326 26.5422 21.5618 25.9312 23.3437 25.9375C25.1245 25.9383 26.8514 26.5485 28.2373 27.6667" stroke="#45413C" stroke-width="0.5" stroke-linecap="round" stroke-linejoin="round"/>
<path d="M64.5498 27.6667C63.1674 26.5422 61.4382 25.9312 59.6562 25.9375C57.8755 25.9383 56.1486 26.5485 54.7627 27.6667" stroke="#45413C" stroke-width="0.5" stroke-linecap="round" stroke-linejoin="round"/>
<path d="M28.5312 54.4687C28.5312 57.9083 29.8976 61.2069 32.3297 63.639C34.7618 66.0712 38.0605 67.4375 41.5 67.4375C44.9395 67.4375 48.2382 66.0712 50.6703 63.639C53.1024 61.2069 54.4687 57.9083 54.4687 54.4687C54.4687 51.0292 53.1024 47.7306 50.6703 45.2985C48.2382 42.8663 44.9395 41.5 41.5 41.5C38.0605 41.5 34.7618 42.8663 32.3297 45.2985C29.8976 47.7306 28.5312 51.0292 28.5312 54.4687Z" fill="#FFB0CA" stroke="#45413C" stroke-width="0.5" stroke-linecap="round" stroke-linejoin="round"/>
<path d="M30.5195 61.3508C30.5195 62.9651 31.6764 64.5133 33.7356 65.6548C35.7948 66.7962 38.5876 67.4375 41.4997 67.4375C44.4119 67.4375 47.2047 66.7962 49.2639 65.6548C51.3231 64.5133 52.48 62.9651 52.48 61.3508C52.48 59.7365 51.3231 58.1884 49.2639 57.0469C47.2047 55.9054 44.4119 55.2642 41.4997 55.2642C38.5876 55.2642 35.7948 55.9054 33.7356 57.0469C31.6764 58.1884 30.5195 59.7365 30.5195 61.3508Z" fill="#FF866E" stroke="#45413C" stroke-width="0.5" stroke-linecap="round" stroke-linejoin="round"/>
</svg>
