<svg width="83" height="83" viewBox="0 0 83 83" fill="none" xmlns="http://www.w3.org/2000/svg">
<path opacity="0.15" d="M10.8418 78.6771C10.8418 79.0177 11.6348 79.355 13.1755 79.6697C14.7162 79.9844 16.9745 80.2703 19.8214 80.5112C22.6682 80.752 26.048 80.9431 29.7676 81.0734C33.4872 81.2038 37.4738 81.2708 41.4999 81.2708C45.526 81.2708 49.5127 81.2038 53.2323 81.0734C56.9519 80.9431 60.3316 80.752 63.1785 80.5112C66.0254 80.2703 68.2836 79.9844 69.8243 79.6697C71.3651 79.355 72.158 79.0177 72.158 78.6771C72.158 78.3365 71.3651 77.9992 69.8243 77.6845C68.2836 77.3698 66.0254 77.0839 63.1785 76.843C60.3316 76.6022 56.9519 76.4111 53.2323 76.2808C49.5127 76.1504 45.526 76.0833 41.4999 76.0833C37.4738 76.0833 33.4872 76.1504 29.7676 76.2808C26.048 76.4111 22.6682 76.6022 19.8214 76.843C16.9745 77.0839 14.7162 77.3698 13.1755 77.6845C11.6348 77.9992 10.8418 78.3365 10.8418 78.6771V78.6771Z" fill="#45413C"/>
<path d="M10.064 34.03C10.064 42.3674 13.376 50.3633 19.2714 56.2588C25.1669 62.1542 33.1628 65.4662 41.5002 65.4662C49.8376 65.4662 57.8336 62.1542 63.729 56.2588C69.6244 50.3633 72.9365 42.3674 72.9365 34.03C72.9365 25.6926 69.6244 17.6967 63.729 11.8012C57.8336 5.90577 49.8376 2.59375 41.5002 2.59375C33.1628 2.59375 25.1669 5.90577 19.2714 11.8012C13.376 17.6967 10.064 25.6926 10.064 34.03V34.03Z" fill="#FFE500"/>
<path d="M41.5001 2.59375C35.2777 2.59033 29.1941 4.43258 24.019 7.88743C18.8438 11.3423 14.8097 16.2545 12.4269 22.0026C10.0441 27.7506 9.41975 34.0763 10.6328 40.1793C11.8459 46.2823 14.8419 51.8884 19.2418 56.2883C23.6417 60.6882 29.2478 63.6842 35.3508 64.8973C41.4538 66.1104 47.7795 65.4861 53.5276 63.1033C59.2757 60.7205 64.1879 56.6863 67.6427 51.5112C71.0976 46.336 72.9398 40.2524 72.9364 34.03C72.9364 25.6926 69.6244 17.6967 63.7289 11.8012C57.8335 5.90578 49.8375 2.59375 41.5001 2.59375ZM41.5001 60.7629C35.8215 60.7663 30.2695 59.0853 25.5465 55.9326C20.8234 52.7799 17.1417 48.2971 14.967 43.0514C12.7923 37.8056 12.2224 32.0328 13.3294 26.4631C14.4364 20.8934 17.1706 15.7772 21.1859 11.7618C25.2013 7.74646 30.3175 5.0123 35.8872 3.90529C41.4569 2.79829 47.2297 3.36818 52.4754 5.54288C57.7212 7.71757 62.204 11.3993 65.3567 16.1224C68.5094 20.8454 70.1904 26.3974 70.187 32.076C70.187 35.8433 69.445 39.5736 68.0034 43.054C66.5617 46.5345 64.4486 49.6969 61.7848 52.3607C59.121 55.0245 55.9586 57.1376 52.4781 58.5793C48.9977 60.0209 45.2674 60.7629 41.5001 60.7629V60.7629Z" fill="#EBCB00"/>
<path d="M32.0762 8.88792C32.0762 9.19675 32.3199 9.50255 32.7935 9.78787C33.2671 10.0732 33.9613 10.3324 34.8364 10.5508C35.7115 10.7692 36.7504 10.9424 37.8937 11.0606C39.0371 11.1788 40.2626 11.2396 41.5001 11.2396C42.7377 11.2396 43.9632 11.1788 45.1065 11.0606C46.2499 10.9424 47.2888 10.7692 48.1639 10.5508C49.039 10.3324 49.7331 10.0732 50.2067 9.78787C50.6803 9.50255 50.9241 9.19675 50.9241 8.88792C50.9241 8.5791 50.6803 8.2733 50.2067 7.98798C49.7331 7.70266 49.039 7.44341 48.1639 7.22504C47.2888 7.00667 46.2499 6.83345 45.1065 6.71526C43.9632 6.59708 42.7377 6.53625 41.5001 6.53625C40.2626 6.53625 39.0371 6.59708 37.8937 6.71526C36.7504 6.83345 35.7115 7.00667 34.8364 7.22504C33.9613 7.44341 33.2671 7.70266 32.7935 7.98798C32.3199 8.2733 32.0762 8.5791 32.0762 8.88792V8.88792Z" fill="#FFF48C"/>
<path d="M10.064 34.03C10.064 42.3674 13.376 50.3633 19.2714 56.2588C25.1669 62.1542 33.1628 65.4662 41.5002 65.4662C49.8376 65.4662 57.8336 62.1542 63.729 56.2588C69.6244 50.3633 72.9365 42.3674 72.9365 34.03C72.9365 25.6926 69.6244 17.6967 63.729 11.8012C57.8336 5.90577 49.8376 2.59375 41.5002 2.59375C33.1628 2.59375 25.1669 5.90577 19.2714 11.8012C13.376 17.6967 10.064 25.6926 10.064 34.03V34.03Z" stroke="#45413C" stroke-width="0.5" stroke-linecap="round" stroke-linejoin="round"/>
<path d="M64.2904 41.8977C64.2904 43.1946 62.5612 44.2494 60.3652 44.2494C58.1691 44.2494 56.4399 43.1946 56.4399 41.8977C56.4399 40.6008 58.1691 39.5287 60.3652 39.5287C62.5612 39.5287 64.2904 40.6008 64.2904 41.8977Z" fill="#FFAA54"/>
<path d="M18.7095 41.8977C18.7095 43.1946 20.4386 44.2494 22.6347 44.2494C24.8307 44.2494 26.5599 43.1946 26.5599 41.8977C26.5599 40.6008 24.8307 39.5287 22.6347 39.5287C20.4386 39.5287 18.7095 40.6008 18.7095 41.8977Z" fill="#FFAA54"/>
<path d="M24.2085 52.1171C24.2085 54.6165 26.0303 57.0135 29.2731 58.7808C32.5159 60.5482 36.9141 61.541 41.5002 61.541C46.0862 61.541 50.4844 60.5482 53.7272 58.7808C56.97 57.0135 58.7918 54.6165 58.7918 52.1171C58.7918 49.6177 56.97 47.2207 53.7272 45.4533C50.4844 43.686 46.0862 42.6931 41.5002 42.6931C36.9141 42.6931 32.5159 43.686 29.2731 45.4533C26.0303 47.2207 24.2085 49.6177 24.2085 52.1171V52.1171Z" fill="#FFB0CA" stroke="#45413C" stroke-width="0.5" stroke-linecap="round" stroke-linejoin="round"/>
<path d="M58.4112 25.6435C54.7134 25.0412 51.2838 23.3355 48.5723 20.75" stroke="#45413C" stroke-width="0.5" stroke-linecap="round" stroke-linejoin="round"/>
<path d="M24.5889 25.6435C28.2867 25.0412 31.7163 23.3355 34.4278 20.75" stroke="#45413C" stroke-width="0.5" stroke-linecap="round" stroke-linejoin="round"/>
<path d="M60.7801 28.5312L55.731 31.125C55.4686 31.2553 55.2479 31.4563 55.0935 31.7052C54.9392 31.9542 54.8574 32.2413 54.8574 32.5343C54.8574 32.8272 54.9392 33.1143 55.0935 33.3633C55.2479 33.6123 55.4686 33.8132 55.731 33.9435L60.7801 36.4681" stroke="#45413C" stroke-width="0.5" stroke-linecap="round" stroke-linejoin="round"/>
<path d="M22.2197 28.5312L27.2689 31.125C27.5312 31.2553 27.752 31.4563 27.9063 31.7052C28.0607 31.9542 28.1424 32.2413 28.1424 32.5343C28.1424 32.8272 28.0607 33.1143 27.9063 33.3633C27.752 33.6123 27.5312 33.8132 27.2689 33.9435L22.2197 36.4681" stroke="#45413C" stroke-width="0.5" stroke-linecap="round" stroke-linejoin="round"/>
<path d="M57.0625 67.1436C57.964 67.1018 58.8615 67.286 59.6736 67.6796C60.1538 67.8921 60.5794 68.2112 60.9179 68.6127C61.2565 69.0141 61.4991 69.4874 61.6275 69.9967C65.2242 71.6048 66.158 73.455 65.9505 75.53C65.743 77.605 64.2213 78.6771 58.1 78.6771H25.0038C18.8998 78.6771 17.3263 77.6223 17.1361 75.53C16.9459 73.4377 18.0698 71.2071 22.7386 69.4952C22.3231 68.9506 22.0489 68.3117 21.9404 67.6353C21.8319 66.959 21.8925 66.2663 22.1168 65.6191C22.3411 64.9719 22.7221 64.3903 23.2259 63.9261C23.7296 63.4619 24.3404 63.1297 25.0038 62.959C28.0125 62.4575 28.1336 59.8119 28.1336 55.8867V46.1342C32.1722 43.7401 36.8071 42.5409 41.5 42.6758C46.193 42.5409 50.8279 43.7401 54.8665 46.1342V57.4602C54.8665 60.2788 55.195 64.5152 57.0625 67.1436Z" fill="#6DD627"/>
<path d="M54.8667 52.1863V46.1342C50.8281 43.7401 46.1932 42.5409 41.5002 42.6758C36.8073 42.5409 32.1724 43.7401 28.1338 46.1342V52.1863C32.1724 49.7922 36.8073 48.593 41.5002 48.7279C46.1932 48.593 50.8281 49.7922 54.8667 52.1863V52.1863Z" fill="#46B000"/>
<path d="M57.0625 67.1436C57.964 67.1018 58.8615 67.286 59.6736 67.6796C60.1538 67.8921 60.5794 68.2112 60.9179 68.6127C61.2565 69.0141 61.4991 69.4874 61.6275 69.9967C65.2242 71.6048 66.158 73.455 65.9505 75.53C65.743 77.605 64.2213 78.6771 58.1 78.6771H25.0038C18.8998 78.6771 17.3263 77.6223 17.1361 75.53C16.9459 73.4377 18.0698 71.2071 22.7386 69.4952C22.3231 68.9506 22.0489 68.3117 21.9404 67.6353C21.8319 66.959 21.8925 66.2663 22.1168 65.6191C22.3411 64.9719 22.7221 64.3903 23.2259 63.9261C23.7296 63.4619 24.3404 63.1297 25.0038 62.959C28.0125 62.4575 28.1336 59.8119 28.1336 55.8867V46.1342C32.1722 43.7401 36.8071 42.5409 41.5 42.6758C46.193 42.5409 50.8279 43.7401 54.8665 46.1342V57.4602C54.8665 60.2788 55.195 64.5152 57.0625 67.1436Z" stroke="#45413C" stroke-width="0.5" stroke-linecap="round" stroke-linejoin="round"/>
<path d="M48.5723 52.7396C48.5723 58.8263 49.7135 65.8986 52.5148 66.8842C55.316 67.8698 57.0279 66.4519 59.5871 67.6796C60.186 67.9568 60.6931 68.3996 61.0485 68.9557C61.4039 69.5119 61.5927 70.1581 61.5927 70.818C61.5927 71.478 61.4039 72.1242 61.0485 72.6803C60.6931 73.2364 60.186 73.6792 59.5871 73.9565" stroke="#45413C" stroke-width="0.5" stroke-linecap="round" stroke-linejoin="round"/>
<path d="M28.1338 55.8867C28.1338 59.8119 28.0128 62.4575 25.004 62.9589C21.9953 63.4604 20.6292 68.4231 23.4305 70.0312C24.5906 70.6193 25.8782 70.9113 27.1786 70.8811C28.4789 70.851 29.7516 70.4996 30.8832 69.8583" stroke="#45413C" stroke-width="0.5" stroke-linecap="round" stroke-linejoin="round"/>
<path d="M33.6495 57.4602C33.6495 57.4602 33.2864 67.524 29.707 71.6048C27.4245 74.2158 27.217 78.6771 29.707 78.6771" stroke="#45413C" stroke-width="0.5" stroke-linecap="round" stroke-linejoin="round"/>
<path d="M43.8516 61.3854C43.8516 61.3854 45.2349 70.0313 46.9986 71.6048C48.7624 73.1784 51.2351 72.3829 53.2928 73.1784C55.3505 73.9738 55.7136 78.6771 52.5147 78.6771" stroke="#45413C" stroke-width="0.5" stroke-linecap="round" stroke-linejoin="round"/>
<path d="M38.3529 78.6771C37.5592 78.2183 36.961 77.4848 36.6711 76.6151C36.3812 75.7455 36.4197 74.7997 36.7793 73.9565" stroke="#45413C" stroke-width="0.5" stroke-linecap="round" stroke-linejoin="round"/>
<path d="M68.0083 63.1146C68.0083 63.1146 68.7 60.2096 69.53 57.564C69.5945 56.9808 69.8671 56.4405 70.2978 56.0422C70.7284 55.6438 71.2883 55.4141 71.8747 55.3952C72.4611 55.3762 73.0346 55.5694 73.4901 55.9392C73.9455 56.309 74.2524 56.8306 74.3543 57.4083C75.4437 60.2269 72.0546 62.9417 68.0083 63.1146Z" fill="#6DD627" stroke="#45413C" stroke-width="0.5" stroke-linecap="round" stroke-linejoin="round"/>
<path d="M68.1636 69.4606C69.2944 68.7891 70.3346 67.9755 71.2588 67.0398C72.7805 65.3106 76.0486 67.9908 73.6796 70.1523C71.3107 72.3138 68.1636 69.4606 68.1636 69.4606Z" fill="#6DD627" stroke="#45413C" stroke-width="0.5" stroke-linecap="round" stroke-linejoin="round"/>
<path d="M13.5567 69.841C12.9082 68.1385 12.4782 66.3606 12.2771 64.5498C12.1042 61.3854 6.27693 61.4373 6.91673 65.8121C7.55652 70.1869 13.5567 69.841 13.5567 69.841Z" fill="#6DD627" stroke="#45413C" stroke-width="0.5" stroke-linecap="round" stroke-linejoin="round"/>
</svg>
