<svg width="24" height="24" viewBox="0 0 24 24" fill="none" xmlns="http://www.w3.org/2000/svg">
<path opacity="0.15" d="M4 22.75C4 22.9489 4.84285 23.1397 6.34315 23.2803C7.84344 23.421 9.87827 23.5 12 23.5C14.1217 23.5 16.1566 23.421 17.6569 23.2803C19.1571 23.1397 20 22.9489 20 22.75C20 22.5511 19.1571 22.3603 17.6569 22.2197C16.1566 22.079 14.1217 22 12 22C9.87827 22 7.84344 22.079 6.34315 22.2197C4.84285 22.3603 4 22.5511 4 22.75V22.75Z" fill="#45413C"/>
<path d="M2 10.75C2 13.4022 3.05357 15.9457 4.92893 17.8211C6.8043 19.6964 9.34784 20.75 12 20.75C14.6522 20.75 17.1957 19.6964 19.0711 17.8211C20.9464 15.9457 22 13.4022 22 10.75C22 8.09784 20.9464 5.5543 19.0711 3.67893C17.1957 1.80357 14.6522 0.75 12 0.75C9.34784 0.75 6.8043 1.80357 4.92893 3.67893C3.05357 5.5543 2 8.09784 2 10.75V10.75Z" fill="#FFE500"/>
<path d="M12 0.75C10.0222 0.75 8.08879 1.33649 6.4443 2.4353C4.79981 3.53412 3.51808 5.0959 2.7612 6.92317C2.00433 8.75043 1.80629 10.7611 2.19215 12.7009C2.578 14.6407 3.53041 16.4225 4.92893 17.8211C6.32746 19.2196 8.10929 20.172 10.0491 20.5579C11.9889 20.9437 13.9996 20.7457 15.8268 19.9888C17.6541 19.2319 19.2159 17.9502 20.3147 16.3057C21.4135 14.6612 22 12.7278 22 10.75C22 8.09784 20.9464 5.5543 19.0711 3.67893C17.1957 1.80357 14.6522 0.75 12 0.75V0.75ZM12 19.25C10.1952 19.25 8.43102 18.7148 6.93042 17.7122C5.42982 16.7095 4.26025 15.2844 3.5696 13.617C2.87895 11.9496 2.69824 10.1149 3.05033 8.3448C3.40242 6.57472 4.2715 4.9488 5.54765 3.67265C6.8238 2.3965 8.44972 1.52742 10.2198 1.17533C11.9899 0.823244 13.8246 1.00395 15.492 1.6946C17.1594 2.38525 18.5845 3.55482 19.5872 5.05542C20.5898 6.55602 21.125 8.32025 21.125 10.125C21.125 12.5451 20.1636 14.8661 18.4523 16.5773C16.7411 18.2886 14.4201 19.25 12 19.25V19.25Z" fill="#EBCB00"/>
<path d="M9 2.75C9 2.94891 9.31607 3.13968 9.87868 3.28033C10.4413 3.42098 11.2044 3.5 12 3.5C12.7956 3.5 13.5587 3.42098 14.1213 3.28033C14.6839 3.13968 15 2.94891 15 2.75C15 2.55109 14.6839 2.36032 14.1213 2.21967C13.5587 2.07902 12.7956 2 12 2C11.2044 2 10.4413 2.07902 9.87868 2.21967C9.31607 2.36032 9 2.55109 9 2.75Z" fill="#FFF48C"/>
<path d="M2 10.75C2 13.4022 3.05357 15.9457 4.92893 17.8211C6.8043 19.6964 9.34784 20.75 12 20.75C14.6522 20.75 17.1957 19.6964 19.0711 17.8211C20.9464 15.9457 22 13.4022 22 10.75C22 8.09784 20.9464 5.5543 19.0711 3.67893C17.1957 1.80357 14.6522 0.75 12 0.75C9.34784 0.75 6.8043 1.80357 4.92893 3.67893C3.05357 5.5543 2 8.09784 2 10.75V10.75Z" stroke="#45413C" stroke-width="0.2" stroke-linecap="round" stroke-linejoin="round"/>
<path d="M19.25 13.25C19.25 13.665 18.69 14 18 14C17.31 14 16.75 13.665 16.75 13.25C16.75 12.835 17.31 12.5 18 12.5C18.69 12.5 19.25 12.835 19.25 13.25Z" fill="#FFAA54"/>
<path d="M4.75 13.25C4.75 13.665 5.31 14 6 14C6.69 14 7.25 13.665 7.25 13.25C7.25 12.835 6.69 12.5 6 12.5C5.31 12.5 4.75 12.835 4.75 13.25Z" fill="#FFAA54"/>
<path d="M7.25 8.75C7.25 8.84889 7.22067 8.94556 7.16573 9.02779C7.11079 9.11001 7.0327 9.1741 6.94134 9.21194C6.84998 9.24978 6.74944 9.25969 6.65245 9.24039C6.55546 9.2211 6.46637 9.17348 6.39645 9.10355C6.32652 9.03363 6.2789 8.94454 6.25961 8.84755C6.24031 8.75056 6.25022 8.65002 6.28806 8.55866C6.3259 8.4673 6.38999 8.38921 6.47221 8.33426C6.55444 8.27932 6.65111 8.25 6.75 8.25C6.88261 8.25 7.00978 8.30268 7.10355 8.39645C7.19732 8.49021 7.25 8.61739 7.25 8.75Z" fill="#45413C" stroke="#45413C" stroke-width="0.2" stroke-linecap="round" stroke-linejoin="round"/>
<path d="M16.75 10.25C16.75 10.3489 16.7793 10.4456 16.8343 10.5278C16.8892 10.61 16.9673 10.6741 17.0587 10.7119C17.15 10.7498 17.2506 10.7597 17.3475 10.7404C17.4445 10.7211 17.5336 10.6735 17.6036 10.6036C17.6735 10.5336 17.7211 10.4445 17.7404 10.3475C17.7597 10.2506 17.7498 10.15 17.7119 10.0587C17.6741 9.9673 17.61 9.88921 17.5278 9.83426C17.4456 9.77932 17.3489 9.75 17.25 9.75C17.1174 9.75 16.9902 9.80268 16.8964 9.89645C16.8027 9.99021 16.75 10.1174 16.75 10.25Z" fill="#45413C" stroke="#45413C" stroke-width="0.2" stroke-linecap="round" stroke-linejoin="round"/>
<path d="M21.25 7H22C22.1989 7 22.3897 7.07902 22.5303 7.21967C22.671 7.36032 22.75 7.55109 22.75 7.75V8.5C22.75 8.69891 22.671 8.88968 22.5303 9.03033C22.3897 9.17098 22.1989 9.25 22 9.25H21.25V7Z" fill="#87898C"/>
<path d="M22 7H21.25V7.75H22C22.1989 7.75 22.3897 7.82902 22.5303 7.96967C22.671 8.11032 22.75 8.30109 22.75 8.5V7.75C22.75 7.55109 22.671 7.36032 22.5303 7.21967C22.3897 7.07902 22.1989 7 22 7Z" fill="#BDBEC0"/>
<path d="M21.25 7H22C22.1989 7 22.3897 7.07902 22.5303 7.21967C22.671 7.36032 22.75 7.55109 22.75 7.75V8.5C22.75 8.69891 22.671 8.88968 22.5303 9.03033C22.3897 9.17098 22.1989 9.25 22 9.25H21.25V7Z" stroke="#45413C" stroke-width="0.2" stroke-linecap="round" stroke-linejoin="round"/>
<path d="M13.25 8.25C13.25 8.80812 13.3599 9.36077 13.5735 9.8764C13.7871 10.392 14.1001 10.8606 14.4948 11.2552C14.8894 11.6499 15.358 11.9629 15.8736 12.1765C16.3892 12.3901 16.9419 12.5 17.5 12.5C18.0581 12.5 18.6108 12.3901 19.1264 12.1765C19.642 11.9629 20.1106 11.6499 20.5052 11.2552C20.8999 10.8606 21.2129 10.392 21.4265 9.8764C21.6401 9.36077 21.75 8.80812 21.75 8.25C21.75 7.69188 21.6401 7.13923 21.4265 6.6236C21.2129 6.10796 20.8999 5.63945 20.5052 5.2448C20.1106 4.85015 19.642 4.53709 19.1264 4.32351C18.6108 4.10993 18.0581 4 17.5 4C16.9419 4 16.3892 4.10993 15.8736 4.32351C15.358 4.53709 14.8894 4.85015 14.4948 5.2448C14.1001 5.63945 13.7871 6.10796 13.5735 6.6236C13.3599 7.13923 13.25 7.69188 13.25 8.25Z" fill="#87898C"/>
<path d="M17.5 5C18.5405 5.00012 19.5448 5.38194 20.3226 6.07309C21.1004 6.76425 21.5976 7.71672 21.72 8.75C21.72 8.585 21.75 8.42 21.75 8.25C21.75 7.12283 21.3022 6.04183 20.5052 5.2448C19.7082 4.44777 18.6272 4 17.5 4C16.3728 4 15.2918 4.44777 14.4948 5.2448C13.6978 6.04183 13.25 7.12283 13.25 8.25C13.25 8.42 13.25 8.585 13.28 8.75C13.4024 7.71672 13.8996 6.76425 14.6774 6.07309C15.4552 5.38194 16.4595 5.00012 17.5 5V5Z" fill="#BDBEC0"/>
<path d="M13.25 8.25C13.25 8.80812 13.3599 9.36077 13.5735 9.8764C13.7871 10.392 14.1001 10.8606 14.4948 11.2552C14.8894 11.6499 15.358 11.9629 15.8736 12.1765C16.3892 12.3901 16.9419 12.5 17.5 12.5C18.0581 12.5 18.6108 12.3901 19.1264 12.1765C19.642 11.9629 20.1106 11.6499 20.5052 11.2552C20.8999 10.8606 21.2129 10.392 21.4265 9.8764C21.6401 9.36077 21.75 8.80812 21.75 8.25C21.75 7.69188 21.6401 7.13923 21.4265 6.6236C21.2129 6.10796 20.8999 5.63945 20.5052 5.2448C20.1106 4.85015 19.642 4.53709 19.1264 4.32351C18.6108 4.10993 18.0581 4 17.5 4C16.9419 4 16.3892 4.10993 15.8736 4.32351C15.358 4.53709 14.8894 4.85015 14.4948 5.2448C14.1001 5.63945 13.7871 6.10796 13.5735 6.6236C13.3599 7.13923 13.25 7.69188 13.25 8.25Z" stroke="#45413C" stroke-width="0.2" stroke-linecap="round" stroke-linejoin="round"/>
<path d="M14.25 8.25C14.25 9.11195 14.5924 9.9386 15.2019 10.5481C15.8114 11.1576 16.638 11.5 17.5 11.5C18.362 11.5 19.1886 11.1576 19.7981 10.5481C20.4076 9.9386 20.75 9.11195 20.75 8.25C20.75 7.38805 20.4076 6.5614 19.7981 5.9519C19.1886 5.34241 18.362 5 17.5 5C16.638 5 15.8114 5.34241 15.2019 5.9519C14.5924 6.5614 14.25 7.38805 14.25 8.25Z" fill="#00B8F0"/>
<path d="M17.5 5C16.9315 5.00018 16.3731 5.14946 15.8804 5.43293C15.3876 5.7164 14.9779 6.12415 14.692 6.61548C14.4061 7.10681 14.2541 7.66453 14.2511 8.23297C14.2481 8.80142 14.3943 9.3607 14.675 9.855L18.585 5.19C18.2368 5.06549 17.8698 5.00123 17.5 5V5Z" fill="#4ACFFF"/>
<path d="M14.25 8.25C14.25 9.11195 14.5924 9.9386 15.2019 10.5481C15.8114 11.1576 16.638 11.5 17.5 11.5C18.362 11.5 19.1886 11.1576 19.7981 10.5481C20.4076 9.9386 20.75 9.11195 20.75 8.25C20.75 7.38805 20.4076 6.5614 19.7981 5.9519C19.1886 5.34241 18.362 5 17.5 5C16.638 5 15.8114 5.34241 15.2019 5.9519C14.5924 6.5614 14.25 7.38805 14.25 8.25Z" stroke="#45413C" stroke-width="0.2" stroke-linecap="round" stroke-linejoin="round"/>
<path d="M22.75 8C22.75 8 23.5 8.03 23.5 9V17.5C23.5211 17.768 23.4838 18.0374 23.3907 18.2896C23.2977 18.5418 23.151 18.7708 22.9609 18.9609C22.7708 19.151 22.5418 19.2977 22.2896 19.3907C22.0374 19.4838 21.768 19.5211 21.5 19.5C21.2312 19.5246 20.9603 19.4897 20.7065 19.3979C20.4526 19.3061 20.2221 19.1596 20.0313 18.9687C19.8404 18.7779 19.6939 18.5474 19.6021 18.2935C19.5103 18.0397 19.4754 17.7688 19.5 17.5V17.365" stroke="#45413C" stroke-width="0.2" stroke-linecap="round" stroke-linejoin="round"/>
<path d="M10.5 14.31C10.9688 14.0907 11.4826 13.9845 12 14C12.5174 13.9845 13.0312 14.0907 13.5 14.31" stroke="#45413C" stroke-width="0.2" stroke-linecap="round" stroke-linejoin="round"/>
<path d="M5.5 7.5C5.5 7.5 5.71 6.25 6.75 6.25C7.79 6.25 8 7.5 8 7.5" stroke="#45413C" stroke-width="0.2" stroke-linecap="round" stroke-linejoin="round"/>
</svg>
