<svg width="83" height="83" viewBox="0 0 83 83" fill="none" xmlns="http://www.w3.org/2000/svg">
<path d="M6.9165 37.1771C6.9165 46.3492 10.5601 55.1456 17.0457 61.6312C23.5314 68.1168 32.3278 71.7604 41.4998 71.7604C50.6719 71.7604 59.4683 68.1168 65.9539 61.6312C72.4396 55.1456 76.0832 46.3492 76.0832 37.1771C76.0832 28.005 72.4396 19.2086 65.9539 12.723C59.4683 6.23734 50.6719 2.59375 41.4998 2.59375C32.3278 2.59375 23.5314 6.23734 17.0457 12.723C10.5601 19.2086 6.9165 28.005 6.9165 37.1771V37.1771Z" fill="#FFE500"/>
<path d="M41.4999 2.59375C34.6599 2.59375 27.9736 4.62203 22.2864 8.42209C16.5992 12.2222 12.1665 17.6233 9.54902 23.9426C6.93149 30.2619 6.24662 37.2154 7.58103 43.924C8.91543 50.6325 12.2092 56.7946 17.0457 61.6312C21.8823 66.4678 28.0445 69.7615 34.753 71.0959C41.4615 72.4303 48.415 71.7454 54.7343 69.1279C61.0536 66.5104 66.4548 62.0778 70.2548 56.3906C74.0549 50.7034 76.0832 44.017 76.0832 37.1771C76.0832 28.005 72.4396 19.2086 65.954 12.723C59.4683 6.23734 50.6719 2.59375 41.4999 2.59375V2.59375ZM41.4999 66.5729C35.2584 66.5729 29.1571 64.7221 23.9676 61.2546C18.778 57.787 14.7332 52.8584 12.3447 47.0921C9.95622 41.3257 9.33128 34.9806 10.5489 28.8591C11.7666 22.7376 14.7721 17.1146 19.1855 12.7012C23.5988 8.28788 29.2218 5.28234 35.3433 4.0647C41.4648 2.84705 47.81 3.47199 53.5763 5.86049C59.3426 8.24899 64.2712 12.2938 67.7388 17.4833C71.2063 22.6729 73.0571 28.7742 73.0571 35.0156C73.0571 43.3851 69.7324 51.4119 63.8142 57.33C57.8961 63.2481 49.8694 66.5729 41.4999 66.5729V66.5729Z" fill="#EBCB00"/>
<path d="M31.125 9.51041C31.125 10.1983 32.2181 10.8581 34.1638 11.3445C36.1095 11.8309 38.7484 12.1042 41.5 12.1042C44.2516 12.1042 46.8905 11.8309 48.8362 11.3445C50.7819 10.8581 51.875 10.1983 51.875 9.51041C51.875 8.82251 50.7819 8.16278 48.8362 7.67636C46.8905 7.18993 44.2516 6.91666 41.5 6.91666C38.7484 6.91666 36.1095 7.18993 34.1638 7.67636C32.2181 8.16278 31.125 8.82251 31.125 9.51041Z" fill="#FFF48C"/>
<path d="M6.9165 37.1771C6.9165 46.3492 10.5601 55.1456 17.0457 61.6312C23.5314 68.1168 32.3278 71.7604 41.4998 71.7604C50.6719 71.7604 59.4683 68.1168 65.9539 61.6312C72.4396 55.1456 76.0832 46.3492 76.0832 37.1771C76.0832 28.005 72.4396 19.2086 65.9539 12.723C59.4683 6.23734 50.6719 2.59375 41.4998 2.59375C32.3278 2.59375 23.5314 6.23734 17.0457 12.723C10.5601 19.2086 6.9165 28.005 6.9165 37.1771V37.1771Z" stroke="#45413C" stroke-width="0.5" stroke-linecap="round" stroke-linejoin="round"/>
<path opacity="0.15" d="M13.833 78.6771C13.833 79.365 16.7479 80.0247 21.9364 80.5111C27.1249 80.9976 34.162 81.2708 41.4997 81.2708C48.8373 81.2708 55.8745 80.9976 61.063 80.5111C66.2515 80.0247 69.1663 79.365 69.1663 78.6771C69.1663 77.9892 66.2515 77.3294 61.063 76.843C55.8745 76.3566 48.8373 76.0833 41.4997 76.0833C34.162 76.0833 27.1249 76.3566 21.9364 76.843C16.7479 77.3294 13.833 77.9892 13.833 78.6771V78.6771Z" fill="#45413C"/>
<path d="M18.5884 26.8021C20.6179 27.1292 22.584 27.7709 24.4157 28.7042C26.2518 29.6237 27.9322 30.8257 29.3957 32.2662" stroke="#45413C" stroke-width="0.5" stroke-linecap="round" stroke-linejoin="round"/>
<path d="M64.4113 26.8021C60.3337 27.4719 56.5607 29.3795 53.604 32.2662" stroke="#45413C" stroke-width="0.5" stroke-linecap="round" stroke-linejoin="round"/>
<path d="M66.5726 45.8229C66.5726 47.2581 64.6359 48.4167 62.2497 48.4167C59.8634 48.4167 57.9268 47.2581 57.9268 45.8229C57.9268 44.3877 59.8634 43.2292 62.2497 43.2292C64.6359 43.2292 66.5726 44.3877 66.5726 45.8229Z" fill="#FFAA54"/>
<path d="M16.4268 45.8229C16.4268 47.2581 18.3634 48.4167 20.7497 48.4167C23.1359 48.4167 25.0726 47.2581 25.0726 45.8229C25.0726 44.3877 23.1359 43.2292 20.7497 43.2292C18.3634 43.2292 16.4268 44.3877 16.4268 45.8229Z" fill="#FFAA54"/>
<path d="M32.854 54.4687C35.4132 52.7588 38.422 51.8461 41.4998 51.8461C44.5777 51.8461 47.5865 52.7588 50.1457 54.4687" stroke="#45413C" stroke-width="0.5" stroke-linecap="round"/>
<path d="M65.7083 35.4479C65.7083 36.2505 65.3895 37.0201 64.822 37.5876C64.2545 38.1551 63.4848 38.4739 62.6823 38.4739C61.8797 38.4739 61.11 38.1551 60.5426 37.5876C59.9751 37.0201 59.6562 36.2505 59.6562 35.4479" stroke="#45413C" stroke-width="0.5" stroke-linecap="round" stroke-linejoin="round"/>
<path d="M23.3436 35.4479C23.3436 36.2505 23.0248 37.0201 22.4573 37.5876C21.8898 38.1551 21.1201 38.4739 20.3175 38.4739C19.515 38.4739 18.7453 38.1551 18.1778 37.5876C17.6103 37.0201 17.2915 36.2505 17.2915 35.4479" stroke="#45413C" stroke-width="0.5" stroke-linecap="round" stroke-linejoin="round"/>
<path d="M72.0887 60.2788C71.5266 59.2174 70.5661 58.4226 69.4183 58.0692C68.2704 57.7158 67.0292 57.8326 65.9675 58.394C65.3883 58.7055 64.8861 59.1427 64.4977 59.6735L53.6039 44.9583C53.3002 44.6223 52.8925 44.398 52.4461 44.3212C51.9997 44.2445 51.5405 44.3197 51.1419 44.5349C50.7434 44.7502 50.4286 45.0929 50.2479 45.5082C50.0673 45.9236 50.0313 46.3876 50.1456 46.8258L56.2841 64.1175C55.625 64.1472 54.9809 64.3245 54.3994 64.6363C53.5072 65.2644 52.8717 66.1934 52.6096 67.2526C52.3476 68.3117 52.4766 69.4299 52.9729 70.4016C53.4693 71.3732 54.2996 72.1331 55.3114 72.5416C56.3232 72.9501 57.4483 72.9797 58.4802 72.625C59.5353 73.7216 60.9189 74.4447 62.4217 74.6849C63.9244 74.925 65.4645 74.6691 66.8088 73.9559C68.1531 73.2427 69.2286 72.111 69.8723 70.7321C70.5161 69.3532 70.6932 67.8021 70.3769 66.3135C71.3857 65.7228 72.1271 64.765 72.4462 63.6403C72.7652 62.5157 72.6371 61.3112 72.0887 60.2788V60.2788Z" fill="white" stroke="#45413C" stroke-width="0.5" stroke-linecap="round" stroke-linejoin="round"/>
<path d="M10.9108 60.2788C11.4729 59.2174 12.4334 58.4226 13.5812 58.0692C14.7291 57.7158 15.9703 57.8326 17.032 58.394C17.6113 58.7055 18.1134 59.1427 18.5018 59.6735L29.3956 44.9583C29.6993 44.6223 30.107 44.398 30.5534 44.3212C30.9998 44.2445 31.459 44.3197 31.8576 44.5349C32.2561 44.7502 32.5709 45.0929 32.7516 45.5082C32.9322 45.9236 32.9682 46.3876 32.8539 46.8258L26.7326 63.9792C27.3918 64.0089 28.0359 64.1862 28.6174 64.4979C29.1511 64.767 29.6265 65.1386 30.0165 65.5914C30.4065 66.0442 30.7036 66.5694 30.8906 67.137C31.0777 67.7046 31.1511 68.3035 31.1067 68.8995C31.0623 69.4955 30.901 70.0769 30.6319 70.6105C30.3628 71.1442 29.9913 71.6196 29.5385 72.0096C29.0856 72.3996 28.5604 72.6967 27.9928 72.8837C26.8465 73.2615 25.597 73.1684 24.5193 72.625C23.4642 73.7216 22.0806 74.4447 20.5778 74.6849C19.0751 74.925 17.535 74.6691 16.1907 73.9559C14.8464 73.2427 13.7709 72.111 13.1272 70.7321C12.4834 69.3532 12.3063 67.8021 12.6226 66.3135C11.6138 65.7228 10.8724 64.765 10.5533 63.6403C10.2343 62.5157 10.3624 61.3112 10.9108 60.2788V60.2788Z" fill="white" stroke="#45413C" stroke-width="0.5" stroke-linecap="round" stroke-linejoin="round"/>
</svg>
