<svg width="83" height="83" viewBox="0 0 83 83" fill="none" xmlns="http://www.w3.org/2000/svg">
<path d="M6.9165 36.9523C6.9165 46.1244 10.5601 54.9208 17.0457 61.4064C23.5314 67.892 32.3278 71.5356 41.4998 71.5356C50.6719 71.5356 59.4683 67.892 65.9539 61.4064C72.4396 54.9208 76.0832 46.1244 76.0832 36.9523C76.0832 27.7802 72.4396 18.9838 65.9539 12.4982C59.4683 6.01255 50.6719 2.36896 41.4998 2.36896C32.3278 2.36896 23.5314 6.01255 17.0457 12.4982C10.5601 18.9838 6.9165 27.7802 6.9165 36.9523V36.9523Z" fill="#FF6242"/>
<path d="M41.4999 2.36896C34.6599 2.36896 27.9736 4.39723 22.2864 8.1973C16.5992 11.9974 12.1665 17.3985 9.54902 23.7178C6.93149 30.0371 6.24662 36.9907 7.58103 43.6992C8.91543 50.4077 12.2092 56.5698 17.0457 61.4064C21.8823 66.243 28.0445 69.5367 34.753 70.8711C41.4615 72.2055 48.415 71.5207 54.7343 68.9031C61.0536 66.2856 66.4548 61.853 70.2548 56.1658C74.0549 50.4786 76.0832 43.7922 76.0832 36.9523C76.0832 27.7802 72.4396 18.9838 65.954 12.4982C59.4683 6.01255 50.6719 2.36896 41.4999 2.36896V2.36896ZM41.4999 66.3481C35.2584 66.3481 29.1571 64.4973 23.9676 61.0298C18.778 57.5622 14.7332 52.6336 12.3447 46.8673C9.95622 41.1009 9.33128 34.7558 10.5489 28.6343C11.7666 22.5128 14.7721 16.8898 19.1855 12.4765C23.5988 8.06309 29.2218 5.05755 35.3433 3.83991C41.4648 2.62226 47.81 3.2472 53.5763 5.6357C59.3426 8.02419 64.2712 12.069 67.7388 17.2585C71.2063 22.4481 73.0571 28.5494 73.0571 34.7908C73.0571 43.1603 69.7324 51.1871 63.8142 57.1052C57.8961 63.0233 49.8694 66.3481 41.4999 66.3481V66.3481Z" fill="#E04122"/>
<path d="M31.125 9.28562C31.125 9.97353 32.2181 10.6333 34.1638 11.1197C36.1095 11.6061 38.7484 11.8794 41.5 11.8794C44.2516 11.8794 46.8905 11.6061 48.8362 11.1197C50.7819 10.6333 51.875 9.97353 51.875 9.28562C51.875 8.59772 50.7819 7.93799 48.8362 7.45156C46.8905 6.96514 44.2516 6.69187 41.5 6.69187C38.7484 6.69187 36.1095 6.96514 34.1638 7.45156C32.2181 7.93799 31.125 8.59772 31.125 9.28562Z" fill="#FF866E"/>
<path opacity="0.15" d="M15.5625 78.0373C15.5625 78.7252 18.2952 79.3849 23.1594 79.8713C28.0236 80.3578 34.6209 80.631 41.5 80.631C48.3791 80.631 54.9764 80.3578 59.8406 79.8713C64.7048 79.3849 67.4375 78.7252 67.4375 78.0373C67.4375 77.3494 64.7048 76.6897 59.8406 76.2032C54.9764 75.7168 48.3791 75.4435 41.5 75.4435C34.6209 75.4435 28.0236 75.7168 23.1594 76.2032C18.2952 76.6897 15.5625 77.3494 15.5625 78.0373V78.0373Z" fill="#45413C"/>
<path d="M6.9165 36.9523C6.9165 46.1244 10.5601 54.9208 17.0457 61.4064C23.5314 67.892 32.3278 71.5356 41.4998 71.5356C50.6719 71.5356 59.4683 67.892 65.9539 61.4064C72.4396 54.9208 76.0832 46.1244 76.0832 36.9523C76.0832 27.7802 72.4396 18.9838 65.9539 12.4982C59.4683 6.01255 50.6719 2.36896 41.4998 2.36896C32.3278 2.36896 23.5314 6.01255 17.0457 12.4982C10.5601 18.9838 6.9165 27.7802 6.9165 36.9523V36.9523Z" stroke="#45413C" stroke-width="0.5" stroke-linecap="round" stroke-linejoin="round"/>
<path d="M68.3021 42.1398C68.3021 43.575 66.3654 44.7336 63.9792 44.7336C61.5929 44.7336 59.6562 43.575 59.6562 42.1398C59.6562 40.7046 61.5929 39.5461 63.9792 39.5461C66.3654 39.5461 68.3021 40.7046 68.3021 42.1398Z" fill="#E04122"/>
<path d="M14.6978 42.1398C14.6978 43.575 16.6344 44.7336 19.0207 44.7336C21.4069 44.7336 23.3436 43.575 23.3436 42.1398C23.3436 40.7046 21.4069 39.5461 19.0207 39.5461C16.6344 39.5461 14.6978 40.7046 14.6978 42.1398Z" fill="#E04122"/>
<path d="M25.0726 35.2231C25.0726 35.5651 24.9712 35.8994 24.7812 36.1838C24.5912 36.4682 24.3211 36.6898 24.0051 36.8207C23.6892 36.9515 23.3415 36.9858 23.0061 36.9191C22.6707 36.8523 22.3625 36.6877 22.1207 36.4458C21.8789 36.204 21.7142 35.8959 21.6475 35.5605C21.5808 35.225 21.615 34.8774 21.7459 34.5614C21.8768 34.2454 22.0984 33.9754 22.3828 33.7854C22.6671 33.5954 23.0014 33.494 23.3434 33.494C23.802 33.494 24.2418 33.6761 24.5661 34.0004C24.8904 34.3247 25.0726 34.7645 25.0726 35.2231Z" fill="#45413C" stroke="#45413C" stroke-width="0.5" stroke-linecap="round" stroke-linejoin="round"/>
<path d="M57.9268 35.2231C57.9268 35.5651 58.0282 35.8994 58.2182 36.1838C58.4082 36.4682 58.6782 36.6898 58.9942 36.8207C59.3102 36.9515 59.6578 36.9858 59.9933 36.9191C60.3287 36.8523 60.6368 36.6877 60.8786 36.4458C61.1205 36.204 61.2851 35.8959 61.3519 35.5605C61.4186 35.225 61.3843 34.8774 61.2535 34.5614C61.1226 34.2454 60.901 33.9754 60.6166 33.7854C60.3322 33.5954 59.9979 33.494 59.6559 33.494C59.1973 33.494 58.7575 33.6761 58.4332 34.0004C58.1089 34.3247 57.9268 34.7645 57.9268 35.2231Z" fill="#45413C" stroke="#45413C" stroke-width="0.5" stroke-linecap="round" stroke-linejoin="round"/>
<path d="M54.4688 31.7648C54.4688 31.7648 58.4285 24.8481 64.8437 28.3065" stroke="#45413C" stroke-width="0.5" stroke-linecap="round" stroke-linejoin="round"/>
<path d="M28.5312 31.7648C28.5312 31.7648 24.5715 24.8481 18.1562 28.3065" stroke="#45413C" stroke-width="0.5" stroke-linecap="round" stroke-linejoin="round"/>
<path d="M12.9688 46.4627H70.0312V66.3481H12.9688V46.4627Z" fill="white" stroke="#45413C" stroke-width="0.5" stroke-linecap="round" stroke-linejoin="round"/>
<path d="M23.845 55.5235L25.5742 57.4602C25.9556 56.9698 26.3842 56.5181 26.8538 56.1115C27.0463 55.9752 27.2812 55.9125 27.516 55.9347C27.7508 55.9569 27.9698 56.0626 28.1334 56.2325C28.2932 56.4409 28.3799 56.6961 28.3799 56.9587C28.3799 57.2214 28.2932 57.4766 28.1334 57.685C27.8123 58.1665 27.4414 58.6128 27.0267 59.0165L28.1679 60.296C28.2816 60.395 28.3728 60.5173 28.4352 60.6545C28.4977 60.7917 28.53 60.9407 28.53 61.0915C28.53 61.2422 28.4977 61.3912 28.4352 61.5284C28.3728 61.6656 28.2816 61.7879 28.1679 61.8869C28.0593 62.0087 27.9261 62.1062 27.7771 62.173C27.6281 62.2397 27.4666 62.2742 27.3034 62.2742C27.1401 62.2742 26.9787 62.2397 26.8297 62.173C26.6807 62.1062 26.5475 62.0087 26.4388 61.8869L25.2802 60.711C24.3169 61.6825 23.0166 62.2459 21.649 62.2846C21.14 62.3456 20.6239 62.2982 20.1346 62.1454C19.6453 61.9927 19.1938 61.738 18.81 61.3983C18.4261 61.0585 18.1185 60.6414 17.9075 60.1742C17.6964 59.7071 17.5867 59.2005 17.5854 58.6879C17.631 57.9177 17.8896 57.1752 18.3323 56.5432C18.775 55.9112 19.3844 55.4146 20.0927 55.1085C19.7634 54.8303 19.4951 54.487 19.3046 54.1002C19.1142 53.7133 19.0058 53.2913 18.9861 52.8606C18.9861 51.1315 20.7152 50.0767 22.4444 50.0767C24.1736 50.0767 25.9373 50.9585 25.9373 52.6358C25.8838 53.2618 25.6607 53.8614 25.2921 54.3702C24.9235 54.8789 24.4232 55.2777 23.845 55.5235V55.5235ZM23.845 59.0856L21.4415 56.4054C20.2484 57.1662 20.0236 57.806 20.0236 58.4285C20.0121 58.654 20.0498 58.8793 20.1342 59.0888C20.2185 59.2982 20.3474 59.4868 20.5119 59.6415C20.6764 59.7961 20.8726 59.9131 21.0869 59.9844C21.3012 60.0556 21.5284 60.0793 21.7527 60.054C22.1597 60.0625 22.5634 59.9799 22.9344 59.8124C23.3054 59.6449 23.6342 59.3966 23.8969 59.0856H23.845ZM23.6202 52.8779C23.6089 52.6184 23.5021 52.3723 23.3205 52.1866C23.1389 52.001 22.8952 51.8888 22.6361 51.8717C22.3769 51.8545 22.1205 51.9336 21.9161 52.0938C21.7116 52.2539 21.5734 52.4839 21.5279 52.7396C21.5279 53.3275 21.9775 53.7425 22.4098 54.1748C23.2744 53.7771 23.6721 53.3448 23.6721 52.8779H23.6202Z" fill="#FF6242"/>
<path d="M32.8539 59.8292V57.0625L31.6608 56.6821C31.0054 56.541 30.4201 56.175 30.0064 55.6476C29.5926 55.1201 29.3765 54.4645 29.3956 53.7944C29.4184 52.8661 29.7846 51.9793 30.4234 51.3053C31.0622 50.6314 31.9282 50.2183 32.8539 50.1458V49.6271C32.8539 49.1775 32.8539 48.8662 33.3035 48.8662C33.7531 48.8662 33.7531 48.8662 33.7531 49.6271V50.1458C34.4255 50.168 35.088 50.3146 35.707 50.5781C35.9681 50.654 36.1987 50.81 36.3663 51.0241C36.5338 51.2382 36.6298 51.4996 36.6408 51.7712C36.6525 51.9254 36.6329 52.0802 36.583 52.2265C36.5331 52.3728 36.454 52.5074 36.3505 52.6222C36.247 52.737 36.1213 52.8296 35.981 52.8944C35.8406 52.9591 35.6886 52.9947 35.5341 52.9989C35.1018 52.9989 34.2718 52.6012 33.8049 52.5494V54.7627C36.0183 55.4025 37.5572 56.0942 37.5572 58.4631C37.5772 59.2087 37.365 59.942 36.9499 60.5616C36.5347 61.1812 35.9373 61.6564 35.2402 61.9215C34.7851 62.121 34.3001 62.2437 33.8049 62.2846V62.8033C33.8049 63.2356 33.8049 63.5815 33.3554 63.5815C32.9058 63.5815 32.9058 63.5814 32.9058 62.8033V62.25C31.8452 62.27 30.7991 62.001 29.8797 61.4719C29.655 61.3452 29.4774 61.1491 29.3735 60.913C29.2696 60.6769 29.245 60.4135 29.3035 60.1622C29.3619 59.911 29.5002 59.6854 29.6976 59.5194C29.895 59.3533 30.1409 59.2557 30.3985 59.2412C30.9172 59.1894 32.2141 59.7427 32.8539 59.8292ZM32.8539 54.365V52.4802C32.6165 52.5258 32.4009 52.6491 32.2413 52.8307C32.0816 53.0122 31.9869 53.2418 31.972 53.4831C32.0066 53.9673 32.4389 54.1921 32.8539 54.365ZM33.7531 57.3392V59.76C34.061 59.6955 34.3368 59.5254 34.5325 59.2791C34.7283 59.0328 34.8318 58.7258 34.8252 58.4112C34.8597 57.9444 34.5831 57.5812 33.7877 57.3392H33.7531Z" fill="#FF6242"/>
<path d="M40.6353 62.25C40.2913 62.25 39.9614 62.1134 39.7182 61.8702C39.475 61.6269 39.3384 61.2971 39.3384 60.9531C39.3384 60.6092 39.475 60.2793 39.7182 60.0361C39.9614 59.7929 40.2913 59.6563 40.6353 59.6563C40.9792 59.6563 41.3091 59.7929 41.5523 60.0361C41.7955 60.2793 41.9321 60.6092 41.9321 60.9531C41.9277 61.2957 41.7896 61.623 41.5473 61.8652C41.3051 62.1075 40.9778 62.2455 40.6353 62.25V62.25ZM39.4421 57.564V51.166C39.4368 51.0103 39.4644 50.8551 39.5232 50.7107C39.5819 50.5664 39.6705 50.436 39.7832 50.3283C39.8958 50.2206 40.03 50.1378 40.1768 50.0855C40.3236 50.0332 40.4799 50.0125 40.6353 50.0248C40.7886 50.0177 40.9418 50.0421 41.0854 50.0965C41.229 50.1509 41.3599 50.2341 41.4701 50.341C41.5803 50.448 41.6674 50.5763 41.726 50.7182C41.7847 50.8601 41.8136 51.0125 41.8111 51.166V57.5467C41.776 57.8362 41.6362 58.1028 41.418 58.2962C41.1997 58.4896 40.9182 58.5964 40.6266 58.5964C40.335 58.5964 40.0535 58.4896 39.8353 58.2962C39.617 58.1028 39.4772 57.8362 39.4421 57.5467V57.564Z" fill="#FF6242"/>
<path d="M45.84 57.0625L46.1166 55.1777H44.6987C44.5833 55.1947 44.4655 55.1866 44.3534 55.154C44.2413 55.1214 44.1376 55.065 44.0493 54.9887C43.9609 54.9124 43.8901 54.818 43.8415 54.7118C43.7929 54.6057 43.7678 54.4904 43.7678 54.3736C43.7678 54.2569 43.7929 54.1416 43.8415 54.0354C43.8901 53.9293 43.9609 53.8349 44.0493 53.7586C44.1376 53.6823 44.2413 53.6259 44.3534 53.5933C44.4655 53.5607 44.5833 53.5526 44.6987 53.5696H46.3414L46.6873 50.924C46.6873 50.4052 46.9466 50.1285 47.5 50.1285C48.0533 50.1285 48.3127 50.6127 48.2262 51.2006L47.9323 53.6042H49.5231L49.8862 50.9412C49.8862 50.4052 50.1629 50.1458 50.7162 50.1458C51.2696 50.1458 51.5289 50.6127 51.4425 51.2179L51.1139 53.6042H52.5319C52.6473 53.5872 52.7651 53.5953 52.8772 53.6279C52.9893 53.6605 53.093 53.7169 53.1813 53.7932C53.2696 53.8695 53.3405 53.9639 53.3891 54.07C53.4377 54.1762 53.4628 54.2915 53.4628 54.4082C53.4628 54.5249 53.4377 54.6403 53.3891 54.7464C53.3405 54.8526 53.2696 54.947 53.1813 55.0233C53.093 55.0996 52.9893 55.1559 52.8772 55.1886C52.7651 55.2212 52.6473 55.2293 52.5319 55.2123H50.8891L50.6298 57.0625H52.0477C52.2586 57.0625 52.461 57.1463 52.6101 57.2955C52.7593 57.4446 52.8431 57.647 52.8431 57.8579C52.8431 58.0689 52.7593 58.2712 52.6101 58.4204C52.461 58.5695 52.2586 58.6533 52.0477 58.6533H50.3185L49.9554 61.3162C49.9554 61.8523 49.6787 62.1117 49.1254 62.1117C48.5721 62.1117 48.33 61.6621 48.3991 61.0569L48.7277 58.6533H47.206L46.8429 61.3162C46.8429 61.8523 46.5662 62.1117 46.0129 62.1117C45.4596 62.1117 45.2175 61.6275 45.2866 61.0569L45.6152 58.6533H44.1973C43.9863 58.6533 43.784 58.5695 43.6348 58.4204C43.4857 58.2712 43.4019 58.0689 43.4019 57.8579C43.4019 57.647 43.4857 57.4446 43.6348 57.2955C43.784 57.1463 43.9863 57.0625 44.1973 57.0625H45.84ZM47.7248 55.1777L47.4654 57.0625H49.0216L49.2983 55.1777H47.7248Z" fill="#FF6242"/>
<path d="M56.4053 55.3333C55.8707 55.3575 55.3411 55.2211 54.8847 54.9417C54.4283 54.6622 54.066 54.2526 53.8445 53.7654C53.6229 53.2783 53.5523 52.736 53.6416 52.2084C53.731 51.6808 53.9762 51.192 54.3458 50.8049C54.7153 50.4179 55.1923 50.1504 55.7152 50.0367C56.2381 49.9231 56.7831 49.9687 57.2799 50.1675C57.7768 50.3663 58.2027 50.7093 58.5029 51.1523C58.8031 51.5953 58.9639 52.118 58.9644 52.6531C58.976 52.9981 58.9185 53.3418 58.7955 53.6643C58.6725 53.9867 58.4864 54.2814 58.248 54.531C58.0097 54.7806 57.724 54.9801 57.4075 55.1179C57.0911 55.2557 56.7503 55.3289 56.4053 55.3333V55.3333ZM56.4053 53.6042C56.5289 53.6026 56.6508 53.5751 56.7631 53.5233C56.8754 53.4716 56.9755 53.3968 57.0571 53.3039C57.1386 53.211 57.1997 53.1019 57.2363 52.9838C57.273 52.8658 57.2844 52.7413 57.2698 52.6185C57.2817 52.4963 57.2684 52.3728 57.2308 52.2559C57.1931 52.139 57.1319 52.031 57.0508 51.9386C56.9698 51.8463 56.8707 51.7715 56.7597 51.7189C56.6487 51.6663 56.528 51.6371 56.4053 51.6329C56.2816 51.6345 56.1597 51.662 56.0474 51.7137C55.9351 51.7655 55.835 51.8402 55.7535 51.9332C55.6719 52.0261 55.6109 52.1352 55.5742 52.2532C55.5375 52.3713 55.5261 52.4958 55.5407 52.6185C55.5121 52.7477 55.513 52.8816 55.5433 53.0103C55.5735 53.1391 55.6323 53.2594 55.7153 53.3624C55.7983 53.4653 55.9035 53.5483 56.0229 53.6051C56.1423 53.6619 56.273 53.6911 56.4053 53.6906V53.6042ZM55.8173 60.711L61.2988 50.336C61.3404 50.2184 61.4086 50.1119 61.498 50.0249C61.5875 49.9378 61.6957 49.8725 61.8145 49.8341C61.9332 49.7956 62.0592 49.785 62.1826 49.8031C62.3061 49.8212 62.4238 49.8674 62.5265 49.9383C62.6406 49.9943 62.7418 50.0735 62.8237 50.1707C62.9056 50.2679 62.9663 50.3811 63.0021 50.5031C63.0379 50.625 63.0479 50.7531 63.0315 50.8791C63.0151 51.0052 62.9727 51.1264 62.9069 51.2352L57.339 61.6102C56.9759 62.129 56.5609 62.4229 55.9557 61.8696C55.8265 61.726 55.7441 61.5466 55.7194 61.3551C55.6947 61.1636 55.7288 60.9691 55.8173 60.7975V60.711ZM62.2498 62.25C61.7147 62.2777 61.1836 62.1443 60.725 61.8671C60.2664 61.5899 59.9015 61.1816 59.6773 60.6949C59.453 60.2083 59.3798 59.6656 59.4671 59.1369C59.5543 58.6082 59.7981 58.1178 60.1668 57.729C60.5355 57.3402 61.0123 57.0709 61.5356 56.9557C62.059 56.8406 62.6048 56.885 63.1026 57.0831C63.6005 57.2813 64.0275 57.6241 64.3286 58.0674C64.6297 58.5106 64.791 59.034 64.7917 59.5698C64.8032 59.9133 64.7464 60.2557 64.6244 60.577C64.5025 60.8983 64.3179 61.1922 64.0814 61.4416C63.8449 61.691 63.5612 61.8908 63.2468 62.0296C62.9323 62.1684 62.5935 62.2433 62.2498 62.25ZM62.2498 60.5208C62.4481 60.5454 62.6492 60.5091 62.8263 60.4167C63.0035 60.3244 63.1485 60.1804 63.2419 60.0038C63.3354 59.8273 63.373 59.6264 63.3498 59.428C63.3265 59.2296 63.2436 59.0429 63.1118 58.8927C62.9801 58.7425 62.8058 58.6359 62.6121 58.587C62.4183 58.5381 62.2143 58.5492 62.0271 58.6189C61.8399 58.6886 61.6782 58.8135 61.5636 58.9772C61.449 59.1408 61.3868 59.3354 61.3853 59.5352C61.3707 59.658 61.3821 59.7824 61.4188 59.9005C61.4554 60.0186 61.5165 60.1276 61.598 60.2206C61.6796 60.3135 61.7797 60.3883 61.892 60.44C62.0043 60.4917 62.1262 60.5193 62.2498 60.5208V60.5208Z" fill="#FF6242"/>
</svg>
