<svg width="83" height="83" viewBox="0 0 83 83" fill="none" xmlns="http://www.w3.org/2000/svg">
<path d="M6.9165 37.1771C6.9165 46.3492 10.5601 55.1456 17.0457 61.6312C23.5314 68.1168 32.3278 71.7604 41.4998 71.7604C50.6719 71.7604 59.4683 68.1168 65.9539 61.6312C72.4396 55.1456 76.0832 46.3492 76.0832 37.1771C76.0832 28.005 72.4396 19.2086 65.9539 12.723C59.4683 6.23734 50.6719 2.59375 41.4998 2.59375C32.3278 2.59375 23.5314 6.23734 17.0457 12.723C10.5601 19.2086 6.9165 28.005 6.9165 37.1771V37.1771Z" fill="#FFE500"/>
<path d="M41.4999 2.59375C34.6599 2.59375 27.9736 4.62203 22.2864 8.42209C16.5992 12.2222 12.1665 17.6233 9.54902 23.9426C6.93149 30.2619 6.24662 37.2154 7.58103 43.924C8.91543 50.6325 12.2092 56.7946 17.0457 61.6312C21.8823 66.4678 28.0445 69.7615 34.753 71.0959C41.4615 72.4303 48.415 71.7454 54.7343 69.1279C61.0536 66.5104 66.4548 62.0778 70.2548 56.3906C74.0549 50.7034 76.0832 44.017 76.0832 37.1771C76.0832 28.005 72.4396 19.2086 65.954 12.723C59.4683 6.23734 50.6719 2.59375 41.4999 2.59375V2.59375ZM41.4999 66.5729C35.2584 66.5729 29.1571 64.7221 23.9676 61.2546C18.778 57.787 14.7332 52.8584 12.3447 47.0921C9.95622 41.3257 9.33128 34.9806 10.5489 28.8591C11.7666 22.7376 14.7721 17.1146 19.1855 12.7012C23.5988 8.28788 29.2218 5.28234 35.3433 4.0647C41.4648 2.84705 47.81 3.47199 53.5763 5.86049C59.3426 8.24899 64.2712 12.2938 67.7388 17.4833C71.2063 22.6729 73.0571 28.7742 73.0571 35.0156C73.0571 43.3851 69.7324 51.4119 63.8142 57.33C57.8961 63.2481 49.8694 66.5729 41.4999 66.5729V66.5729Z" fill="#EBCB00"/>
<path d="M31.125 9.51041C31.125 10.1983 32.2181 10.8581 34.1638 11.3445C36.1095 11.8309 38.7484 12.1042 41.5 12.1042C44.2516 12.1042 46.8905 11.8309 48.8362 11.3445C50.7819 10.8581 51.875 10.1983 51.875 9.51041C51.875 8.82251 50.7819 8.16278 48.8362 7.67636C46.8905 7.18993 44.2516 6.91666 41.5 6.91666C38.7484 6.91666 36.1095 7.18993 34.1638 7.67636C32.2181 8.16278 31.125 8.82251 31.125 9.51041Z" fill="#FFF48C"/>
<path opacity="0.15" d="M13.833 78.6771C13.833 79.365 16.7479 80.0247 21.9364 80.5111C27.1249 80.9976 34.162 81.2708 41.4997 81.2708C48.8373 81.2708 55.8745 80.9976 61.063 80.5111C66.2515 80.0247 69.1663 79.365 69.1663 78.6771C69.1663 77.9892 66.2515 77.3294 61.063 76.843C55.8745 76.3566 48.8373 76.0833 41.4997 76.0833C34.162 76.0833 27.1249 76.3566 21.9364 76.843C16.7479 77.3294 13.833 77.9892 13.833 78.6771V78.6771Z" fill="#45413C"/>
<path d="M6.9165 37.1771C6.9165 46.3492 10.5601 55.1456 17.0457 61.6312C23.5314 68.1168 32.3278 71.7604 41.4998 71.7604C50.6719 71.7604 59.4683 68.1168 65.9539 61.6312C72.4396 55.1456 76.0832 46.3492 76.0832 37.1771C76.0832 28.005 72.4396 19.2086 65.9539 12.723C59.4683 6.23734 50.6719 2.59375 41.4998 2.59375C32.3278 2.59375 23.5314 6.23734 17.0457 12.723C10.5601 19.2086 6.9165 28.005 6.9165 37.1771V37.1771Z" stroke="#45413C" stroke-width="0.5" stroke-linecap="round" stroke-linejoin="round"/>
<path d="M66.5726 45.8229C66.5726 47.2581 64.6359 48.4167 62.2497 48.4167C59.8634 48.4167 57.9268 47.2581 57.9268 45.8229C57.9268 44.3877 59.8634 43.2292 62.2497 43.2292C64.6359 43.2292 66.5726 44.3877 66.5726 45.8229Z" fill="#FFAA54"/>
<path d="M16.4268 45.8229C16.4268 46.5108 16.8822 47.1705 17.6929 47.657C18.5036 48.1434 19.6032 48.4167 20.7497 48.4167C21.8962 48.4167 22.9957 48.1434 23.8064 47.657C24.6171 47.1705 25.0726 46.5108 25.0726 45.8229C25.0726 45.135 24.6171 44.4753 23.8064 43.9888C22.9957 43.5024 21.8962 43.2292 20.7497 43.2292C19.6032 43.2292 18.5036 43.5024 17.6929 43.9888C16.8822 44.4753 16.4268 45.135 16.4268 45.8229V45.8229Z" fill="#FFAA54"/>
<path d="M32.854 54.4687C32.854 58.1376 33.7649 61.6561 35.3863 64.2504C37.0077 66.8446 39.2068 68.3021 41.4998 68.3021C43.7929 68.3021 45.992 66.8446 47.6134 64.2504C49.2348 61.6561 50.1457 58.1376 50.1457 54.4687C50.1457 50.7999 49.2348 47.2813 47.6134 44.6871C45.992 42.0928 43.7929 40.6354 41.4998 40.6354C39.2068 40.6354 37.0077 42.0928 35.3863 44.6871C33.7649 47.2813 32.854 50.7999 32.854 54.4687V54.4687Z" fill="#FFB0CA" stroke="#45413C" stroke-width="0.5" stroke-linecap="round" stroke-linejoin="round"/>
<path d="M64.688 28.6004C67.351 32.8888 66.9705 37.9206 63.858 39.8573C60.7455 41.794 56.0768 39.8573 53.483 35.5863C50.8893 31.3152 51.2005 26.2833 54.313 24.3467C57.4255 22.41 62.0424 24.3121 64.688 28.6004Z" fill="white" stroke="#45413C" stroke-width="0.5" stroke-linecap="round" stroke-linejoin="round"/>
<path d="M18.3116 28.6004C15.6487 32.8888 16.0291 37.9206 19.1416 39.8573C22.2541 41.794 26.9229 39.8573 29.5166 35.5863C32.1104 31.3152 31.7991 26.2833 28.6866 24.3467C25.5741 22.41 20.9573 24.3121 18.3116 28.6004Z" fill="white" stroke="#45413C" stroke-width="0.5" stroke-linecap="round" stroke-linejoin="round"/>
<path d="M25.5223 78.0719C25.4598 78.4842 25.2504 78.86 24.9326 79.1301C24.6148 79.4002 24.2102 79.5464 23.7932 79.5417H13.8332C13.5647 79.5417 13.3 79.4792 13.0599 79.3591C12.8198 79.2391 12.6109 79.0648 12.4498 78.85C12.2888 78.6352 12.1799 78.3859 12.1319 78.1218C12.0839 77.8577 12.098 77.586 12.1732 77.3283C14.4557 69.3223 11.6025 56.5783 6.98567 48.6242C4.39192 44.0938 9.97713 44.1975 12.1732 45.4771C27.6665 55.9731 26.3005 73.0054 25.5223 78.0719Z" fill="#FFE500" stroke="#45413C" stroke-width="0.5" stroke-linecap="round" stroke-linejoin="round"/>
<path d="M57.4774 78.0719C57.54 78.4842 57.7494 78.86 58.0672 79.1301C58.3849 79.4002 58.7896 79.5464 59.2066 79.5417H69.1666C69.435 79.5417 69.6998 79.4792 69.9399 79.3591C70.18 79.2391 70.3889 79.0648 70.5499 78.85C70.711 78.6352 70.8199 78.3859 70.8679 78.1218C70.9159 77.8577 70.9018 77.586 70.8266 77.3283C68.5441 69.3223 71.3972 56.5783 76.0141 48.6242C78.6078 44.0938 73.0226 44.1975 70.8266 45.4771C55.3333 55.9731 56.6993 73.0054 57.4774 78.0719Z" fill="#FFE500" stroke="#45413C" stroke-width="0.5" stroke-linecap="round" stroke-linejoin="round"/>
<path d="M41.4996 68.3021C44.5948 68.3021 47.2923 65.7083 48.8313 61.8177C47.2923 57.9271 44.5948 55.3333 41.4996 55.3333C38.4044 55.3333 35.7069 57.9271 34.168 61.8177C35.7069 65.7083 38.4044 68.3021 41.4996 68.3021Z" fill="#FF866E" stroke="#45413C" stroke-width="0.5" stroke-linecap="round" stroke-linejoin="round"/>
</svg>
