<svg width="24" height="24" viewBox="0 0 24 24" fill="none" xmlns="http://www.w3.org/2000/svg">
<path d="M2 10.75C2 13.4022 3.05357 15.9457 4.92893 17.8211C6.8043 19.6964 9.34784 20.75 12 20.75C14.6522 20.75 17.1957 19.6964 19.0711 17.8211C20.9464 15.9457 22 13.4022 22 10.75C22 8.09784 20.9464 5.5543 19.0711 3.67893C17.1957 1.80357 14.6522 0.75 12 0.75C9.34784 0.75 6.8043 1.80357 4.92893 3.67893C3.05357 5.5543 2 8.09784 2 10.75V10.75Z" fill="#FFE500"/>
<path d="M12 0.75C10.0222 0.75 8.08879 1.33649 6.44429 2.4353C4.7998 3.53412 3.51808 5.0959 2.7612 6.92317C2.00433 8.75043 1.80629 10.7611 2.19214 12.7009C2.578 14.6407 3.5304 16.4225 4.92893 17.8211C6.32745 19.2196 8.10928 20.172 10.0491 20.5579C11.9889 20.9437 13.9996 20.7457 15.8268 19.9888C17.6541 19.2319 19.2159 17.9502 20.3147 16.3057C21.4135 14.6612 22 12.7278 22 10.75C22 8.09784 20.9464 5.5543 19.0711 3.67893C17.1957 1.80357 14.6522 0.75 12 0.75V0.75ZM12 19.25C10.1952 19.25 8.43102 18.7148 6.93042 17.7122C5.42982 16.7095 4.26025 15.2844 3.5696 13.617C2.87895 11.9496 2.69824 10.1149 3.05033 8.3448C3.40242 6.57472 4.27149 4.9488 5.54765 3.67265C6.8238 2.3965 8.44972 1.52742 10.2198 1.17533C11.9899 0.823244 13.8246 1.00395 15.492 1.6946C17.1594 2.38525 18.5845 3.55482 19.5872 5.05542C20.5898 6.55602 21.125 8.32025 21.125 10.125C21.125 12.5451 20.1636 14.8661 18.4523 16.5773C16.7411 18.2886 14.4201 19.25 12 19.25V19.25Z" fill="#EBCB00"/>
<path d="M9 2.75C9 2.94891 9.31607 3.13968 9.87868 3.28033C10.4413 3.42098 11.2044 3.5 12 3.5C12.7956 3.5 13.5587 3.42098 14.1213 3.28033C14.6839 3.13968 15 2.94891 15 2.75C15 2.55109 14.6839 2.36032 14.1213 2.21967C13.5587 2.07902 12.7956 2 12 2C11.2044 2 10.4413 2.07902 9.87868 2.21967C9.31607 2.36032 9 2.55109 9 2.75Z" fill="#FFF48C"/>
<path d="M2 10.75C2 13.4022 3.05357 15.9457 4.92893 17.8211C6.8043 19.6964 9.34784 20.75 12 20.75C14.6522 20.75 17.1957 19.6964 19.0711 17.8211C20.9464 15.9457 22 13.4022 22 10.75C22 8.09784 20.9464 5.5543 19.0711 3.67893C17.1957 1.80357 14.6522 0.75 12 0.75C9.34784 0.75 6.8043 1.80357 4.92893 3.67893C3.05357 5.5543 2 8.09784 2 10.75V10.75Z" stroke="#45413C" stroke-width="0.2" stroke-linecap="round" stroke-linejoin="round"/>
<path opacity="0.15" d="M4 22.75C4 22.9489 4.84285 23.1397 6.34315 23.2803C7.84344 23.421 9.87827 23.5 12 23.5C14.1217 23.5 16.1566 23.421 17.6569 23.2803C19.1571 23.1397 20 22.9489 20 22.75C20 22.5511 19.1571 22.3603 17.6569 22.2197C16.1566 22.079 14.1217 22 12 22C9.87827 22 7.84344 22.079 6.34315 22.2197C4.84285 22.3603 4 22.5511 4 22.75V22.75Z" fill="#45413C"/>
<path d="M20 13.25C20 13.665 19.44 14 18.75 14C18.06 14 17.5 13.665 17.5 13.25C17.5 12.835 18.06 12.5 18.75 12.5C19.44 12.5 20 12.835 20 13.25Z" fill="#FFAA54"/>
<path d="M4 13.25C4 13.665 4.56 14 5.25 14C5.94 14 6.5 13.665 6.5 13.25C6.5 12.835 5.94 12.5 5.25 12.5C4.56 12.5 4 12.835 4 13.25Z" fill="#FFAA54"/>
<path d="M8.235 13.965C8.485 17.965 10.78 19.465 11.66 19.965C11.7635 20.0242 11.8807 20.0554 12 20.0554C12.1193 20.0554 12.2365 20.0242 12.34 19.965C13.22 19.465 15.515 18.005 15.765 13.965C15.7705 13.8713 15.7567 13.7775 15.7244 13.6894C15.6921 13.6013 15.6421 13.5207 15.5774 13.4527C15.5127 13.3848 15.4347 13.3308 15.3483 13.2942C15.2619 13.2576 15.1688 13.2392 15.075 13.24H8.925C8.83115 13.2392 8.73814 13.2576 8.65172 13.2942C8.5653 13.3308 8.48733 13.3848 8.42263 13.4527C8.35793 13.5207 8.30789 13.6013 8.27561 13.6894C8.24334 13.7775 8.22951 13.8713 8.235 13.965V13.965Z" fill="#FFB0CA" stroke="#45413C" stroke-width="0.2" stroke-linecap="round" stroke-linejoin="round"/>
<path d="M12 16.5C12 15.75 14.25 15.97 14.25 16.75V20C14.25 20.5967 14.0129 21.169 13.591 21.591C13.169 22.013 12.5967 22.25 12 22.25C11.4033 22.25 10.831 22.013 10.409 21.591C9.98705 21.169 9.75 20.5967 9.75 20V16.75C9.75 15.97 12 15.75 12 16.5Z" fill="#FF6242"/>
<path d="M12 16.5C12 15.75 9.75 15.97 9.75 16.75V17.75C9.75 16.97 14.25 16.97 14.25 17.75V16.75C14.25 15.97 12 15.75 12 16.5Z" fill="#FF866E"/>
<path d="M12 16.5C12 15.75 14.25 15.97 14.25 16.75V20C14.25 20.5967 14.0129 21.169 13.591 21.591C13.169 22.013 12.5967 22.25 12 22.25C11.4033 22.25 10.831 22.013 10.409 21.591C9.98705 21.169 9.75 20.5967 9.75 20V16.75C9.75 15.97 12 15.75 12 16.5Z" stroke="#45413C" stroke-width="0.2" stroke-linecap="round" stroke-linejoin="round"/>
<path d="M17.5 10.5C17.5 10.5989 17.5293 10.6956 17.5843 10.7778C17.6392 10.86 17.7173 10.9241 17.8087 10.9619C17.9 10.9998 18.0006 11.0097 18.0975 10.9904C18.1945 10.9711 18.2836 10.9235 18.3536 10.8536C18.4235 10.7836 18.4711 10.6945 18.4904 10.5975C18.5097 10.5006 18.4998 10.4 18.4619 10.3087C18.4241 10.2173 18.36 10.1392 18.2778 10.0843C18.1956 10.0293 18.0989 10 18 10C17.8674 10 17.7402 10.0527 17.6464 10.1464C17.5527 10.2402 17.5 10.3674 17.5 10.5Z" fill="#45413C" stroke="#45413C" stroke-width="0.2" stroke-linecap="round" stroke-linejoin="round"/>
<path d="M6.5 10.5C6.5 10.5989 6.47068 10.6956 6.41574 10.7778C6.36079 10.86 6.28271 10.9241 6.19134 10.9619C6.09998 10.9998 5.99945 11.0097 5.90246 10.9904C5.80546 10.9711 5.71637 10.9235 5.64645 10.8536C5.57652 10.7836 5.5289 10.6945 5.50961 10.5975C5.49031 10.5006 5.50022 10.4 5.53806 10.3087C5.5759 10.2173 5.63999 10.1392 5.72221 10.0843C5.80444 10.0293 5.90111 10 6 10C6.13261 10 6.25979 10.0527 6.35355 10.1464C6.44732 10.2402 6.5 10.3674 6.5 10.5Z" fill="#45413C" stroke="#45413C" stroke-width="0.2" stroke-linecap="round" stroke-linejoin="round"/>
</svg>
