<svg width="83" height="83" viewBox="0 0 83 83" fill="none" xmlns="http://www.w3.org/2000/svg">
<path d="M6.9165 37.1771C6.9165 46.3492 10.5601 55.1456 17.0457 61.6312C23.5314 68.1168 32.3278 71.7604 41.4998 71.7604C50.6719 71.7604 59.4683 68.1168 65.9539 61.6312C72.4396 55.1456 76.0832 46.3492 76.0832 37.1771C76.0832 28.005 72.4396 19.2086 65.9539 12.723C59.4683 6.23734 50.6719 2.59375 41.4998 2.59375C32.3278 2.59375 23.5314 6.23734 17.0457 12.723C10.5601 19.2086 6.9165 28.005 6.9165 37.1771V37.1771Z" fill="#FFE500"/>
<path d="M41.4999 2.59375C34.6599 2.59375 27.9736 4.62203 22.2864 8.42209C16.5992 12.2222 12.1665 17.6233 9.54902 23.9426C6.93149 30.2619 6.24662 37.2154 7.58103 43.924C8.91543 50.6325 12.2092 56.7946 17.0457 61.6312C21.8823 66.4678 28.0445 69.7615 34.753 71.0959C41.4615 72.4303 48.415 71.7454 54.7343 69.1279C61.0536 66.5104 66.4548 62.0778 70.2548 56.3906C74.0549 50.7034 76.0832 44.017 76.0832 37.1771C76.0832 28.005 72.4396 19.2086 65.954 12.723C59.4683 6.23734 50.6719 2.59375 41.4999 2.59375V2.59375ZM41.4999 66.5729C35.2584 66.5729 29.1571 64.7221 23.9676 61.2546C18.778 57.787 14.7332 52.8584 12.3447 47.0921C9.95622 41.3257 9.33128 34.9806 10.5489 28.8591C11.7666 22.7376 14.7721 17.1146 19.1855 12.7012C23.5988 8.28788 29.2218 5.28234 35.3433 4.0647C41.4648 2.84705 47.81 3.47199 53.5763 5.86049C59.3426 8.24899 64.2712 12.2938 67.7388 17.4833C71.2063 22.6729 73.0571 28.7742 73.0571 35.0156C73.0571 43.3851 69.7324 51.4119 63.8142 57.33C57.8961 63.2481 49.8694 66.5729 41.4999 66.5729V66.5729Z" fill="#EBCB00"/>
<path d="M31.125 9.51041C31.125 10.1983 32.2181 10.858 34.1638 11.3445C36.1095 11.8309 38.7484 12.1042 41.5 12.1042C44.2516 12.1042 46.8905 11.8309 48.8362 11.3445C50.7819 10.858 51.875 10.1983 51.875 9.51041C51.875 8.8225 50.7819 8.16277 48.8362 7.67635C46.8905 7.18993 44.2516 6.91666 41.5 6.91666C38.7484 6.91666 36.1095 7.18993 34.1638 7.67635C32.2181 8.16277 31.125 8.8225 31.125 9.51041Z" fill="#FFF48C"/>
<path opacity="0.15" d="M13.833 78.6771C13.833 79.365 16.7479 80.0247 21.9364 80.5111C27.1249 80.9975 34.162 81.2708 41.4997 81.2708C48.8373 81.2708 55.8745 80.9975 61.063 80.5111C66.2515 80.0247 69.1663 79.365 69.1663 78.6771C69.1663 77.9892 66.2515 77.3294 61.063 76.843C55.8745 76.3566 48.8373 76.0833 41.4997 76.0833C34.162 76.0833 27.1249 76.3566 21.9364 76.843C16.7479 77.3294 13.833 77.9892 13.833 78.6771V78.6771Z" fill="#45413C"/>
<path d="M6.9165 37.1771C6.9165 46.3492 10.5601 55.1456 17.0457 61.6312C23.5314 68.1168 32.3278 71.7604 41.4998 71.7604C50.6719 71.7604 59.4683 68.1168 65.9539 61.6312C72.4396 55.1456 76.0832 46.3492 76.0832 37.1771C76.0832 28.005 72.4396 19.2086 65.9539 12.723C59.4683 6.23734 50.6719 2.59375 41.4998 2.59375C32.3278 2.59375 23.5314 6.23734 17.0457 12.723C10.5601 19.2086 6.9165 28.005 6.9165 37.1771V37.1771Z" stroke="#45413C" stroke-width="0.5" stroke-linecap="round" stroke-linejoin="round"/>
<path d="M31.9894 34.5833C31.9894 35.7803 31.6345 36.9504 30.9695 37.9457C30.3045 38.941 29.3592 39.7167 28.2534 40.1747C27.1475 40.6328 25.9306 40.7526 24.7566 40.5191C23.5826 40.2856 22.5043 39.7092 21.6579 38.8628C20.8115 38.0164 20.2351 36.938 20.0015 35.764C19.768 34.59 19.8879 33.3732 20.3459 32.2673C20.804 31.1614 21.5797 30.2162 22.575 29.5512C23.5702 28.8862 24.7404 28.5312 25.9373 28.5312C27.5425 28.5312 29.0818 29.1689 30.2168 30.3039C31.3518 31.4388 31.9894 32.9782 31.9894 34.5833V34.5833Z" fill="white" stroke="#45413C" stroke-width="0.5" stroke-linecap="round" stroke-linejoin="round"/>
<path d="M63.1144 34.5833C63.1144 35.7803 62.7595 36.9504 62.0945 37.9457C61.4295 38.941 60.4842 39.7167 59.3784 40.1747C58.2725 40.6328 57.0556 40.7526 55.8816 40.5191C54.7076 40.2856 53.6293 39.7092 52.7829 38.8628C51.9365 38.0164 51.3601 36.938 51.1265 35.764C50.893 34.59 51.0129 33.3732 51.4709 32.2673C51.929 31.1614 52.7047 30.2162 53.7 29.5512C54.6952 28.8862 55.8654 28.5312 57.0623 28.5312C58.6675 28.5312 60.2068 29.1689 61.3418 30.3039C62.4768 31.4388 63.1144 32.9782 63.1144 34.5833V34.5833Z" fill="white" stroke="#45413C" stroke-width="0.5" stroke-linecap="round" stroke-linejoin="round"/>
<path d="M17.2915 45.8229C17.2915 47.2581 19.2282 48.4167 21.6144 48.4167C24.0007 48.4167 25.9373 47.2581 25.9373 45.8229C25.9373 44.3877 24.0007 43.2292 21.6144 43.2292C19.2282 43.2292 17.2915 44.3877 17.2915 45.8229Z" fill="#FFAA54"/>
<path d="M65.7083 45.8229C65.7083 47.2581 63.7717 48.4167 61.3854 48.4167C58.9992 48.4167 57.0625 47.2581 57.0625 45.8229C57.0625 44.3877 58.9992 43.2292 61.3854 43.2292C63.7717 43.2292 65.7083 44.3877 65.7083 45.8229Z" fill="#FFAA54"/>
<path d="M24.208 31.9896C24.208 32.4482 24.3902 32.888 24.7145 33.2123C25.0388 33.5366 25.4786 33.7187 25.9372 33.7187C26.3958 33.7187 26.8356 33.5366 27.1599 33.2123C27.4842 32.888 27.6663 32.4482 27.6663 31.9896C27.6663 31.531 27.4842 31.0911 27.1599 30.7669C26.8356 30.4426 26.3958 30.2604 25.9372 30.2604C25.4786 30.2604 25.0388 30.4426 24.7145 30.7669C24.3902 31.0911 24.208 31.531 24.208 31.9896Z" fill="#45413C" stroke="#45413C" stroke-width="0.5" stroke-linecap="round" stroke-linejoin="round"/>
<path d="M55.333 31.9896C55.333 32.4482 55.5152 32.888 55.8395 33.2123C56.1637 33.5366 56.6036 33.7187 57.0622 33.7187C57.5208 33.7187 57.9606 33.5366 58.2849 33.2123C58.6092 32.888 58.7913 32.4482 58.7913 31.9896C58.7913 31.531 58.6092 31.0911 58.2849 30.7669C57.9606 30.4426 57.5208 30.2604 57.0622 30.2604C56.6036 30.2604 56.1637 30.4426 55.8395 30.7669C55.5152 31.0911 55.333 31.531 55.333 31.9896V31.9896Z" fill="#45413C" stroke="#45413C" stroke-width="0.5" stroke-linecap="round" stroke-linejoin="round"/>
<path d="M36.3125 55.3333H46.6875" stroke="#45413C" stroke-width="0.5" stroke-linecap="round" stroke-linejoin="round"/>
</svg>
