<svg width="85" height="84" viewBox="0 0 85 84" fill="none" xmlns="http://www.w3.org/2000/svg">
<path d="M2.86328 37.4835C2.86328 42.2746 3.90991 47.0188 5.94341 51.4452C7.97691 55.8716 10.9575 59.8935 14.7149 63.2813C18.4723 66.6691 22.933 69.3564 27.8423 71.1899C32.7516 73.0234 38.0134 73.967 43.3272 73.967C48.641 73.967 53.9027 73.0234 58.812 71.1899C63.7213 69.3564 68.1821 66.6691 71.9395 63.2813C75.6969 59.8935 78.6774 55.8716 80.7109 51.4452C82.7444 47.0188 83.7911 42.2746 83.7911 37.4835C83.7911 32.6924 82.7444 27.9483 80.7109 23.5219C78.6774 19.0955 75.6969 15.0736 71.9395 11.6858C68.1821 8.29797 63.7213 5.61061 58.812 3.77714C53.9027 1.94367 48.641 1 43.3272 1C38.0134 1 32.7516 1.94367 27.8423 3.77714C22.933 5.61061 18.4723 8.29797 14.7149 11.6858C10.9575 15.0736 7.97691 19.0955 5.94341 23.5219C3.90991 27.9483 2.86328 32.6924 2.86328 37.4835V37.4835Z" fill="#FFE500"/>
<path d="M31.188 8.29672C31.188 9.02242 32.4669 9.7184 34.7435 10.2316C37.02 10.7447 40.1076 11.033 43.3272 11.033C46.5467 11.033 49.6343 10.7447 51.9108 10.2316C54.1874 9.7184 55.4663 9.02242 55.4663 8.29672C55.4663 7.57102 54.1874 6.87504 51.9108 6.36189C49.6343 5.84874 46.5467 5.56046 43.3272 5.56046C40.1076 5.56046 37.02 5.84874 34.7435 6.36189C32.4669 6.87504 31.188 7.57102 31.188 8.29672V8.29672Z" fill="#FFF48C"/>
<path d="M43.3272 1C35.3242 1 27.5009 3.13972 20.8467 7.14858C14.1924 11.1574 9.00605 16.8554 5.94343 23.5219C2.88081 30.1884 2.07949 37.524 3.6408 44.6011C5.20211 51.6782 9.05592 58.179 14.7149 63.2813C20.3739 68.3836 27.5839 71.8583 35.4331 73.266C43.2823 74.6738 51.4182 73.9513 58.8121 71.1899C66.2059 68.4286 72.5255 63.7524 76.9717 57.7527C81.4179 51.753 83.7911 44.6993 83.7911 37.4835C83.7911 27.8075 79.5279 18.5278 71.9395 11.6858C64.351 4.84379 54.0589 1 43.3272 1V1ZM43.3272 68.4945C36.0245 68.4945 28.8857 66.542 22.8137 62.8839C16.7417 59.2258 12.0091 54.0265 9.21451 47.9433C6.41987 41.8601 5.68867 35.1664 7.11336 28.7085C8.53805 22.2506 12.0547 16.3187 17.2185 11.6629C22.3823 7.007 28.9614 3.83632 36.1238 2.55177C43.2862 1.26722 50.7103 1.9265 57.4571 4.44623C64.204 6.96596 69.9706 11.233 74.0278 16.7077C78.085 22.1824 80.2505 28.6189 80.2505 35.2033C80.2505 44.0327 76.3604 52.5004 69.4359 58.7437C62.5114 64.9871 53.1199 68.4945 43.3272 68.4945V68.4945Z" fill="#EBCB00"/>
<path opacity="0.15" d="M10.9565 81.2637C10.9565 81.9894 14.3671 82.6854 20.4378 83.1986C26.5086 83.7117 34.7423 84 43.3277 84C51.913 84 60.1467 83.7117 66.2175 83.1986C72.2883 82.6854 75.6988 81.9894 75.6988 81.2637C75.6988 80.538 72.2883 79.842 66.2175 79.3289C60.1467 78.8157 51.913 78.5275 43.3277 78.5275C34.7423 78.5275 26.5086 78.8157 20.4378 79.3289C14.3671 79.842 10.9565 80.538 10.9565 81.2637V81.2637Z" fill="#45413C"/>
<path d="M2.86328 37.4835C2.86328 42.2746 3.90991 47.0188 5.94341 51.4452C7.97691 55.8716 10.9575 59.8935 14.7149 63.2813C18.4723 66.6691 22.933 69.3564 27.8423 71.1899C32.7516 73.0234 38.0134 73.967 43.3272 73.967C48.641 73.967 53.9027 73.0234 58.812 71.1899C63.7213 69.3564 68.1821 66.6691 71.9395 63.2813C75.6969 59.8935 78.6774 55.8716 80.7109 51.4452C82.7444 47.0188 83.7911 42.2746 83.7911 37.4835C83.7911 32.6924 82.7444 27.9483 80.7109 23.5219C78.6774 19.0955 75.6969 15.0736 71.9395 11.6858C68.1821 8.29797 63.7213 5.61061 58.812 3.77714C53.9027 1.94367 48.641 1 43.3272 1C38.0134 1 32.7516 1.94367 27.8423 3.77714C22.933 5.61061 18.4723 8.29797 14.7149 11.6858C10.9575 15.0736 7.97691 19.0955 5.94341 23.5219C3.90991 27.9483 2.86328 32.6924 2.86328 37.4835V37.4835Z" stroke="#45413C" stroke-width="0.5" stroke-linecap="round" stroke-linejoin="round"/>
<path d="M72.6438 46.6044C72.6438 48.1185 70.3778 49.3407 67.5858 49.3407C64.7938 49.3407 62.5278 48.1185 62.5278 46.6044C62.5278 45.0904 64.7938 43.8682 67.5858 43.8682C70.3778 43.8682 72.6438 45.0904 72.6438 46.6044Z" fill="#FFAA54"/>
<path d="M13.9712 46.6044C13.9712 48.1185 16.2372 49.3407 19.0292 49.3407C21.8212 49.3407 24.0872 48.1185 24.0872 46.6044C24.0872 45.0904 21.8212 43.8682 19.0292 43.8682C16.2372 43.8682 13.9712 45.0904 13.9712 46.6044Z" fill="#FFAA54"/>
<path d="M24.0869 37.4835C24.0869 37.8443 23.9683 38.197 23.7459 38.497C23.5236 38.797 23.2077 39.0308 22.838 39.1689C22.4683 39.3069 22.0615 39.3431 21.669 39.2727C21.2766 39.2023 20.9161 39.0285 20.6331 38.7734C20.3502 38.5183 20.1575 38.1933 20.0794 37.8394C20.0013 37.4856 20.0414 37.1188 20.1945 36.7855C20.3477 36.4521 20.607 36.1672 20.9397 35.9668C21.2724 35.7663 21.6636 35.6594 22.0637 35.6594C22.6003 35.6594 23.1149 35.8516 23.4943 36.1937C23.8738 36.5357 24.0869 36.9997 24.0869 37.4835Z" fill="#45413C" stroke="#45413C" stroke-width="0.5" stroke-linecap="round" stroke-linejoin="round"/>
<path d="M62.5278 37.4835C62.5278 37.8443 62.6465 38.197 62.8688 38.497C63.0911 38.797 63.4071 39.0308 63.7768 39.1689C64.1465 39.3069 64.5533 39.3431 64.9457 39.2727C65.3382 39.2023 65.6987 39.0285 65.9816 38.7734C66.2646 38.5183 66.4573 38.1933 66.5353 37.8394C66.6134 37.4856 66.5733 37.1188 66.4202 36.7855C66.2671 36.4521 66.0078 36.1672 65.6751 35.9668C65.3423 35.7663 64.9512 35.6594 64.551 35.6594C64.0144 35.6594 63.4998 35.8516 63.1204 36.1937C62.741 36.5357 62.5278 36.9997 62.5278 37.4835Z" fill="#45413C" stroke="#45413C" stroke-width="0.5" stroke-linecap="round" stroke-linejoin="round"/>
<path d="M65.3397 29.5666C62.9512 29.2252 60.6369 28.5481 58.4811 27.56C56.3298 26.5944 54.3628 25.3259 52.6543 23.8022" stroke="#45413C" stroke-width="0.5" stroke-linecap="round" stroke-linejoin="round"/>
<path d="M33.2114 60.2857C36.2058 58.4819 39.7262 57.519 43.3274 57.519C46.9286 57.519 50.449 58.4819 53.4434 60.2857" stroke="#45413C" stroke-width="0.5" stroke-linecap="round"/>
<path d="M0.799766 38.3409C0.80149 38.6413 0.885499 38.9368 1.04433 39.2009C1.20316 39.465 1.43189 39.6897 1.7102 39.855C1.99178 40.0216 2.31505 40.1222 2.65069 40.1477C2.98633 40.1732 3.32371 40.1227 3.63224 40.0009L72.0769 12.9666C72.3866 12.8463 72.658 12.6581 72.8664 12.4192C73.0749 12.1803 73.2138 11.8981 73.2706 11.5985C73.3256 11.2994 73.2971 10.9926 73.1876 10.706C73.078 10.4193 72.891 10.1618 72.6434 9.95671C70.0214 7.70518 67.1465 5.70604 64.0651 3.99166C63.7907 3.849 63.4829 3.76642 63.1667 3.75058C62.8504 3.73474 62.5344 3.78607 62.2442 3.90045L2.90389 27.3411C2.61644 27.4557 2.36256 27.6292 2.16239 27.8476C1.96221 28.0661 1.82125 28.3236 1.75067 28.5998C1.0535 31.8075 0.734759 35.0727 0.799766 38.3409V38.3409Z" fill="#F0F0F0"/>
<path d="M48.1628 12.8571L61.6373 7.53055C61.9197 7.40225 62.2315 7.33542 62.5477 7.33542C62.864 7.33542 63.1758 7.40225 63.4582 7.53055C66.1858 9.05306 68.7465 10.8061 71.1058 12.7659H72.2995C72.553 12.6323 72.7712 12.4504 72.9389 12.2331C73.1066 12.0157 73.2198 11.768 73.2707 11.5073C73.3257 11.2082 73.2971 10.9014 73.1876 10.6148C73.0781 10.3281 72.8911 10.0706 72.6435 9.8655C70.0215 7.61397 67.1465 5.61483 64.0651 3.90044C63.7907 3.75778 63.483 3.67521 63.1667 3.65936C62.8505 3.64352 62.5345 3.69486 62.2443 3.80923L39.5845 12.8571H48.1628Z" fill="white"/>
<path d="M33.09 28.3626L42.336 24.7143H9.56021L2.9039 27.3411C2.4247 27.5465 2.05415 27.9133 1.87207 28.3626H33.09Z" fill="#E0E0E0"/>
<path d="M2.92423 28.162C2.79332 28.2137 2.67081 28.2812 2.56006 28.3626Z" fill="#E0E0E0"/>
<path d="M0.799766 38.3409C0.80149 38.6413 0.885499 38.9368 1.04433 39.2009C1.20316 39.465 1.43189 39.6897 1.7102 39.855C1.99178 40.0216 2.31505 40.1222 2.65069 40.1477C2.98633 40.1732 3.32371 40.1227 3.63224 40.0009L72.0769 12.9666C72.3866 12.8463 72.658 12.6581 72.8664 12.4192C73.0749 12.1803 73.2138 11.8981 73.2706 11.5985C73.3256 11.2994 73.2971 10.9926 73.1876 10.706C73.078 10.4193 72.891 10.1618 72.6434 9.95671C70.0214 7.70518 67.1465 5.70604 64.0651 3.99166C63.7907 3.849 63.4829 3.76642 63.1667 3.75058C62.8504 3.73474 62.5344 3.78607 62.2442 3.90045L2.90389 27.3411C2.61644 27.4557 2.36256 27.6292 2.16239 27.8476C1.96221 28.0661 1.82125 28.3236 1.75067 28.5998C1.0535 31.8075 0.734759 35.0727 0.799766 38.3409V38.3409Z" stroke="#45413C" stroke-width="0.5" stroke-linecap="round" stroke-linejoin="round"/>
<path d="M73.2708 11.6167C73.2109 11.9131 73.0706 12.1915 72.8623 12.427C72.654 12.6626 72.3842 12.8479 72.0771 12.9666L43.3275 24.2582L34.3243 27.9066L3.63245 40.0009C3.32401 40.1222 2.98686 40.1723 2.65154 40.1466C2.31621 40.1208 1.99331 40.0201 1.71206 39.8535C1.43082 39.6868 1.20012 39.4596 1.04086 39.1923C0.881595 38.925 0.798802 38.6261 0.799976 38.3226C0.763487 35.058 1.10935 31.799 1.8318 28.5998C1.93469 28.1784 2.19993 27.8035 2.58039 27.5417C2.68708 27.4597 2.8109 27.3976 2.94456 27.3593V27.3593L11.4217 24.0028L62.2849 3.93691C62.5778 3.81951 62.8975 3.76655 63.2176 3.78241C63.5377 3.79827 63.849 3.88248 64.126 4.02812C67.1734 5.7484 70.0263 7.7341 72.6436 9.95669C72.8944 10.1636 73.0833 10.4241 73.193 10.7143C73.3026 11.0044 73.3294 11.3148 73.2708 11.6167V11.6167Z" stroke="#45413C" stroke-width="0.5" stroke-linecap="round" stroke-linejoin="round"/>
<path d="M4.11764 22.1604C3.98303 22.4385 3.92748 22.7425 3.95602 23.0449C3.98457 23.3472 4.09631 23.6383 4.28113 23.8919C4.46595 24.1455 4.718 24.3535 5.01447 24.4971C5.31094 24.6407 5.64245 24.7153 5.97898 24.7143H80.736C81.0727 24.7158 81.4044 24.6415 81.7012 24.4981C81.9979 24.3548 82.2503 24.1469 82.4355 23.8934C82.6383 23.6291 82.7601 23.3213 82.7885 23.0009C82.8169 22.6806 82.751 22.3592 82.5974 22.0692C81.2009 19.0613 79.4581 16.1938 77.3977 13.5138C77.2094 13.2815 76.9627 13.0925 76.6779 12.9626C76.3931 12.8326 76.0782 12.7652 75.759 12.7659H10.9358C10.62 12.7681 10.3091 12.8368 10.0281 12.9667C9.74701 13.0965 9.50358 13.2839 9.31725 13.5138C7.25066 16.2226 5.50775 19.121 4.11764 22.1604V22.1604Z" fill="#F0F0F0"/>
<path d="M79.9873 17.4176C79.2081 16.0941 78.3294 14.8203 77.3572 13.6051C77.1689 13.3727 76.9222 13.1838 76.6374 13.0538C76.3525 12.9238 76.0376 12.8564 75.7184 12.8572H10.9357C10.6199 12.8593 10.309 12.928 10.028 13.0579C9.74692 13.1878 9.50349 13.3752 9.31716 13.6051C8.34499 14.8203 7.46622 16.0941 6.68701 17.4176H79.9873Z" fill="white"/>
<path d="M4.11764 22.1604C3.98303 22.4385 3.92748 22.7425 3.95602 23.0449C3.98457 23.3472 4.09631 23.6383 4.28113 23.8919C4.46595 24.1455 4.718 24.3535 5.01447 24.4971C5.31094 24.6407 5.64245 24.7153 5.97898 24.7143H80.736C81.0727 24.7158 81.4044 24.6415 81.7012 24.4981C81.9979 24.3548 82.2503 24.1469 82.4355 23.8934C82.6383 23.6291 82.7601 23.3213 82.7885 23.0009C82.8169 22.6806 82.751 22.3592 82.5974 22.0692C81.2009 19.0613 79.4581 16.1938 77.3977 13.5138C77.2094 13.2815 76.9627 13.0925 76.6779 12.9626C76.3931 12.8326 76.0782 12.7652 75.759 12.7659H10.9358C10.62 12.7681 10.3091 12.8368 10.0281 12.9667C9.74701 13.0965 9.50358 13.2839 9.31725 13.5138C7.25066 16.2226 5.50775 19.121 4.11764 22.1604V22.1604Z" stroke="#45413C" stroke-width="0.5" stroke-linecap="round" stroke-linejoin="round"/>
</svg>
