<svg width="84" height="84" viewBox="0 0 84 84" fill="none" xmlns="http://www.w3.org/2000/svg">
<path d="M0.333008 37.4835C0.333008 47.1596 4.40027 56.4393 11.64 63.2813C18.8798 70.1233 28.6991 73.967 38.9377 73.967C49.1762 73.967 58.9955 70.1233 66.2353 63.2813C73.475 56.4393 77.5423 47.1596 77.5423 37.4835C77.5423 27.8075 73.475 18.5278 66.2353 11.6858C58.9955 4.84379 49.1762 1 38.9377 1C28.6991 1 18.8798 4.84379 11.64 11.6858C4.40027 18.5278 0.333008 27.8075 0.333008 37.4835V37.4835Z" fill="#FFE500"/>
<path d="M38.9377 1C31.3024 1 23.8386 3.13972 17.4901 7.14858C11.1416 11.1574 6.19352 16.8554 3.27163 23.5219C0.349735 30.1884 -0.414766 37.524 1.0748 44.6011C2.56437 51.6782 6.24111 58.1789 11.6401 63.2813C17.039 68.3836 23.9177 71.8583 31.4063 73.266C38.8948 74.6737 46.657 73.9512 53.711 71.1899C60.7651 68.4285 66.7943 63.7524 71.0363 57.7527C75.2782 51.753 77.5423 44.6993 77.5423 37.4835C77.5423 27.8075 73.4751 18.5278 66.2353 11.6858C58.9955 4.84379 49.1763 1 38.9377 1V1ZM38.9377 68.4945C31.9705 68.4945 25.1598 66.542 19.3667 62.8839C13.5737 59.2258 9.05864 54.0265 6.39241 47.9433C3.72618 41.8601 3.02857 35.1664 4.3878 28.7085C5.74703 22.2506 9.10206 16.3187 14.0286 11.6629C18.9552 7.007 25.232 3.83632 32.0653 2.55177C38.8986 1.26722 45.9815 1.9265 52.4184 4.44623C58.8552 6.96596 64.3569 11.233 68.2276 16.7077C72.0984 22.1824 74.1644 28.6189 74.1644 35.2033C74.1644 44.0327 70.453 52.5004 63.8467 58.7437C57.2404 64.987 48.2804 68.4945 38.9377 68.4945V68.4945Z" fill="#EBCB00"/>
<path d="M27.356 8.29672C27.356 9.02242 28.5761 9.7184 30.7481 10.2316C32.92 10.7447 35.8658 11.033 38.9374 11.033C42.0089 11.033 44.9547 10.7447 47.1266 10.2316C49.2986 9.7184 50.5187 9.02242 50.5187 8.29672C50.5187 7.57102 49.2986 6.87504 47.1266 6.36189C44.9547 5.84874 42.0089 5.56046 38.9374 5.56046C35.8658 5.56046 32.92 5.84874 30.7481 6.36189C28.5761 6.87504 27.356 7.57102 27.356 8.29672Z" fill="#FFF48C"/>
<path opacity="0.15" d="M8.0542 81.2637C8.0542 81.9894 11.308 82.6854 17.0998 83.1986C22.8917 83.7117 30.747 84 38.9379 84C47.1288 84 54.9842 83.7117 60.776 83.1986C66.5678 82.6854 69.8216 81.9894 69.8216 81.2637C69.8216 80.538 66.5678 79.842 60.776 79.3289C54.9842 78.8157 47.1288 78.5275 38.9379 78.5275C30.747 78.5275 22.8917 78.8157 17.0998 79.3289C11.308 79.842 8.0542 80.538 8.0542 81.2637V81.2637Z" fill="#45413C"/>
<path d="M0.333008 37.4835C0.333008 47.1596 4.40027 56.4393 11.64 63.2813C18.8798 70.1233 28.6991 73.967 38.9377 73.967C49.1762 73.967 58.9955 70.1233 66.2353 63.2813C73.475 56.4393 77.5423 47.1596 77.5423 37.4835C77.5423 27.8075 73.475 18.5278 66.2353 11.6858C58.9955 4.84379 49.1762 1 38.9377 1C28.6991 1 18.8798 4.84379 11.64 11.6858C4.40027 18.5278 0.333008 27.8075 0.333008 37.4835V37.4835Z" stroke="#45413C" stroke-width="0.5" stroke-linecap="round" stroke-linejoin="round"/>
<path d="M10.9497 46.6044C10.9497 48.1185 13.1116 49.3407 15.7753 49.3407C18.439 49.3407 20.6009 48.1185 20.6009 46.6044C20.6009 45.0903 18.439 43.8681 15.7753 43.8681C13.1116 43.8681 10.9497 45.0903 10.9497 46.6044Z" fill="#FFAA54"/>
<path d="M22.5304 33.8352C22.5304 34.196 22.4172 34.5486 22.2051 34.8486C21.993 35.1486 21.6915 35.3824 21.3388 35.5205C20.9861 35.6585 20.598 35.6947 20.2236 35.6243C19.8492 35.5539 19.5052 35.3802 19.2353 35.1251C18.9653 34.8699 18.7815 34.5449 18.707 34.191C18.6325 33.8372 18.6708 33.4704 18.8169 33.1371C18.9629 32.8038 19.2103 32.5189 19.5278 32.3184C19.8452 32.118 20.2184 32.011 20.6002 32.011C21.1121 32.011 21.603 32.2032 21.965 32.5453C22.327 32.8874 22.5304 33.3514 22.5304 33.8352Z" fill="#45413C" stroke="#45413C" stroke-width="0.5" stroke-linecap="round" stroke-linejoin="round"/>
<path d="M55.3447 33.8352C55.3447 34.196 55.4579 34.5486 55.67 34.8486C55.8821 35.1486 56.1836 35.3824 56.5363 35.5205C56.889 35.6585 57.2771 35.6947 57.6515 35.6243C58.026 35.5539 58.3699 35.3802 58.6398 35.1251C58.9098 34.8699 59.0936 34.5449 59.1681 34.191C59.2426 33.8372 59.2044 33.4704 59.0583 33.1371C58.9122 32.8038 58.6648 32.5189 58.3473 32.3184C58.0299 32.118 57.6567 32.011 57.275 32.011C56.763 32.011 56.2721 32.2032 55.9101 32.5453C55.5481 32.8874 55.3447 33.3514 55.3447 33.8352Z" fill="#45413C" stroke="#45413C" stroke-width="0.5" stroke-linecap="round" stroke-linejoin="round"/>
<path d="M30.2515 61.1978C33.0212 60.1432 35.9558 59.5269 38.9375 59.3736C41.9192 59.5269 44.8538 60.1432 47.6236 61.1978" fill="#FFE500"/>
<path d="M30.2515 61.1978C33.0212 60.1432 35.9558 59.5269 38.9375 59.3736C41.9192 59.5269 44.8538 60.1432 47.6236 61.1978" stroke="#45413C" stroke-width="0.5" stroke-linecap="round" stroke-linejoin="round"/>
<path d="M41.833 43.8681H79.4725C80.4964 43.8681 81.4783 44.2525 82.2023 44.9367C82.9263 45.6209 83.333 46.5489 83.333 47.5165C83.333 48.4841 82.9263 49.4121 82.2023 50.0963C81.4783 50.7805 80.4964 51.1648 79.4725 51.1648H41.833" fill="#FFE500"/>
<path d="M41.833 43.8681H79.4725C80.4964 43.8681 81.4783 44.2525 82.2023 44.9367C82.9263 45.6209 83.333 46.5489 83.333 47.5165C83.333 48.4841 82.9263 49.4121 82.2023 50.0963C81.4783 50.7805 80.4964 51.1648 79.4725 51.1648H41.833" stroke="#45413C" stroke-width="0.5" stroke-linecap="round" stroke-linejoin="round"/>
</svg>
