<svg width="24" height="24" viewBox="0 0 24 24" fill="none" xmlns="http://www.w3.org/2000/svg">
<path opacity="0.15" d="M4 22.75C4 22.9489 4.84285 23.1397 6.34315 23.2803C7.84344 23.421 9.87827 23.5 12 23.5C14.1217 23.5 16.1566 23.421 17.6569 23.2803C19.1571 23.1397 20 22.9489 20 22.75C20 22.5511 19.1571 22.3603 17.6569 22.2197C16.1566 22.079 14.1217 22 12 22C9.87827 22 7.84344 22.079 6.34315 22.2197C4.84285 22.3603 4 22.5511 4 22.75V22.75Z" fill="#45413C"/>
<path d="M2 10.75C2 13.4022 3.05357 15.9457 4.92893 17.8211C6.8043 19.6964 9.34784 20.75 12 20.75C14.6522 20.75 17.1957 19.6964 19.0711 17.8211C20.9464 15.9457 22 13.4022 22 10.75C22 8.09784 20.9464 5.5543 19.0711 3.67893C17.1957 1.80357 14.6522 0.75 12 0.75C9.34784 0.75 6.8043 1.80357 4.92893 3.67893C3.05357 5.5543 2 8.09784 2 10.75V10.75Z" fill="#FFE500"/>
<path d="M12 0.75C10.0222 0.75 8.08879 1.33649 6.4443 2.4353C4.79981 3.53412 3.51808 5.0959 2.76121 6.92317C2.00433 8.75043 1.8063 10.7611 2.19215 12.7009C2.578 14.6407 3.53041 16.4225 4.92893 17.8211C6.32746 19.2196 8.10929 20.172 10.0491 20.5579C11.9889 20.9437 13.9996 20.7457 15.8268 19.9888C17.6541 19.2319 19.2159 17.9502 20.3147 16.3057C21.4135 14.6612 22 12.7278 22 10.75C22 8.09784 20.9464 5.5543 19.0711 3.67893C17.1957 1.80357 14.6522 0.75 12 0.75V0.75ZM12 19.25C10.1952 19.25 8.43102 18.7148 6.93042 17.7122C5.42982 16.7095 4.26025 15.2844 3.5696 13.617C2.87895 11.9496 2.69824 10.1149 3.05033 8.3448C3.40242 6.57472 4.2715 4.9488 5.54765 3.67265C6.82381 2.3965 8.44973 1.52742 10.2198 1.17533C11.9899 0.823244 13.8246 1.00395 15.492 1.6946C17.1594 2.38525 18.5845 3.55482 19.5872 5.05542C20.5898 6.55602 21.125 8.32025 21.125 10.125C21.125 12.5451 20.1636 14.8661 18.4523 16.5773C16.7411 18.2886 14.4201 19.25 12 19.25V19.25Z" fill="#EBCB00"/>
<path d="M9 2.75C9 2.94891 9.31607 3.13968 9.87868 3.28033C10.4413 3.42098 11.2044 3.5 12 3.5C12.7956 3.5 13.5587 3.42098 14.1213 3.28033C14.6839 3.13968 15 2.94891 15 2.75C15 2.55109 14.6839 2.36032 14.1213 2.21967C13.5587 2.07902 12.7956 2 12 2C11.2044 2 10.4413 2.07902 9.87868 2.21967C9.31607 2.36032 9 2.55109 9 2.75Z" fill="#FFF48C"/>
<path d="M8.5 10.75H4.25" stroke="#45413C" stroke-width="0.2" stroke-linecap="round" stroke-linejoin="round"/>
<path d="M15.5 10.75H19.75" stroke="#45413C" stroke-width="0.2" stroke-linecap="round" stroke-linejoin="round"/>
<path d="M8.97 14.75C8.90245 14.7504 8.83577 14.7653 8.7745 14.7938C8.71324 14.8223 8.65884 14.8636 8.615 14.915C8.57178 14.9675 8.53973 15.0283 8.52082 15.0937C8.50191 15.159 8.49652 15.2275 8.505 15.295C8.63883 16.1269 9.0646 16.8839 9.70598 17.4304C10.3474 17.9768 11.1624 18.277 12.005 18.277C12.8476 18.277 13.6626 17.9768 14.304 17.4304C14.9454 16.8839 15.3712 16.1269 15.505 15.295C15.5135 15.2275 15.5081 15.159 15.4892 15.0937C15.4703 15.0283 15.4382 14.9675 15.395 14.915C15.3512 14.8636 15.2968 14.8223 15.2355 14.7938C15.1742 14.7653 15.1076 14.7504 15.04 14.75H8.97Z" fill="#FFB0CA" stroke="#45413C" stroke-width="0.2" stroke-linecap="round" stroke-linejoin="round"/>
<path d="M14.785 16.92C13.9277 16.4678 12.969 16.2423 12 16.265C11.031 16.2423 10.0723 16.4678 9.215 16.92C9.55058 17.3354 9.97486 17.6706 10.4567 17.9008C10.9386 18.131 11.4659 18.2505 12 18.2505C12.5341 18.2505 13.0614 18.131 13.5433 17.9008C14.0251 17.6706 14.4494 17.3354 14.785 16.92Z" fill="#FF87AF" stroke="#45413C" stroke-width="0.2" stroke-linecap="round" stroke-linejoin="round"/>
<path d="M5.25 18.13C5.99407 18.8112 6.83695 19.376 7.75 19.805V10.75H5.25V18.13Z" fill="#4AEFF7" stroke="#45413C" stroke-width="0.2" stroke-linecap="round" stroke-linejoin="round"/>
<path d="M18.75 18.13C18.0059 18.8112 17.1631 19.376 16.25 19.805V10.75H18.75V18.13Z" fill="#4AEFF7" stroke="#45413C" stroke-width="0.2" stroke-linecap="round" stroke-linejoin="round"/>
<path d="M2 10.75C2 13.4022 3.05357 15.9457 4.92893 17.8211C6.8043 19.6964 9.34784 20.75 12 20.75C14.6522 20.75 17.1957 19.6964 19.0711 17.8211C20.9464 15.9457 22 13.4022 22 10.75C22 8.09784 20.9464 5.5543 19.0711 3.67893C17.1957 1.80357 14.6522 0.75 12 0.75C9.34784 0.75 6.8043 1.80357 4.92893 3.67893C3.05357 5.5543 2 8.09784 2 10.75V10.75Z" stroke="#45413C" stroke-width="0.2" stroke-linecap="round" stroke-linejoin="round"/>
</svg>
