<svg width="24" height="24" viewBox="0 0 24 24" fill="none" xmlns="http://www.w3.org/2000/svg">
<path d="M2 10.25C2 12.9022 3.05357 15.4457 4.92893 17.3211C6.8043 19.1964 9.34784 20.25 12 20.25C14.6522 20.25 17.1957 19.1964 19.0711 17.3211C20.9464 15.4457 22 12.9022 22 10.25C22 7.59784 20.9464 5.0543 19.0711 3.17893C17.1957 1.30357 14.6522 0.25 12 0.25C9.34784 0.25 6.8043 1.30357 4.92893 3.17893C3.05357 5.0543 2 7.59784 2 10.25V10.25Z" fill="#FFE500"/>
<path d="M12 0.25C10.0222 0.25 8.08879 0.83649 6.4443 1.9353C4.79981 3.03412 3.51808 4.5959 2.7612 6.42317C2.00433 8.25043 1.80629 10.2611 2.19215 12.2009C2.578 14.1407 3.53041 15.9225 4.92893 17.3211C6.32746 18.7196 8.10929 19.672 10.0491 20.0579C11.9889 20.4437 13.9996 20.2457 15.8268 19.4888C17.6541 18.7319 19.2159 17.4502 20.3147 15.8057C21.4135 14.1612 22 12.2278 22 10.25C22 8.93678 21.7413 7.63642 21.2388 6.42317C20.7362 5.20991 19.9997 4.10752 19.0711 3.17893C18.1425 2.25035 17.0401 1.51375 15.8268 1.0112C14.6136 0.508658 13.3132 0.25 12 0.25V0.25ZM12 18.75C10.1952 18.75 8.43102 18.2148 6.93042 17.2122C5.42982 16.2095 4.26025 14.7844 3.5696 13.117C2.87895 11.4496 2.69824 9.61488 3.05033 7.8448C3.40242 6.07472 4.2715 4.4488 5.54765 3.17265C6.8238 1.8965 8.44972 1.02742 10.2198 0.675334C11.9899 0.323244 13.8246 0.50395 15.492 1.1946C17.1594 1.88525 18.5845 3.05482 19.5872 4.55542C20.5898 6.05602 21.125 7.82025 21.125 9.625C21.125 12.0451 20.1636 14.3661 18.4523 16.0773C16.7411 17.7886 14.4201 18.75 12 18.75V18.75Z" fill="#EBCB00"/>
<path d="M8.885 3.64502C8.885 3.74351 8.9626 3.84104 9.11336 3.93203C9.26412 4.02303 9.4851 4.10571 9.76368 4.17535C10.0423 4.24499 10.373 4.30024 10.7369 4.33793C11.1009 4.37562 11.491 4.39502 11.885 4.39502C12.279 4.39502 12.6691 4.37562 13.0331 4.33793C13.397 4.30024 13.7277 4.24499 14.0063 4.17535C14.2849 4.10571 14.5059 4.02303 14.6566 3.93203C14.8074 3.84104 14.885 3.74351 14.885 3.64502C14.885 3.54653 14.8074 3.449 14.6566 3.35801C14.5059 3.26701 14.2849 3.18433 14.0063 3.11469C13.7277 3.04505 13.397 2.9898 13.0331 2.95211C12.6691 2.91442 12.279 2.89502 11.885 2.89502C11.491 2.89502 11.1009 2.91442 10.7369 2.95211C10.373 2.9898 10.0423 3.04505 9.76368 3.11469C9.4851 3.18433 9.26412 3.26701 9.11336 3.35801C8.9626 3.449 8.885 3.54653 8.885 3.64502V3.64502Z" fill="#FFF48C"/>
<path d="M2 10.25C2 12.9022 3.05357 15.4457 4.92893 17.3211C6.8043 19.1964 9.34784 20.25 12 20.25C14.6522 20.25 17.1957 19.1964 19.0711 17.3211C20.9464 15.4457 22 12.9022 22 10.25C22 7.59784 20.9464 5.0543 19.0711 3.17893C17.1957 1.30357 14.6522 0.25 12 0.25C9.34784 0.25 6.8043 1.30357 4.92893 3.17893C3.05357 5.0543 2 7.59784 2 10.25V10.25Z" stroke="#45413C" stroke-width="0.2" stroke-linecap="round" stroke-linejoin="round"/>
<path opacity="0.15" d="M4 22.395C4 22.5939 4.84285 22.7847 6.34315 22.9253C7.84344 23.066 9.87827 23.145 12 23.145C14.1217 23.145 16.1566 23.066 17.6569 22.9253C19.1571 22.7847 20 22.5939 20 22.395C20 22.1961 19.1571 22.0053 17.6569 21.8647C16.1566 21.724 14.1217 21.645 12 21.645C9.87827 21.645 7.84344 21.724 6.34315 21.8647C4.84285 22.0053 4 22.1961 4 22.395V22.395Z" fill="#45413C"/>
<path d="M20 12.75C20 13.165 19.44 13.5 18.75 13.5C18.06 13.5 17.5 13.165 17.5 12.75C17.5 12.335 18.06 12 18.75 12C19.44 12 20 12.335 20 12.75Z" fill="#FFAA54"/>
<path d="M4 12.75C4 13.165 4.56 13.5 5.25 13.5C5.94 13.5 6.5 13.165 6.5 12.75C6.5 12.335 5.94 12 5.25 12C4.56 12 4 12.335 4 12.75Z" fill="#FFAA54"/>
<path d="M8.235 13.465C8.485 17.465 10.78 18.965 11.66 19.465C11.7635 19.5242 11.8807 19.5554 12 19.5554C12.1193 19.5554 12.2365 19.5242 12.34 19.465C13.22 18.965 15.515 17.505 15.765 13.465C15.7705 13.3713 15.7567 13.2775 15.7244 13.1894C15.6921 13.1013 15.6421 13.0207 15.5774 12.9527C15.5127 12.8848 15.4347 12.8308 15.3483 12.7942C15.2619 12.7576 15.1688 12.7392 15.075 12.74H8.925C8.83116 12.7392 8.73814 12.7576 8.65172 12.7942C8.56531 12.8308 8.48733 12.8848 8.42263 12.9527C8.35793 13.0207 8.30789 13.1013 8.27562 13.1894C8.24334 13.2775 8.22952 13.3713 8.235 13.465V13.465Z" fill="#FFB0CA" stroke="#45413C" stroke-width="0.2" stroke-linecap="round" stroke-linejoin="round"/>
<path d="M12 16.4C12 15.46 14.825 15.735 14.825 16.715V20.795C14.825 21.5442 14.5274 22.2628 13.9976 22.7926C13.4678 23.3224 12.7492 23.62 12 23.62C11.2508 23.62 10.5322 23.3224 10.0024 22.7926C9.47263 22.2628 9.175 21.5442 9.175 20.795V16.715C9.175 15.735 12 15.46 12 16.4Z" fill="#6DD627"/>
<path d="M12 16.4C12 15.46 9.175 15.735 9.175 16.715V17.97C9.175 16.97 14.825 16.97 14.825 17.97V16.715C14.825 15.735 12 15.46 12 16.4Z" fill="#46B000"/>
<path d="M12 16.4C12 15.46 14.825 15.735 14.825 16.715V20.795C14.825 21.5442 14.5274 22.2628 13.9976 22.7926C13.4678 23.3224 12.7492 23.62 12 23.62C11.2508 23.62 10.5322 23.3224 10.0024 22.7926C9.47263 22.2628 9.175 21.5442 9.175 20.795V16.715C9.175 15.735 12 15.46 12 16.4Z" stroke="#45413C" stroke-width="0.2" stroke-linecap="round" stroke-linejoin="round"/>
<path d="M6.83 10.395V9.49999L6.45 9.37499C6.31053 9.33159 6.17763 9.26934 6.055 9.18999C5.94439 9.11422 5.85352 9.01307 5.79 8.89499C5.71964 8.75748 5.68524 8.60439 5.69 8.44999C5.68675 8.24443 5.74039 8.04197 5.845 7.86499C5.9428 7.69301 6.08422 7.54987 6.255 7.44999C6.4298 7.34393 6.62642 7.27896 6.83 7.25999V7.09499C6.83 7.03499 6.83 6.98999 6.83 6.95499C6.83524 6.92645 6.84922 6.90024 6.87 6.87999C6.88328 6.86746 6.89904 6.85787 6.91627 6.85184C6.9335 6.84581 6.95181 6.84348 6.97 6.84499C7.03667 6.84499 7.07667 6.86499 7.09 6.90499C7.1097 6.9663 7.11817 7.03067 7.115 7.09499V7.25999C7.33002 7.26481 7.54215 7.31063 7.74 7.39499C7.82427 7.41924 7.89868 7.46956 7.95258 7.53873C8.00648 7.60789 8.03708 7.69235 8.04 7.77999C8.04233 7.83016 8.0347 7.8803 8.01753 7.9275C8.00037 7.97471 7.97401 8.01804 7.94 8.05499C7.90948 8.0928 7.8705 8.12291 7.82621 8.14289C7.78191 8.16287 7.73354 8.17215 7.685 8.16999C7.59031 8.16411 7.49731 8.14212 7.41 8.10499C7.31413 8.06996 7.21543 8.0432 7.115 8.02499V8.73499C7.32196 8.79079 7.52424 8.86268 7.72 8.94999C7.88726 9.02474 8.03206 9.14196 8.14 9.28999C8.26905 9.47382 8.33245 9.69574 8.32 9.91999C8.3204 10.0831 8.2881 10.2446 8.225 10.395C8.16731 10.5378 8.07849 10.6659 7.965 10.77C7.85251 10.8792 7.72012 10.9657 7.575 11.025C7.42878 11.0868 7.27335 11.1239 7.115 11.135V11.305C7.1185 11.3483 7.1185 11.3917 7.115 11.435C7.11504 11.4508 7.11197 11.4664 7.10596 11.481C7.09996 11.4956 7.09113 11.5088 7.08 11.52C7.06672 11.5325 7.05096 11.5421 7.03373 11.5481C7.0165 11.5542 6.99819 11.5565 6.98 11.555C6.915 11.555 6.875 11.555 6.86 11.49C6.84147 11.4301 6.83302 11.3676 6.835 11.305V11.15C6.66697 11.1437 6.49974 11.1237 6.335 11.09C6.17288 11.0634 6.01898 11.0001 5.885 10.905C5.82737 10.87 5.77966 10.8209 5.7464 10.7622C5.71315 10.7036 5.69545 10.6374 5.695 10.57C5.69216 10.4704 5.728 10.3737 5.795 10.3C5.82717 10.2645 5.86657 10.2363 5.91056 10.2173C5.95455 10.1983 6.0021 10.189 6.05 10.19C6.18213 10.2036 6.31172 10.2355 6.435 10.285C6.56343 10.3324 6.69554 10.3692 6.83 10.395V10.395ZM6.83 8.64999V8.04499C6.75391 8.0639 6.68462 8.10374 6.63 8.15999C6.57833 8.21572 6.54974 8.28899 6.55 8.36499C6.54974 8.39582 6.55582 8.42638 6.56786 8.45476C6.5799 8.48315 6.59765 8.50875 6.62 8.52999C6.68329 8.58074 6.75415 8.62123 6.83 8.64999V8.64999ZM7.12 9.59499V10.37C7.21929 10.3501 7.30807 10.2951 7.37 10.215C7.43122 10.1383 7.4647 10.0431 7.465 9.94499C7.465 9.78999 7.35 9.67499 7.12 9.59499V9.59499Z" fill="#45413C"/>
<path d="M17.33 10.395V9.49999L16.95 9.37499C16.8109 9.33059 16.6782 9.26841 16.555 9.18999C16.4444 9.11422 16.3535 9.01307 16.29 8.89499C16.2196 8.75748 16.1852 8.60439 16.19 8.44999C16.189 8.24471 16.2425 8.04284 16.345 7.86499C16.4428 7.69301 16.5842 7.54987 16.755 7.44999C16.9298 7.34393 17.1264 7.27896 17.33 7.25999V7.09499C17.3266 7.04839 17.3266 7.0016 17.33 6.95499C17.3304 6.94077 17.3338 6.92679 17.3398 6.9139C17.3458 6.901 17.3544 6.88947 17.365 6.87999C17.3783 6.86746 17.394 6.85787 17.4113 6.85184C17.4285 6.84581 17.4468 6.84348 17.465 6.84499C17.5283 6.84499 17.5683 6.86499 17.585 6.90499C17.6047 6.9663 17.6132 7.03067 17.61 7.09499V7.25999C17.825 7.26481 18.0372 7.31063 18.235 7.39499C18.3193 7.41924 18.3937 7.46956 18.4476 7.53873C18.5015 7.60789 18.5321 7.69235 18.535 7.77999C18.539 7.88033 18.5051 7.9785 18.44 8.05499C18.4082 8.09261 18.3683 8.12251 18.3232 8.14243C18.2782 8.16235 18.2292 8.17178 18.18 8.16999C18.0853 8.16411 17.9923 8.14212 17.905 8.10499C17.8091 8.06996 17.7104 8.0432 17.61 8.02499V8.73499C17.8183 8.79168 18.0222 8.86354 18.22 8.94999C18.3858 9.02488 18.529 9.14215 18.635 9.28999C18.764 9.47382 18.8275 9.69574 18.815 9.91999C18.8154 10.0831 18.7831 10.2446 18.72 10.395C18.6623 10.5378 18.5735 10.6659 18.46 10.77C18.3485 10.878 18.2179 10.9644 18.075 11.025C17.9269 11.0863 17.7699 11.1234 17.61 11.135V11.305C17.61 11.36 17.61 11.405 17.61 11.435C17.6061 11.4669 17.5921 11.4967 17.57 11.52C17.5567 11.5325 17.541 11.5421 17.5237 11.5481C17.5065 11.5542 17.4882 11.5565 17.47 11.555C17.4457 11.5584 17.4209 11.5539 17.3993 11.5422C17.3777 11.5305 17.3604 11.5122 17.35 11.49C17.3315 11.4301 17.323 11.3676 17.325 11.305V11.15C17.157 11.1434 16.9898 11.1234 16.825 11.09C16.6632 11.0624 16.5095 10.9992 16.375 10.905C16.3174 10.87 16.2697 10.8209 16.2364 10.7622C16.2031 10.7036 16.1855 10.6374 16.185 10.57C16.1822 10.4704 16.218 10.3737 16.285 10.3C16.3172 10.2645 16.3566 10.2363 16.4006 10.2173C16.4446 10.1983 16.4921 10.189 16.54 10.19C16.6722 10.203 16.8019 10.235 16.925 10.285C17.0567 10.3329 17.1922 10.3697 17.33 10.395ZM17.33 8.64999V8.04499C17.2539 8.0639 17.1846 8.10374 17.13 8.15999C17.0783 8.21572 17.0497 8.28899 17.05 8.36499C17.0497 8.39582 17.0558 8.42638 17.0679 8.45476C17.0799 8.48315 17.0977 8.50875 17.12 8.52999C17.1833 8.58074 17.2542 8.62123 17.33 8.64999V8.64999ZM17.62 9.59499V10.37C17.7193 10.3501 17.8081 10.2951 17.87 10.215C17.9335 10.1396 17.9673 10.0436 17.965 9.94499C17.965 9.78999 17.85 9.67499 17.62 9.59499V9.59499Z" fill="#45413C"/>
<path d="M10.48 19.815C10.48 20.2181 10.6401 20.6047 10.9252 20.8898C11.2103 21.1748 11.5969 21.335 12 21.335C12.4031 21.335 12.7897 21.1748 13.0748 20.8898C13.3599 20.6047 13.52 20.2181 13.52 19.815C13.52 19.4119 13.3599 19.0252 13.0748 18.7402C12.7897 18.4551 12.4031 18.295 12 18.295C11.5969 18.295 11.2103 18.4551 10.9252 18.7402C10.6401 19.0252 10.48 19.4119 10.48 19.815V19.815Z" fill="#C8FFA1"/>
<path d="M11.855 20.825V20.055L11.5 19.95C11.381 19.9097 11.2669 19.856 11.16 19.79C11.0635 19.7252 10.9845 19.6376 10.93 19.535C10.8681 19.4146 10.8388 19.2802 10.845 19.145C10.8423 18.9696 10.8873 18.7968 10.975 18.645C11.0619 18.4959 11.186 18.3719 11.335 18.285C11.4875 18.1938 11.6582 18.1374 11.835 18.12V17.975C11.8321 17.935 11.8321 17.8949 11.835 17.855C11.8395 17.8287 11.8517 17.8043 11.87 17.785C11.8975 17.775 11.9275 17.775 11.955 17.785C12.01 17.785 12.045 17.785 12.06 17.835C12.0675 17.8897 12.0675 17.9452 12.06 18V18.145C12.2476 18.1505 12.4324 18.1912 12.605 18.265C12.6771 18.2865 12.7407 18.3297 12.7872 18.3888C12.8338 18.4479 12.8609 18.5199 12.865 18.595C12.8659 18.684 12.8358 18.7706 12.78 18.84C12.7519 18.8719 12.7173 18.8973 12.6784 18.9146C12.6396 18.9318 12.5975 18.9405 12.555 18.94C12.4722 18.9335 12.3911 18.9132 12.315 18.88C12.2327 18.8477 12.1472 18.8242 12.06 18.81V19.425C12.2392 19.4761 12.4146 19.5396 12.585 19.615C12.7307 19.6791 12.8567 19.7809 12.95 19.91C13.061 20.0693 13.1156 20.2611 13.105 20.455C13.1086 20.5935 13.0833 20.7313 13.0308 20.8595C12.9783 20.9878 12.8997 21.1037 12.8 21.2C12.6997 21.2904 12.5847 21.3631 12.46 21.415C12.3334 21.471 12.1981 21.5049 12.06 21.515V21.66C12.06 21.71 12.06 21.745 12.06 21.775C12.0568 21.8031 12.0445 21.8295 12.025 21.85C12.0016 21.8706 11.9712 21.8814 11.94 21.88C11.919 21.8824 11.8977 21.8785 11.879 21.8687C11.8603 21.8589 11.8449 21.8437 11.835 21.825C11.8259 21.7704 11.8259 21.7146 11.835 21.66V21.5C11.6837 21.494 11.5332 21.4756 11.385 21.445C11.2437 21.4195 11.1092 21.365 10.99 21.285C10.9458 21.2519 10.9102 21.2088 10.8858 21.1593C10.8615 21.1097 10.8492 21.0552 10.85 21C10.8481 20.9579 10.8546 20.9159 10.8692 20.8764C10.8838 20.8369 10.9062 20.8007 10.935 20.77C10.9627 20.7379 10.9973 20.7126 11.0364 20.6961C11.0754 20.6796 11.1177 20.6724 11.16 20.675C11.2735 20.684 11.3849 20.711 11.49 20.755C11.6088 20.7915 11.7312 20.815 11.855 20.825V20.825ZM11.855 19.325V18.78C11.7879 18.7976 11.7272 18.834 11.68 18.885C11.634 18.9335 11.6088 18.9981 11.61 19.065C11.6098 19.0912 11.615 19.1172 11.6254 19.1412C11.6357 19.1653 11.6509 19.187 11.67 19.205C11.7257 19.2496 11.7881 19.285 11.855 19.31V19.325ZM12.105 20.145V20.82C12.191 20.8035 12.2678 20.7553 12.32 20.685C12.3759 20.6195 12.4061 20.536 12.405 20.45C12.405 20.3 12.305 20.2 12.105 20.13V20.145Z" fill="#45413C"/>
</svg>
