<svg width="75" height="84" viewBox="0 0 75 84" fill="none" xmlns="http://www.w3.org/2000/svg">
<path d="M1 37.4835C1 47.1596 4.84552 56.4393 11.6906 63.2813C18.5357 70.1233 27.8196 73.967 37.5 73.967C47.1804 73.967 56.4643 70.1233 63.3094 63.2813C70.1545 56.4393 74 47.1596 74 37.4835C74 27.8075 70.1545 18.5278 63.3094 11.6858C56.4643 4.84379 47.1804 1 37.5 1C27.8196 1 18.5357 4.84379 11.6906 11.6858C4.84552 18.5278 1 27.8075 1 37.4835V37.4835Z" fill="#FFE500"/>
<path d="M37.5 1C30.281 1 23.2241 3.13972 17.2217 7.14858C11.2193 11.1574 6.54101 16.8554 3.77841 23.5219C1.01581 30.1884 0.292993 37.524 1.70135 44.6011C3.10971 51.6782 6.586 58.1789 11.6906 63.2813C16.7952 68.3836 23.2989 71.8583 30.3792 73.266C37.4595 74.6737 44.7985 73.9512 51.468 71.1899C58.1375 68.4285 63.838 63.7524 67.8486 57.7527C71.8593 51.753 74 44.6993 74 37.4835C74 27.8075 70.1545 18.5278 63.3094 11.6858C56.4643 4.84379 47.1804 1 37.5 1V1ZM37.5 68.4945C30.9127 68.4945 24.4732 66.542 18.9961 62.8839C13.5189 59.2258 9.24992 54.0265 6.72905 47.9433C4.20818 41.8601 3.54861 35.1664 4.83374 28.7085C6.11886 22.2506 9.29098 16.3187 13.9489 11.6629C18.6069 7.007 24.5415 3.83632 31.0023 2.55177C37.4631 1.26722 44.1598 1.9265 50.2458 4.44623C56.3317 6.96596 61.5334 11.233 65.1931 16.7077C68.8529 22.1824 70.8063 28.6189 70.8063 35.2033C70.8063 44.0327 67.2972 52.5004 61.0511 58.7437C54.8049 64.987 46.3334 68.4945 37.5 68.4945V68.4945Z" fill="#EBCB00"/>
<path d="M26.5498 8.29672C26.5498 9.02242 27.7035 9.7184 29.757 10.2316C31.8105 10.7447 34.5957 11.033 37.4998 11.033C40.4039 11.033 43.1891 10.7447 45.2426 10.2316C47.2961 9.7184 48.4498 9.02242 48.4498 8.29672C48.4498 7.57102 47.2961 6.87504 45.2426 6.36189C43.1891 5.84874 40.4039 5.56046 37.4998 5.56046C34.5957 5.56046 31.8105 5.84874 29.757 6.36189C27.7035 6.87504 26.5498 7.57102 26.5498 8.29672Z" fill="#FFF48C"/>
<path opacity="0.15" d="M8.30029 81.2637C8.30029 81.9894 11.3767 82.6854 16.8528 83.1986C22.3288 83.7117 29.756 84 37.5003 84C45.2446 84 52.6717 83.7117 58.1478 83.1986C63.6239 82.6854 66.7003 81.9894 66.7003 81.2637C66.7003 80.538 63.6239 79.842 58.1478 79.3289C52.6717 78.8157 45.2446 78.5275 37.5003 78.5275C29.756 78.5275 22.3288 78.8157 16.8528 79.3289C11.3767 79.842 8.30029 80.538 8.30029 81.2637V81.2637Z" fill="#45413C"/>
<path d="M1 37.4835C1 47.1596 4.84552 56.4393 11.6906 63.2813C18.5357 70.1233 27.8196 73.967 37.5 73.967C47.1804 73.967 56.4643 70.1233 63.3094 63.2813C70.1545 56.4393 74 47.1596 74 37.4835C74 27.8075 70.1545 18.5278 63.3094 11.6858C56.4643 4.84379 47.1804 1 37.5 1C27.8196 1 18.5357 4.84379 11.6906 11.6858C4.84552 18.5278 1 27.8075 1 37.4835V37.4835Z" stroke="#45413C" stroke-width="0.5" stroke-linecap="round" stroke-linejoin="round"/>
<path d="M27.4625 34.7473C27.4625 36.01 27.0879 37.2444 26.386 38.2944C25.6841 39.3443 24.6866 40.1626 23.5194 40.6459C22.3522 41.1291 21.0679 41.2555 19.8289 41.0092C18.5898 40.7628 17.4517 40.1548 16.5584 39.2619C15.6651 38.369 15.0567 37.2313 14.8102 35.9928C14.5638 34.7543 14.6903 33.4706 15.1737 32.304C15.6572 31.1373 16.4759 30.1402 17.5263 29.4386C18.5767 28.7371 19.8117 28.3626 21.075 28.3626C22.7691 28.3626 24.3938 29.0353 25.5916 30.2326C26.7895 31.43 27.4625 33.054 27.4625 34.7473V34.7473Z" fill="white" stroke="#45413C" stroke-width="0.5" stroke-linecap="round" stroke-linejoin="round"/>
<path d="M60.3126 34.7473C60.3126 36.01 59.938 37.2444 59.2361 38.2944C58.5342 39.3443 57.5367 40.1626 56.3695 40.6459C55.2023 41.1291 53.918 41.2555 52.679 41.0092C51.4399 40.7628 50.3018 40.1548 49.4085 39.2619C48.5151 38.369 47.9068 37.2313 47.6603 35.9928C47.4139 34.7543 47.5404 33.4706 48.0238 32.304C48.5073 31.1373 49.326 30.1402 50.3764 29.4386C51.4268 28.7371 52.6618 28.3626 53.9251 28.3626C55.6192 28.3626 57.2439 29.0353 58.4417 30.2326C59.6396 31.43 60.3126 33.054 60.3126 34.7473V34.7473Z" fill="white" stroke="#45413C" stroke-width="0.5" stroke-linecap="round" stroke-linejoin="round"/>
<path d="M40.2372 57.5495C40.2372 58.0906 40.0767 58.6197 39.7759 59.0697C39.4751 59.5196 39.0475 59.8703 38.5473 60.0774C38.0471 60.2845 37.4967 60.3387 36.9656 60.2331C36.4346 60.1276 35.9469 59.867 35.564 59.4843C35.1812 59.1016 34.9204 58.6141 34.8148 58.0833C34.7092 57.5525 34.7634 57.0023 34.9706 56.5023C35.1778 56.0024 35.5287 55.575 35.9788 55.2743C36.429 54.9737 36.9583 54.8132 37.4997 54.8132C38.2257 54.8132 38.922 55.1015 39.4354 55.6146C39.9488 56.1278 40.2372 56.8238 40.2372 57.5495Z" fill="#FFB0CA" stroke="#45413C" stroke-width="0.5" stroke-linecap="round" stroke-linejoin="round"/>
<path d="M64.875 46.6044C64.875 48.1185 62.831 49.3407 60.3125 49.3407C57.794 49.3407 55.75 48.1185 55.75 46.6044C55.75 45.0903 57.794 43.8681 60.3125 43.8681C62.831 43.8681 64.875 45.0903 64.875 46.6044Z" fill="#FFAA54"/>
<path d="M11.9502 46.6044C11.9502 48.1185 13.9942 49.3407 16.5127 49.3407C19.0312 49.3407 21.0752 48.1185 21.0752 46.6044C21.0752 45.0903 19.0312 43.8681 16.5127 43.8681C13.9942 43.8681 11.9502 45.0903 11.9502 46.6044Z" fill="#FFAA54"/>
</svg>
