<svg width="83" height="83" viewBox="0 0 83 83" fill="none" xmlns="http://www.w3.org/2000/svg">
<path opacity="0.15" d="M13.833 78.6771C13.833 79.365 16.7479 80.0247 21.9364 80.5111C27.1249 80.9976 34.162 81.2708 41.4997 81.2708C48.8373 81.2708 55.8745 80.9976 61.063 80.5111C66.2515 80.0247 69.1663 79.365 69.1663 78.6771C69.1663 77.9892 66.2515 77.3294 61.063 76.843C55.8745 76.3566 48.8373 76.0833 41.4997 76.0833C34.162 76.0833 27.1249 76.3566 21.9364 76.843C16.7479 77.3294 13.833 77.9892 13.833 78.6771Z" fill="#45413C"/>
<path d="M6.9165 37.1771C6.9165 46.3492 10.5601 55.1456 17.0457 61.6312C23.5314 68.1168 32.3278 71.7604 41.4998 71.7604C50.6719 71.7604 59.4683 68.1168 65.9539 61.6312C72.4396 55.1456 76.0832 46.3492 76.0832 37.1771C76.0832 28.005 72.4396 19.2086 65.9539 12.723C59.4683 6.23734 50.6719 2.59375 41.4998 2.59375C32.3278 2.59375 23.5314 6.23734 17.0457 12.723C10.5601 19.2086 6.9165 28.005 6.9165 37.1771Z" fill="#FFE500"/>
<path d="M41.4999 2.59375C34.6599 2.59375 27.9736 4.62203 22.2864 8.42209C16.5992 12.2222 12.1665 17.6233 9.54902 23.9426C6.93149 30.2619 6.24662 37.2154 7.58103 43.924C8.91543 50.6325 12.2092 56.7946 17.0457 61.6312C21.8823 66.4678 28.0445 69.7615 34.753 71.0959C41.4615 72.4303 48.415 71.7455 54.7343 69.1279C61.0536 66.5104 66.4548 62.0778 70.2548 56.3906C74.0549 50.7034 76.0832 44.017 76.0832 37.1771C76.0832 28.005 72.4396 19.2086 65.954 12.723C59.4683 6.23734 50.6719 2.59375 41.4999 2.59375ZM41.4999 66.5729C35.2584 66.5729 29.1571 64.7221 23.9676 61.2546C18.778 57.787 14.7332 52.8584 12.3447 47.0921C9.95622 41.3257 9.33128 34.9806 10.5489 28.8591C11.7666 22.7376 14.7721 17.1146 19.1855 12.7013C23.5988 8.28788 29.2218 5.28234 35.3433 4.0647C41.4648 2.84705 47.81 3.47199 53.5763 5.86049C59.3426 8.24899 64.2712 12.2938 67.7388 17.4833C71.2063 22.6729 73.0571 28.7742 73.0571 35.0156C73.0571 43.3851 69.7324 51.4119 63.8142 57.33C57.8961 63.2481 49.8694 66.5729 41.4999 66.5729Z" fill="#EBCB00"/>
<path d="M14.6046 24.943C15.091 25.4294 16.3304 25.123 18.0502 24.0912C19.7699 23.0593 21.8292 21.3865 23.7749 19.4408C25.7205 17.4951 27.3933 15.4359 28.4252 13.7162C29.457 11.9964 29.7635 10.757 29.277 10.2705C28.7906 9.78412 27.5512 10.0905 25.8314 11.1224C24.1117 12.1543 22.0524 13.827 20.1067 15.7727C18.161 17.7184 16.4883 19.7776 15.4564 21.4974C14.4246 23.2172 14.1181 24.4566 14.6046 24.943Z" fill="#FFF48C"/>
<path d="M6.9165 37.1771C6.9165 46.3492 10.5601 55.1456 17.0457 61.6312C23.5314 68.1168 32.3278 71.7604 41.4998 71.7604C50.6719 71.7604 59.4683 68.1168 65.9539 61.6312C72.4396 55.1456 76.0832 46.3492 76.0832 37.1771C76.0832 28.005 72.4396 19.2086 65.9539 12.723C59.4683 6.23734 50.6719 2.59375 41.4998 2.59375C32.3278 2.59375 23.5314 6.23734 17.0457 12.723C10.5601 19.2086 6.9165 28.005 6.9165 37.1771V37.1771Z" stroke="#45413C" stroke-width="0.5" stroke-linecap="round" stroke-linejoin="round"/>
<path d="M60.5208 16.9977C61.541 18.0179 60.9876 20.1967 59.2931 21.8913C57.5985 23.5858 55.3333 24.2083 54.3304 23.119C53.3274 22.0296 53.8808 19.92 55.5581 18.2254C57.2354 16.5308 59.4314 15.9948 60.5208 16.9977Z" fill="#FFAA54"/>
<path d="M61.6273 57.3046C52.1169 66.815 37.7129 68.1292 28.0815 60.7629C27.793 60.5187 27.5653 60.2107 27.4162 59.8634C27.2672 59.5161 27.201 59.1388 27.2228 58.7615C27.2446 58.3842 27.3538 58.0171 27.5419 57.6892C27.7299 57.3613 27.9916 57.0817 28.3062 56.8723C40.9276 47.6863 52.041 36.5904 61.2469 23.9835C61.4562 23.6689 61.7359 23.4072 62.0638 23.2192C62.3917 23.0311 62.7588 22.9219 63.1361 22.9001C63.5134 22.8783 63.8906 22.9445 64.238 23.0935C64.5853 23.2426 64.8933 23.4703 65.1375 23.7587C72.4519 33.3902 71.1377 47.7942 61.6273 57.3046Z" fill="#FFB0CA" stroke="#45413C" stroke-width="0.5" stroke-linecap="round" stroke-linejoin="round"/>
<path d="M53.431 49.1083C57.9921 44.29 63.6011 40.5862 69.8235 38.2837C69.619 45.4375 66.6858 52.242 61.6252 57.3025C56.5647 62.3631 49.7602 65.2963 42.6064 65.5008C44.9089 59.2784 48.6127 53.6694 53.431 49.1083Z" fill="#FF87AF" stroke="#45413C" stroke-width="0.5" stroke-linecap="round" stroke-linejoin="round"/>
<path d="M45.1139 12.1042L43.2291 18.0525C43.1306 18.3558 43.1179 18.6804 43.1923 18.9904C43.2668 19.3005 43.4255 19.5839 43.651 19.8094C43.8765 20.0348 44.1599 20.1936 44.4699 20.268C44.78 20.3425 45.1046 20.3297 45.4079 20.2312L51.3043 18.2773" stroke="#45413C" stroke-width="0.5" stroke-linecap="round" stroke-linejoin="round"/>
<path d="M21.3203 56.1287C22.3405 57.149 24.5192 56.5956 26.2138 54.901C27.9084 53.2065 28.4444 51.0277 27.4415 50.0075C26.4386 48.9873 24.208 49.5579 22.4788 51.2352C20.7496 52.9125 20.3173 55.1085 21.3203 56.1287Z" fill="#FFAA54"/>
<path d="M16.479 40.791L22.3755 38.8371C22.6787 38.7386 23.0033 38.7259 23.3134 38.8003C23.6234 38.8748 23.9069 39.0335 24.1323 39.259C24.3578 39.4844 24.5165 39.7679 24.591 40.0779C24.6654 40.388 24.6527 40.7126 24.5542 41.0158L22.6003 46.9123" stroke="#45413C" stroke-width="0.5" stroke-linecap="round" stroke-linejoin="round"/>
<path d="M28.3062 56.9242C34.6052 52.3249 40.5421 47.2494 46.0648 41.7421C51.5721 36.2194 56.6476 30.2825 61.2469 23.9835C61.4562 23.6689 61.7359 23.4072 62.0638 23.2192C62.3917 23.0311 62.7587 22.9219 63.1361 22.9001C63.5134 22.8783 63.8906 22.9445 64.238 23.0935C64.5853 23.2426 64.8933 23.4703 65.1375 23.7587C65.4833 24.2083 65.7946 24.6925 66.1058 25.1767C61.0963 32.2617 55.5279 38.9345 49.454 45.1312C43.2572 51.2052 36.5844 56.7736 29.4994 61.7831C29.0152 61.4719 28.531 61.1606 28.0815 60.8148C27.793 60.5706 27.5653 60.2626 27.4162 59.9153C27.2672 59.5679 27.201 59.1907 27.2228 58.8134C27.2446 58.436 27.3538 58.0689 27.5419 57.7411C27.7299 57.4132 27.9916 57.1335 28.3062 56.9242Z" fill="white" stroke="#45413C" stroke-width="0.5" stroke-linecap="round" stroke-linejoin="round"/>
</svg>
