<svg width="71" height="79" viewBox="0 0 71 79" fill="none" xmlns="http://www.w3.org/2000/svg">
<path d="M0.916504 34.9523C0.916504 44.1244 4.56009 52.9208 11.0457 59.4064C17.5314 65.892 26.3278 69.5356 35.4998 69.5356C44.6719 69.5356 53.4683 65.892 59.9539 59.4064C66.4396 52.9208 70.0832 44.1244 70.0832 34.9523C70.0832 25.7802 66.4396 16.9838 59.9539 10.4982C53.4683 4.01255 44.6719 0.368958 35.4998 0.368958C26.3278 0.368958 17.5314 4.01255 11.0457 10.4982C4.56009 16.9838 0.916504 25.7802 0.916504 34.9523V34.9523Z" fill="#FF6242"/>
<path d="M35.4999 0.368958C28.6599 0.368958 21.9736 2.39723 16.2864 6.1973C10.5992 9.99737 6.16655 15.3985 3.54902 21.7178C0.931488 28.0371 0.246623 34.9907 1.58103 41.6992C2.91543 48.4077 6.20918 54.5698 11.0457 59.4064C15.8823 64.243 22.0445 67.5367 28.753 68.8711C35.4615 70.2055 42.415 69.5207 48.7343 66.9031C55.0536 64.2856 60.4548 59.853 64.2548 54.1658C68.0549 48.4786 70.0832 41.7922 70.0832 34.9523C70.0832 25.7802 66.4396 16.9838 59.954 10.4982C53.4683 4.01255 44.6719 0.368958 35.4999 0.368958V0.368958ZM35.4999 64.3481C29.2584 64.3481 23.1571 62.4973 17.9676 59.0298C12.778 55.5622 8.73321 50.6336 6.34472 44.8673C3.95622 39.1009 3.33128 32.7558 4.54892 26.6343C5.76657 20.5128 8.77211 14.8898 13.1855 10.4765C17.5988 6.06309 23.2218 3.05755 29.3433 1.83991C35.4648 0.62226 41.81 1.2472 47.5763 3.6357C53.3426 6.02419 58.2712 10.069 61.7388 15.2585C65.2063 20.4481 67.0571 26.5494 67.0571 32.7908C67.0571 41.1603 63.7324 49.1871 57.8142 55.1052C51.8961 61.0233 43.8694 64.3481 35.4999 64.3481V64.3481Z" fill="#E04122"/>
<path d="M25.125 7.28562C25.125 7.97353 26.2181 8.63326 28.1638 9.11968C30.1095 9.6061 32.7484 9.87937 35.5 9.87937C38.2516 9.87937 40.8905 9.6061 42.8362 9.11968C44.7819 8.63326 45.875 7.97353 45.875 7.28562C45.875 6.59772 44.7819 5.93799 42.8362 5.45156C40.8905 4.96514 38.2516 4.69187 35.5 4.69187C32.7484 4.69187 30.1095 4.96514 28.1638 5.45156C26.2181 5.93799 25.125 6.59772 25.125 7.28562Z" fill="#FF866E"/>
<path opacity="0.15" d="M9.5625 76.0373C9.5625 76.7252 12.2952 77.3849 17.1594 77.8713C22.0236 78.3578 28.6209 78.631 35.5 78.631C42.3791 78.631 48.9764 78.3578 53.8406 77.8713C58.7048 77.3849 61.4375 76.7252 61.4375 76.0373C61.4375 75.3494 58.7048 74.6897 53.8406 74.2032C48.9764 73.7168 42.3791 73.4435 35.5 73.4435C28.6209 73.4435 22.0236 73.7168 17.1594 74.2032C12.2952 74.6897 9.5625 75.3494 9.5625 76.0373V76.0373Z" fill="#45413C"/>
<path d="M0.916504 34.9523C0.916504 44.1244 4.56009 52.9208 11.0457 59.4064C17.5314 65.892 26.3278 69.5356 35.4998 69.5356C44.6719 69.5356 53.4683 65.892 59.9539 59.4064C66.4396 52.9208 70.0832 44.1244 70.0832 34.9523C70.0832 25.7802 66.4396 16.9838 59.9539 10.4982C53.4683 4.01255 44.6719 0.368958 35.4998 0.368958C26.3278 0.368958 17.5314 4.01255 11.0457 10.4982C4.56009 16.9838 0.916504 25.7802 0.916504 34.9523V34.9523Z" stroke="#45413C" stroke-width="0.5" stroke-linecap="round" stroke-linejoin="round"/>
<path d="M62.3021 40.1398C62.3021 41.575 60.3654 42.7336 57.9792 42.7336C55.5929 42.7336 53.6562 41.575 53.6562 40.1398C53.6562 38.7046 55.5929 37.5461 57.9792 37.5461C60.3654 37.5461 62.3021 38.7046 62.3021 40.1398Z" fill="#E04122"/>
<path d="M8.69775 40.1398C8.69775 41.575 10.6344 42.7336 13.0207 42.7336C15.4069 42.7336 17.3436 41.575 17.3436 40.1398C17.3436 38.7046 15.4069 37.5461 13.0207 37.5461C10.6344 37.5461 8.69775 38.7046 8.69775 40.1398Z" fill="#E04122"/>
<path d="M19.0726 33.2231C19.0726 33.5651 18.9712 33.8994 18.7812 34.1838C18.5912 34.4682 18.3211 34.6898 18.0051 34.8207C17.6892 34.9515 17.3415 34.9858 17.0061 34.9191C16.6707 34.8523 16.3625 34.6877 16.1207 34.4458C15.8789 34.204 15.7142 33.8959 15.6475 33.5605C15.5808 33.225 15.615 32.8774 15.7459 32.5614C15.8768 32.2454 16.0984 31.9754 16.3828 31.7854C16.6671 31.5954 17.0014 31.494 17.3434 31.494C17.802 31.494 18.2418 31.6761 18.5661 32.0004C18.8904 32.3247 19.0726 32.7645 19.0726 33.2231Z" fill="#45413C" stroke="#45413C" stroke-width="0.5" stroke-linecap="round" stroke-linejoin="round"/>
<path d="M51.9268 33.2231C51.9268 33.5651 52.0282 33.8994 52.2182 34.1838C52.4082 34.4682 52.6782 34.6898 52.9942 34.8207C53.3102 34.9515 53.6578 34.9858 53.9933 34.9191C54.3287 34.8523 54.6368 34.6877 54.8786 34.4458C55.1205 34.204 55.2851 33.8959 55.3519 33.5605C55.4186 33.225 55.3843 32.8774 55.2535 32.5614C55.1226 32.2454 54.901 31.9754 54.6166 31.7854C54.3322 31.5954 53.9979 31.494 53.6559 31.494C53.1973 31.494 52.7575 31.6761 52.4332 32.0004C52.1089 32.3247 51.9268 32.7645 51.9268 33.2231Z" fill="#45413C" stroke="#45413C" stroke-width="0.5" stroke-linecap="round" stroke-linejoin="round"/>
<path d="M48.4688 29.7648C48.4688 29.7648 52.4285 22.8481 58.8437 26.3065" stroke="#45413C" stroke-width="0.5" stroke-linecap="round" stroke-linejoin="round"/>
<path d="M22.5312 29.7648C22.5312 29.7648 18.5715 22.8481 12.1562 26.3065" stroke="#45413C" stroke-width="0.5" stroke-linecap="round" stroke-linejoin="round"/>
<path d="M6.96875 44.4627H64.0312V64.3481H6.96875V44.4627Z" fill="white" stroke="#45413C" stroke-width="0.5" stroke-linecap="round" stroke-linejoin="round"/>
<path d="M17.845 53.5235L19.5742 55.4602C19.9556 54.9698 20.3842 54.5181 20.8538 54.1115C21.0463 53.9752 21.2812 53.9125 21.516 53.9347C21.7508 53.9569 21.9698 54.0626 22.1334 54.2325C22.2932 54.4409 22.3799 54.6961 22.3799 54.9587C22.3799 55.2214 22.2932 55.4766 22.1334 55.685C21.8123 56.1665 21.4414 56.6128 21.0267 57.0165L22.1679 58.296C22.2816 58.395 22.3728 58.5173 22.4352 58.6545C22.4977 58.7917 22.53 58.9407 22.53 59.0915C22.53 59.2422 22.4977 59.3912 22.4352 59.5284C22.3728 59.6656 22.2816 59.7879 22.1679 59.8869C22.0593 60.0087 21.9261 60.1062 21.7771 60.173C21.6281 60.2397 21.4666 60.2742 21.3034 60.2742C21.1401 60.2742 20.9787 60.2397 20.8297 60.173C20.6807 60.1062 20.5475 60.0087 20.4388 59.8869L19.2802 58.711C18.3169 59.6825 17.0166 60.2459 15.649 60.2846C15.14 60.3456 14.6239 60.2982 14.1346 60.1454C13.6453 59.9927 13.1938 59.738 12.81 59.3983C12.4261 59.0585 12.1185 58.6414 11.9075 58.1742C11.6964 57.7071 11.5867 57.2005 11.5854 56.6879C11.631 55.9177 11.8896 55.1752 12.3323 54.5432C12.775 53.9112 13.3844 53.4146 14.0927 53.1085C13.7634 52.8303 13.4951 52.487 13.3046 52.1002C13.1142 51.7133 13.0058 51.2913 12.9861 50.8606C12.9861 49.1315 14.7152 48.0767 16.4444 48.0767C18.1736 48.0767 19.9373 48.9585 19.9373 50.6358C19.8838 51.2618 19.6607 51.8614 19.2921 52.3702C18.9235 52.8789 18.4232 53.2777 17.845 53.5235V53.5235ZM17.845 57.0856L15.4415 54.4054C14.2484 55.1662 14.0236 55.806 14.0236 56.4285C14.0121 56.654 14.0498 56.8793 14.1342 57.0888C14.2185 57.2982 14.3474 57.4868 14.5119 57.6415C14.6764 57.7961 14.8726 57.9131 15.0869 57.9844C15.3012 58.0556 15.5284 58.0793 15.7527 58.054C16.1597 58.0625 16.5634 57.9799 16.9344 57.8124C17.3054 57.6449 17.6342 57.3966 17.8969 57.0856H17.845ZM17.6202 50.8779C17.6089 50.6184 17.5021 50.3723 17.3205 50.1866C17.1389 50.001 16.8952 49.8888 16.6361 49.8717C16.3769 49.8545 16.1205 49.9336 15.9161 50.0938C15.7116 50.2539 15.5734 50.4839 15.5279 50.7396C15.5279 51.3275 15.9775 51.7425 16.4098 52.1748C17.2744 51.7771 17.6721 51.3448 17.6721 50.8779H17.6202Z" fill="#FF6242"/>
<path d="M26.8539 57.8292V55.0625L25.6608 54.6821C25.0054 54.541 24.4201 54.175 24.0064 53.6476C23.5926 53.1201 23.3765 52.4645 23.3956 51.7944C23.4184 50.8661 23.7846 49.9793 24.4234 49.3053C25.0622 48.6314 25.9282 48.2183 26.8539 48.1458V47.6271C26.8539 47.1775 26.8539 46.8662 27.3035 46.8662C27.7531 46.8662 27.7531 46.8662 27.7531 47.6271V48.1458C28.4255 48.168 29.088 48.3146 29.707 48.5781C29.9681 48.654 30.1987 48.81 30.3663 49.0241C30.5338 49.2382 30.6298 49.4996 30.6408 49.7712C30.6525 49.9254 30.6329 50.0802 30.583 50.2265C30.5331 50.3728 30.454 50.5074 30.3505 50.6222C30.247 50.737 30.1213 50.8296 29.981 50.8944C29.8406 50.9591 29.6886 50.9947 29.5341 50.9989C29.1018 50.9989 28.2718 50.6012 27.8049 50.5494V52.7627C30.0183 53.4025 31.5572 54.0942 31.5572 56.4631C31.5772 57.2087 31.365 57.942 30.9499 58.5616C30.5347 59.1812 29.9373 59.6564 29.2402 59.9215C28.7851 60.121 28.3001 60.2437 27.8049 60.2846V60.8033C27.8049 61.2356 27.8049 61.5815 27.3554 61.5815C26.9058 61.5815 26.9058 61.5814 26.9058 60.8033V60.25C25.8452 60.27 24.7991 60.001 23.8797 59.4719C23.655 59.3452 23.4774 59.1491 23.3735 58.913C23.2696 58.6769 23.245 58.4135 23.3035 58.1622C23.3619 57.911 23.5002 57.6854 23.6976 57.5194C23.895 57.3533 24.1409 57.2557 24.3985 57.2412C24.9172 57.1894 26.2141 57.7427 26.8539 57.8292ZM26.8539 52.365V50.4802C26.6165 50.5258 26.4009 50.6491 26.2413 50.8307C26.0816 51.0122 25.9869 51.2418 25.972 51.4831C26.0066 51.9673 26.4389 52.1921 26.8539 52.365ZM27.7531 55.3392V57.76C28.061 57.6955 28.3368 57.5254 28.5325 57.2791C28.7283 57.0328 28.8318 56.7258 28.8252 56.4112C28.8597 55.9444 28.5831 55.5812 27.7877 55.3392H27.7531Z" fill="#FF6242"/>
<path d="M34.6353 60.25C34.2913 60.25 33.9614 60.1134 33.7182 59.8702C33.475 59.6269 33.3384 59.2971 33.3384 58.9531C33.3384 58.6092 33.475 58.2793 33.7182 58.0361C33.9614 57.7929 34.2913 57.6563 34.6353 57.6563C34.9792 57.6563 35.3091 57.7929 35.5523 58.0361C35.7955 58.2793 35.9321 58.6092 35.9321 58.9531C35.9277 59.2957 35.7896 59.623 35.5473 59.8652C35.3051 60.1075 34.9778 60.2455 34.6353 60.25V60.25ZM33.4421 55.564V49.166C33.4368 49.0103 33.4644 48.8551 33.5232 48.7107C33.5819 48.5664 33.6705 48.436 33.7832 48.3283C33.8958 48.2206 34.03 48.1378 34.1768 48.0855C34.3236 48.0332 34.4799 48.0125 34.6353 48.0248C34.7886 48.0177 34.9418 48.0421 35.0854 48.0965C35.229 48.1509 35.3599 48.2341 35.4701 48.341C35.5803 48.448 35.6674 48.5763 35.726 48.7182C35.7847 48.8601 35.8136 49.0125 35.8111 49.166V55.5467C35.776 55.8362 35.6362 56.1028 35.418 56.2962C35.1997 56.4896 34.9182 56.5964 34.6266 56.5964C34.335 56.5964 34.0535 56.4896 33.8353 56.2962C33.617 56.1028 33.4772 55.8362 33.4421 55.5467V55.564Z" fill="#FF6242"/>
<path d="M39.84 55.0625L40.1166 53.1777H38.6987C38.5833 53.1947 38.4655 53.1866 38.3534 53.154C38.2413 53.1214 38.1376 53.065 38.0493 52.9887C37.9609 52.9124 37.8901 52.818 37.8415 52.7118C37.7929 52.6057 37.7678 52.4904 37.7678 52.3736C37.7678 52.2569 37.7929 52.1416 37.8415 52.0354C37.8901 51.9293 37.9609 51.8349 38.0493 51.7586C38.1376 51.6823 38.2413 51.6259 38.3534 51.5933C38.4655 51.5607 38.5833 51.5526 38.6987 51.5696H40.3414L40.6873 48.924C40.6873 48.4052 40.9466 48.1285 41.5 48.1285C42.0533 48.1285 42.3127 48.6127 42.2262 49.2006L41.9323 51.6042H43.5231L43.8862 48.9412C43.8862 48.4052 44.1629 48.1458 44.7162 48.1458C45.2696 48.1458 45.5289 48.6127 45.4425 49.2179L45.1139 51.6042H46.5319C46.6473 51.5872 46.7651 51.5953 46.8772 51.6279C46.9893 51.6605 47.093 51.7169 47.1813 51.7932C47.2696 51.8695 47.3405 51.9639 47.3891 52.07C47.4377 52.1762 47.4628 52.2915 47.4628 52.4082C47.4628 52.5249 47.4377 52.6403 47.3891 52.7464C47.3405 52.8526 47.2696 52.947 47.1813 53.0233C47.093 53.0996 46.9893 53.1559 46.8772 53.1886C46.7651 53.2212 46.6473 53.2293 46.5319 53.2123H44.8891L44.6298 55.0625H46.0477C46.2586 55.0625 46.461 55.1463 46.6101 55.2955C46.7593 55.4446 46.8431 55.647 46.8431 55.8579C46.8431 56.0689 46.7593 56.2712 46.6101 56.4204C46.461 56.5695 46.2586 56.6533 46.0477 56.6533H44.3185L43.9554 59.3162C43.9554 59.8523 43.6787 60.1117 43.1254 60.1117C42.5721 60.1117 42.33 59.6621 42.3991 59.0569L42.7277 56.6533H41.206L40.8429 59.3162C40.8429 59.8523 40.5662 60.1117 40.0129 60.1117C39.4596 60.1117 39.2175 59.6275 39.2866 59.0569L39.6152 56.6533H38.1973C37.9863 56.6533 37.784 56.5695 37.6348 56.4204C37.4857 56.2712 37.4019 56.0689 37.4019 55.8579C37.4019 55.647 37.4857 55.4446 37.6348 55.2955C37.784 55.1463 37.9863 55.0625 38.1973 55.0625H39.84ZM41.7248 53.1777L41.4654 55.0625H43.0216L43.2983 53.1777H41.7248Z" fill="#FF6242"/>
<path d="M50.4053 53.3333C49.8707 53.3575 49.3411 53.2211 48.8847 52.9417C48.4283 52.6622 48.066 52.2526 47.8445 51.7654C47.6229 51.2783 47.5523 50.736 47.6416 50.2084C47.731 49.6808 47.9762 49.192 48.3458 48.8049C48.7153 48.4179 49.1923 48.1504 49.7152 48.0367C50.2381 47.9231 50.7831 47.9687 51.2799 48.1675C51.7768 48.3663 52.2027 48.7093 52.5029 49.1523C52.8031 49.5953 52.9639 50.118 52.9644 50.6531C52.976 50.9981 52.9185 51.3418 52.7955 51.6643C52.6725 51.9867 52.4864 52.2814 52.248 52.531C52.0097 52.7806 51.724 52.9801 51.4075 53.1179C51.0911 53.2557 50.7503 53.3289 50.4053 53.3333V53.3333ZM50.4053 51.6042C50.5289 51.6026 50.6508 51.5751 50.7631 51.5233C50.8754 51.4716 50.9755 51.3968 51.0571 51.3039C51.1386 51.211 51.1997 51.1019 51.2363 50.9838C51.273 50.8658 51.2844 50.7413 51.2698 50.6185C51.2817 50.4963 51.2684 50.3728 51.2308 50.2559C51.1931 50.139 51.1319 50.031 51.0508 49.9386C50.9698 49.8463 50.8707 49.7715 50.7597 49.7189C50.6487 49.6663 50.528 49.6371 50.4053 49.6329C50.2816 49.6345 50.1597 49.662 50.0474 49.7137C49.9351 49.7655 49.835 49.8402 49.7535 49.9332C49.6719 50.0261 49.6109 50.1352 49.5742 50.2532C49.5375 50.3713 49.5261 50.4958 49.5407 50.6185C49.5121 50.7477 49.513 50.8816 49.5433 51.0103C49.5735 51.1391 49.6323 51.2594 49.7153 51.3624C49.7983 51.4653 49.9035 51.5483 50.0229 51.6051C50.1423 51.6619 50.273 51.6911 50.4053 51.6906V51.6042ZM49.8173 58.711L55.2988 48.336C55.3404 48.2184 55.4086 48.1119 55.498 48.0249C55.5875 47.9378 55.6957 47.8725 55.8145 47.8341C55.9332 47.7956 56.0592 47.785 56.1826 47.8031C56.3061 47.8212 56.4238 47.8674 56.5265 47.9383C56.6406 47.9943 56.7418 48.0735 56.8237 48.1707C56.9056 48.2679 56.9663 48.3811 57.0021 48.5031C57.0379 48.625 57.0479 48.7531 57.0315 48.8791C57.0151 49.0052 56.9727 49.1264 56.9069 49.2352L51.339 59.6102C50.9759 60.129 50.5609 60.4229 49.9557 59.8696C49.8265 59.726 49.7441 59.5466 49.7194 59.3551C49.6947 59.1636 49.7288 58.9691 49.8173 58.7975V58.711ZM56.2498 60.25C55.7147 60.2777 55.1836 60.1443 54.725 59.8671C54.2664 59.5899 53.9015 59.1816 53.6773 58.6949C53.453 58.2083 53.3798 57.6656 53.4671 57.1369C53.5543 56.6082 53.7981 56.1178 54.1668 55.729C54.5355 55.3402 55.0123 55.0709 55.5356 54.9557C56.059 54.8406 56.6048 54.885 57.1026 55.0831C57.6005 55.2813 58.0275 55.6241 58.3286 56.0674C58.6297 56.5106 58.791 57.034 58.7917 57.5698C58.8032 57.9133 58.7464 58.2557 58.6244 58.577C58.5025 58.8983 58.3179 59.1922 58.0814 59.4416C57.8449 59.691 57.5612 59.8908 57.2468 60.0296C56.9323 60.1684 56.5935 60.2433 56.2498 60.25ZM56.2498 58.5208C56.4481 58.5454 56.6492 58.5091 56.8263 58.4167C57.0035 58.3244 57.1485 58.1804 57.2419 58.0038C57.3354 57.8273 57.373 57.6264 57.3498 57.428C57.3265 57.2296 57.2436 57.0429 57.1118 56.8927C56.9801 56.7425 56.8058 56.6359 56.6121 56.587C56.4183 56.5381 56.2143 56.5492 56.0271 56.6189C55.8399 56.6886 55.6782 56.8135 55.5636 56.9772C55.449 57.1408 55.3868 57.3354 55.3853 57.5352C55.3707 57.658 55.3821 57.7824 55.4188 57.9005C55.4554 58.0186 55.5165 58.1276 55.598 58.2206C55.6796 58.3135 55.7797 58.3883 55.892 58.44C56.0043 58.4917 56.1262 58.5193 56.2498 58.5208V58.5208Z" fill="#FF6242"/>
</svg>
