<svg width="83" height="83" viewBox="0 0 83 83" fill="none" xmlns="http://www.w3.org/2000/svg">
<path d="M13.5566 35.7246C13.5566 44.2821 16.9561 52.4892 23.0072 58.5403C29.0583 64.5914 37.2653 67.9908 45.8229 67.9908C54.3804 67.9908 62.5875 64.5914 68.6386 58.5403C74.6897 52.4892 78.0891 44.2821 78.0891 35.7246C78.0891 27.167 74.6897 18.96 68.6386 12.9089C62.5875 6.8578 54.3804 3.45833 45.8229 3.45833C37.2653 3.45833 29.0583 6.8578 23.0072 12.9089C16.9561 18.96 13.5566 27.167 13.5566 35.7246V35.7246Z" fill="#FFE500"/>
<path d="M45.8229 3.45833C39.4412 3.45833 33.2029 5.35071 27.8967 8.89618C22.5906 12.4416 18.4549 17.4809 16.0128 23.3768C13.5706 29.2727 12.9316 35.7604 14.1766 42.0194C15.4216 48.2785 18.4947 54.0278 23.0072 58.5403C27.5197 63.0528 33.269 66.1258 39.5281 67.3708C45.7871 68.6158 52.2748 67.9769 58.1707 65.5347C64.0666 63.0926 69.1059 58.9569 72.6513 53.6507C76.1968 48.3446 78.0892 42.1062 78.0892 35.7246C78.0914 31.4867 77.2584 27.2899 75.6377 23.3741C74.0169 19.4584 71.6403 15.9005 68.6437 12.9038C65.647 9.90718 62.0891 7.53055 58.1734 5.90983C54.2576 4.2891 50.0608 3.45606 45.8229 3.45833V3.45833ZM45.8229 63.1492C40.009 63.1492 34.3256 61.4251 29.4915 58.1951C24.6573 54.965 20.8896 50.374 18.6647 45.0026C16.4398 39.6312 15.8577 33.7207 16.9919 28.0185C18.1262 22.3163 20.9258 17.0784 25.0369 12.9673C29.148 8.85626 34.3858 6.05658 40.0881 4.92233C45.7903 3.78809 51.7008 4.37022 57.0722 6.59512C62.4436 8.82003 67.0346 12.5878 70.2646 17.4219C73.4947 22.256 75.2187 27.9394 75.2187 33.7533C75.2187 41.5496 72.1217 49.0265 66.6089 54.5393C61.0961 60.0521 53.6192 63.1492 45.8229 63.1492Z" fill="#EBCB00"/>
<path d="M36.1396 9.90812C36.1396 10.5502 37.1599 11.1659 38.9758 11.6199C40.7918 12.0739 43.2548 12.329 45.823 12.329C48.3912 12.329 50.8542 12.0739 52.6701 11.6199C54.4861 11.1659 55.5063 10.5502 55.5063 9.90812C55.5063 9.26608 54.4861 8.65033 52.6701 8.19634C50.8542 7.74234 48.3912 7.48729 45.823 7.48729C43.2548 7.48729 40.7918 7.74234 38.9758 8.19634C37.1599 8.65033 36.1396 9.26608 36.1396 9.90812Z" fill="#FFF48C"/>
<path d="M13.5914 68.1465C13.7574 67.4417 14.1175 66.7976 14.631 66.2872C15.1444 65.7768 15.7907 65.4205 16.4964 65.2588L22.3237 63.9792C22.4273 63.9524 22.5191 63.8921 22.5848 63.8076C22.6505 63.7232 22.6864 63.6193 22.6868 63.5123C22.6873 63.4031 22.6521 63.2966 22.5865 63.2093C22.521 63.1219 22.4287 63.0583 22.3237 63.0281L16.4964 61.6967C15.7894 61.5317 15.1426 61.1722 14.6292 60.6589C14.1158 60.1455 13.7564 59.4987 13.5914 58.7917L12.2427 52.9644C12.2146 52.8621 12.1537 52.7719 12.0693 52.7076C11.985 52.6433 11.8818 52.6084 11.7758 52.6084C11.6697 52.6084 11.5666 52.6433 11.4822 52.7076C11.3979 52.7719 11.337 52.8621 11.3089 52.9644L9.96016 58.7917C9.79522 59.4987 9.43573 60.1455 8.92236 60.6589C8.40898 61.1722 7.7622 61.5317 7.05516 61.6967L1.24516 63.0281C1.13695 63.055 1.04079 63.1173 0.971892 63.2049C0.902997 63.2926 0.865294 63.4008 0.864746 63.5123C0.866113 63.6216 0.904456 63.7273 0.973532 63.8121C1.04261 63.8968 1.13835 63.9557 1.24516 63.9792L7.05516 65.3279C7.76262 65.4859 8.41091 65.8409 8.925 66.3519C9.4391 66.863 9.79799 67.5091 9.96016 68.2156L11.3089 74.0429C11.337 74.1452 11.3979 74.2354 11.4822 74.2997C11.5666 74.364 11.6697 74.3988 11.7758 74.3988C11.8818 74.3988 11.985 74.364 12.0693 74.2997C12.1537 74.2354 12.2146 74.1452 12.2427 74.0429L13.5914 68.1465Z" fill="white" stroke="#45413C" stroke-width="0.5" stroke-linecap="round" stroke-linejoin="round"/>
<path d="M77.2941 10.375L81.8418 8.85333C81.9256 8.82507 81.9987 8.77178 82.0513 8.70067C82.1038 8.62955 82.1333 8.54402 82.1358 8.45562C82.1344 8.36486 82.1056 8.27664 82.0531 8.20257C82.0006 8.12849 81.927 8.07204 81.8418 8.04062L78.0895 6.91667C77.8393 6.82938 77.6125 6.68575 77.4266 6.49686C77.2407 6.30797 77.1007 6.07889 77.0174 5.82729L75.7724 2.09229C75.7534 1.99427 75.7023 1.90538 75.6271 1.83963C75.552 1.77388 75.4571 1.73502 75.3574 1.72917C75.269 1.7316 75.1835 1.76109 75.1124 1.81366C75.0413 1.86622 74.988 1.93933 74.9597 2.02312L73.7147 5.75812C73.6391 6.02431 73.5007 6.26846 73.3111 6.47006C73.1216 6.67166 72.8864 6.82481 72.6254 6.91667L68.8731 8.16167C68.7879 8.19308 68.7142 8.24953 68.6618 8.32361C68.6093 8.39768 68.5805 8.4859 68.5791 8.57667C68.5815 8.66507 68.611 8.75059 68.6636 8.82171C68.7162 8.89282 68.7893 8.94611 68.8731 8.97437L72.6254 10.1502C72.8788 10.2352 73.109 10.3779 73.2981 10.5669C73.4871 10.7559 73.6297 10.9862 73.7147 11.2396L74.9597 14.9919C74.988 15.0757 75.0413 15.1488 75.1124 15.2013C75.1835 15.2539 75.269 15.2834 75.3574 15.2858C75.4482 15.2845 75.5364 15.2556 75.6105 15.2032C75.6846 15.1507 75.741 15.077 75.7724 14.9919L77.2941 10.375Z" fill="white" stroke="#45413C" stroke-width="0.5" stroke-linecap="round" stroke-linejoin="round"/>
<path opacity="0.15" d="M19.2979 76.9652C19.2979 77.3058 19.9656 77.6431 21.263 77.9578C22.5604 78.2725 24.462 78.5584 26.8593 78.7993C29.2566 79.0401 32.1026 79.2312 35.2348 79.3615C38.367 79.4919 41.724 79.559 45.1143 79.559C48.5046 79.559 51.8616 79.4919 54.9938 79.3615C58.126 79.2312 60.972 79.0401 63.3693 78.7993C65.7666 78.5584 67.6682 78.2725 68.9656 77.9578C70.263 77.6431 70.9308 77.3058 70.9308 76.9652C70.9308 76.6246 70.263 76.2873 68.9656 75.9726C67.6682 75.6579 65.7666 75.372 63.3693 75.1311C60.972 74.8903 58.126 74.6992 54.9938 74.5689C51.8616 74.4385 48.5046 74.3715 45.1143 74.3715C41.724 74.3715 38.367 74.4385 35.2348 74.5689C32.1026 74.6992 29.2566 74.8903 26.8593 75.1311C24.462 75.372 22.5604 75.6579 21.263 75.9726C19.9656 76.2873 19.2979 76.6246 19.2979 76.9652V76.9652Z" fill="#45413C"/>
<path d="M13.5566 35.7246C13.5566 44.2821 16.9561 52.4892 23.0072 58.5403C29.0583 64.5914 37.2653 67.9908 45.8229 67.9908C54.3804 67.9908 62.5875 64.5914 68.6386 58.5403C74.6897 52.4892 78.0891 44.2821 78.0891 35.7246C78.0891 27.167 74.6897 18.96 68.6386 12.9089C62.5875 6.8578 54.3804 3.45833 45.8229 3.45833C37.2653 3.45833 29.0583 6.8578 23.0072 12.9089C16.9561 18.96 13.5566 27.167 13.5566 35.7246V35.7246Z" stroke="#45413C" stroke-width="0.5" stroke-linecap="round" stroke-linejoin="round"/>
<path d="M53.8983 48.6069C51.5086 50.1972 48.7022 51.0457 45.8317 51.0457C42.9612 51.0457 40.1548 50.1972 37.7651 48.6069" stroke="#45413C" stroke-width="0.5" stroke-linecap="round"/>
<path d="M69.167 43.7825C69.167 45.1312 67.3514 46.2033 65.138 46.2033C62.9247 46.2033 61.0918 45.1312 61.0918 43.7825C61.0918 42.4337 62.821 41.3617 65.138 41.3617C67.4551 41.3617 69.167 42.451 69.167 43.7825Z" fill="#FFAA54"/>
<path d="M22.4795 43.7825C22.4795 45.1312 24.2087 46.2033 26.5085 46.2033C28.8082 46.2033 30.5547 45.1312 30.5547 43.7825C30.5547 42.4337 28.7391 41.3617 26.5085 41.3617C24.2778 41.3617 22.4795 42.451 22.4795 43.7825Z" fill="#FFAA54"/>
<path d="M68.9422 41.3617H59.5529C57.3457 41.3668 55.2086 40.5869 53.5234 39.1615C51.8382 37.7361 50.7147 35.7579 50.3537 33.5804L49.0568 25.8165C48.9469 25.1537 48.9819 24.4751 49.1592 23.8272C49.3366 23.1792 49.6522 22.5774 50.0844 22.0631C50.5166 21.5488 51.055 21.1342 51.6626 20.8478C52.2703 20.5615 52.9328 20.4101 53.6045 20.4042H74.3545C75.0118 20.4022 75.6619 20.5396 76.2622 20.8072C76.8625 21.0748 77.3992 21.4666 77.8371 21.9567C78.275 22.4469 78.604 23.0242 78.8025 23.6508C79.001 24.2773 79.0644 24.9388 78.9887 25.5917L78.1587 33.0962C77.8969 35.3618 76.815 37.4532 75.1171 38.9759C73.4192 40.4985 71.2228 41.3472 68.9422 41.3617V41.3617Z" fill="#656769"/>
<path d="M50.3533 33.5804C50.5667 34.8347 51.0361 36.0317 51.7322 37.0967C52.4284 38.1617 53.3363 39.072 54.3995 39.7708L73.7835 20.4042H53.6041C52.928 20.4026 52.2597 20.5485 51.6457 20.8316C51.0317 21.1147 50.4868 21.5282 50.0489 22.0434C49.6111 22.5586 49.2908 23.1631 49.1105 23.8147C48.9301 24.4663 48.8939 25.1494 49.0045 25.8165L50.3533 33.5804Z" fill="#87898C"/>
<path d="M68.9422 41.3617H59.5529C57.3457 41.3668 55.2086 40.5869 53.5234 39.1615C51.8382 37.7361 50.7147 35.7579 50.3537 33.5804L49.0568 25.8165C48.9469 25.1537 48.9819 24.4751 49.1592 23.8272C49.3366 23.1792 49.6522 22.5774 50.0844 22.0631C50.5166 21.5488 51.055 21.1342 51.6626 20.8478C52.2703 20.5615 52.9328 20.4101 53.6045 20.4042H74.3545C75.0118 20.4022 75.6619 20.5396 76.2622 20.8072C76.8625 21.0748 77.3992 21.4666 77.8371 21.9567C78.275 22.4469 78.604 23.0242 78.8025 23.6508C79.001 24.2773 79.0644 24.9388 78.9887 25.5917L78.1587 33.0962C77.8969 35.3618 76.815 37.4532 75.1171 38.9759C73.4192 40.4985 71.2228 41.3472 68.9422 41.3617V41.3617Z" stroke="#45413C" stroke-width="0.5" stroke-linecap="round" stroke-linejoin="round"/>
<path d="M22.7043 41.3617H32.0936C34.3008 41.3668 36.438 40.5869 38.1231 39.1615C39.8083 37.7361 40.9318 35.7579 41.2928 33.5804L42.5897 25.8165C42.6996 25.1537 42.6647 24.4751 42.4873 23.8272C42.3099 23.1792 41.9943 22.5774 41.5621 22.0631C41.13 21.5488 40.5915 21.1342 39.9839 20.8478C39.3762 20.5615 38.7137 20.4101 38.042 20.4042H17.292C16.6356 20.405 15.9867 20.5442 15.3878 20.8127C14.7888 21.0812 14.2532 21.473 13.8159 21.9625C13.3786 22.452 13.0494 23.0283 12.8499 23.6536C12.6503 24.2789 12.5849 24.9393 12.6578 25.5917L13.5051 33.0962C13.7593 35.3618 14.8366 37.4552 16.5324 38.9788C18.2282 40.5025 20.4245 41.3505 22.7043 41.3617V41.3617Z" fill="#656769"/>
<path d="M13.4359 33.079C13.6104 34.5906 14.1524 36.0365 15.0144 37.2904C15.8765 38.5443 17.0325 39.5681 18.3814 40.2723L38.2322 20.4215H17.292C16.6356 20.4223 15.9867 20.5615 15.3878 20.83C14.7888 21.0985 14.2532 21.4903 13.8159 21.9798C13.3786 22.4693 13.0494 23.0456 12.8499 23.6709C12.6503 24.2962 12.5849 24.9566 12.6578 25.609L13.4359 33.079Z" fill="#87898C"/>
<path d="M22.7043 41.3617H32.0936C34.3008 41.3668 36.438 40.5869 38.1231 39.1615C39.8083 37.7361 40.9318 35.7579 41.2928 33.5804L42.5897 25.8165C42.6996 25.1537 42.6647 24.4751 42.4873 23.8272C42.3099 23.1792 41.9943 22.5774 41.5621 22.0631C41.13 21.5488 40.5915 21.1342 39.9839 20.8478C39.3762 20.5615 38.7137 20.4101 38.042 20.4042H17.292C16.6356 20.405 15.9867 20.5442 15.3878 20.8127C14.7888 21.0812 14.2532 21.473 13.8159 21.9625C13.3786 22.452 13.0494 23.0283 12.8499 23.6536C12.6503 24.2789 12.5849 24.9393 12.6578 25.5917L13.5051 33.0962C13.7593 35.3618 14.8366 37.4552 16.5324 38.9788C18.2282 40.5025 20.4245 41.3505 22.7043 41.3617V41.3617Z" stroke="#45413C" stroke-width="0.5" stroke-linecap="round" stroke-linejoin="round"/>
<path d="M50.6303 21.5454C49.1392 20.7944 47.4928 20.4032 45.8232 20.4032C44.1536 20.4032 42.5072 20.7944 41.0161 21.5454" stroke="#45413C" stroke-width="0.5" stroke-linecap="round" stroke-linejoin="round"/>
</svg>
