<svg width="83" height="83" viewBox="0 0 83 83" fill="none" xmlns="http://www.w3.org/2000/svg">
<path d="M6.9165 37.1772C6.9165 46.3492 10.5601 55.1456 17.0457 61.6313C23.5314 68.1169 32.3278 71.7605 41.4998 71.7605C50.6719 71.7605 59.4683 68.1169 65.9539 61.6313C72.4396 55.1456 76.0832 46.3492 76.0832 37.1772C76.0832 28.0051 72.4396 19.2087 65.9539 12.7231C59.4683 6.23742 50.6719 2.59383 41.4998 2.59383C32.3278 2.59383 23.5314 6.23742 17.0457 12.7231C10.5601 19.2087 6.9165 28.0051 6.9165 37.1772V37.1772Z" fill="#FFE500"/>
<path d="M41.4999 2.59383C34.6599 2.59383 27.9736 4.6221 22.2864 8.42217C16.5992 12.2222 12.1665 17.6234 9.54902 23.9427C6.93149 30.262 6.24662 37.2155 7.58103 43.924C8.91543 50.6325 12.2092 56.7947 17.0457 61.6313C21.8823 66.4678 28.0445 69.7616 34.753 71.096C41.4615 72.4304 48.415 71.7455 54.7343 69.128C61.0536 66.5105 66.4548 62.0778 70.2548 56.3906C74.0549 50.7034 76.0832 44.0171 76.0832 37.1772C76.0832 28.0051 72.4396 19.2087 65.954 12.723C59.4683 6.23742 50.6719 2.59383 41.4999 2.59383V2.59383ZM41.4999 66.573C35.2584 66.573 29.1571 64.7222 23.9676 61.2546C18.778 57.7871 14.7332 52.8585 12.3447 47.0922C9.95622 41.3258 9.33128 34.9807 10.5489 28.8592C11.7666 22.7377 14.7721 17.1147 19.1855 12.7013C23.5988 8.28796 29.2218 5.28242 35.3433 4.06477C41.4648 2.84713 47.81 3.47207 53.5763 5.86057C59.3426 8.24906 64.2712 12.2938 67.7388 17.4834C71.2063 22.673 73.0571 28.7743 73.0571 35.0157C73.0571 43.3852 69.7324 51.4119 63.8142 57.3301C57.8961 63.2482 49.8694 66.573 41.4999 66.573V66.573Z" fill="#EBCB00"/>
<path d="M31.125 9.51049C31.125 10.1984 32.2181 10.8581 34.1638 11.3446C36.1095 11.831 38.7484 12.1042 41.5 12.1042C44.2516 12.1042 46.8905 11.831 48.8362 11.3446C50.7819 10.8581 51.875 10.1984 51.875 9.51049C51.875 8.82259 50.7819 8.16286 48.8362 7.67644C46.8905 7.19001 44.2516 6.91674 41.5 6.91674C38.7484 6.91674 36.1095 7.19001 34.1638 7.67644C32.2181 8.16286 31.125 8.82259 31.125 9.51049Z" fill="#FFF48C"/>
<path d="M6.9165 37.1772C6.9165 46.3492 10.5601 55.1456 17.0457 61.6313C23.5314 68.1169 32.3278 71.7605 41.4998 71.7605C50.6719 71.7605 59.4683 68.1169 65.9539 61.6313C72.4396 55.1456 76.0832 46.3492 76.0832 37.1772C76.0832 28.0051 72.4396 19.2087 65.9539 12.7231C59.4683 6.23742 50.6719 2.59383 41.4998 2.59383C32.3278 2.59383 23.5314 6.23742 17.0457 12.7231C10.5601 19.2087 6.9165 28.0051 6.9165 37.1772V37.1772Z" stroke="#45413C" stroke-width="0.5" stroke-linecap="round" stroke-linejoin="round"/>
<path d="M18.3115 40.1686C18.3115 40.8565 18.767 41.5163 19.5777 42.0027C20.3884 42.4891 21.4879 42.7624 22.6344 42.7624C23.7809 42.7624 24.8805 42.4891 25.6912 42.0027C26.5019 41.5163 26.9574 40.8565 26.9574 40.1686C26.9574 39.4807 26.5019 38.821 25.6912 38.3346C24.8805 37.8481 23.7809 37.5749 22.6344 37.5749C21.4879 37.5749 20.3884 37.8481 19.5777 38.3346C18.767 38.821 18.3115 39.4807 18.3115 40.1686V40.1686Z" fill="#FFAA54"/>
<path d="M56.042 40.1686C56.042 40.8565 56.4974 41.5163 57.3081 42.0027C58.1189 42.4891 59.2184 42.7624 60.3649 42.7624C61.5114 42.7624 62.611 42.4891 63.4217 42.0027C64.2324 41.5163 64.6878 40.8565 64.6878 40.1686C64.6878 39.4807 64.2324 38.821 63.4217 38.3346C62.611 37.8481 61.5114 37.5749 60.3649 37.5749C59.2184 37.5749 58.1189 37.8481 57.3081 38.3346C56.4974 38.821 56.042 39.4807 56.042 40.1686Z" fill="#FFAA54"/>
<path d="M27.1994 48.4167C26.9539 48.4171 26.7113 48.4696 26.4877 48.571C26.2641 48.6724 26.0646 48.8202 25.9026 49.0047C25.7394 49.1862 25.6165 49.4003 25.542 49.6327C25.4675 49.8652 25.443 50.1108 25.4703 50.3534C25.9519 54.2654 27.8476 57.8663 30.8001 60.4775C33.7526 63.0888 37.5581 64.5302 41.4996 64.5302C45.4412 64.5302 49.2467 63.0888 52.1992 60.4775C55.1517 57.8663 57.0474 54.2654 57.529 50.3534C57.5562 50.1108 57.5318 49.8652 57.4573 49.6327C57.3828 49.4003 57.2599 49.1862 57.0967 49.0047C56.9347 48.8202 56.7352 48.6724 56.5116 48.571C56.288 48.4696 56.0454 48.4171 55.7998 48.4167H27.1994Z" fill="#FFB0CA" stroke="#45413C" stroke-width="0.5" stroke-linecap="round" stroke-linejoin="round"/>
<path d="M54.2263 58.3249C50.3091 56.2574 45.9277 55.2275 41.4996 55.3334C37.0716 55.2275 32.6902 56.2574 28.7729 58.3249C30.2795 60.2641 32.2093 61.8335 34.415 62.913C36.6207 63.9925 39.0439 64.5537 41.4996 64.5537C43.9553 64.5537 46.3785 63.9925 48.5842 62.913C50.7899 61.8335 52.7197 60.2641 54.2263 58.3249V58.3249Z" fill="#FF87AF" stroke="#45413C" stroke-width="0.5" stroke-linecap="round" stroke-linejoin="round"/>
<path d="M54.5031 55.7311C54.58 55.5858 54.7028 55.47 54.8525 55.4019C55.0021 55.3338 55.1701 55.3172 55.3302 55.3548C55.4903 55.3923 55.6334 55.4819 55.7372 55.6094C55.841 55.7369 55.8995 55.8953 55.9037 56.0597V71.9507C55.8482 72.6579 55.5281 73.3181 55.0073 73.7996C54.4864 74.2812 53.8032 74.5486 53.0938 74.5486C52.3845 74.5486 51.7012 74.2812 51.1804 73.7996C50.6596 73.3181 50.3395 72.6579 50.2839 71.9507V63.3049C50.2696 61.6773 50.8898 60.1081 52.0131 58.9301C52.997 57.993 53.8362 56.9149 54.5031 55.7311Z" fill="#4AEFF7" stroke="#45413C" stroke-width="0.5" stroke-linecap="round" stroke-linejoin="round"/>
<path opacity="0.15" d="M13.833 78.6772C13.833 79.3651 16.7479 80.0248 21.9364 80.5112C27.1249 80.9976 34.162 81.2709 41.4997 81.2709C48.8373 81.2709 55.8745 80.9976 61.063 80.5112C66.2515 80.0248 69.1663 79.3651 69.1663 78.6772C69.1663 77.9892 66.2515 77.3295 61.063 76.8431C55.8745 76.3567 48.8373 76.0834 41.4997 76.0834C34.162 76.0834 27.1249 76.3567 21.9364 76.8431C16.7479 77.3295 13.833 77.9892 13.833 78.6772V78.6772Z" fill="#45413C"/>
<path d="M65.1548 27.3555C64.7418 28.2928 64.1425 29.1363 63.3934 29.8349C62.6443 30.5334 61.7611 31.0724 60.7973 31.419L50.4223 34.8774L46.1166 24.779C45.7312 23.8274 45.5461 22.8064 45.5729 21.78C45.5996 20.7536 45.8377 19.7437 46.2723 18.8134C46.6343 18.0168 47.1701 17.3114 47.8404 16.7489C48.5106 16.1863 49.2983 15.781 50.1456 15.5626C51.2996 15.2955 52.5122 15.4821 53.5325 16.084C54.5527 16.6859 55.3026 17.6569 55.6271 18.7961L56.4398 21.4072L58.9125 20.2832C59.9767 19.7654 61.1995 19.6777 62.3267 20.0384C63.4539 20.3991 64.3987 21.1804 64.9646 22.2199C65.3867 23.0044 65.6234 23.8753 65.6564 24.7656C65.6894 25.6559 65.5178 26.5419 65.1548 27.3555V27.3555Z" fill="#FF6242"/>
<path d="M48.0707 20.2832C49.2319 20.0056 50.4556 20.1868 51.4864 20.7893C52.5173 21.3917 53.2759 22.3687 53.604 23.5167L54.3994 26.1278L56.8894 25.0038C57.9544 24.4904 59.1757 24.405 60.3017 24.7653C61.4277 25.1257 62.3725 25.9042 62.9415 26.9405C63.386 27.7748 63.6065 28.7102 63.5813 29.6553C64.2582 28.9937 64.809 28.2144 65.2067 27.3555C65.5886 26.5402 65.7765 25.6476 65.7555 24.7475C65.7345 23.8475 65.5052 22.9646 65.0857 22.168C64.5198 21.1286 63.575 20.3473 62.4478 19.9866C61.3206 19.6259 60.0978 19.7135 59.0336 20.2313L56.5609 21.3553L55.7482 18.7442C55.4132 17.5883 54.6402 16.6089 53.5937 16.0146C52.5472 15.4203 51.31 15.2581 50.1457 15.5626C49.262 15.7909 48.4438 16.2225 47.7563 16.8229C47.0689 17.4233 46.5311 18.176 46.1859 19.0209C45.801 19.8957 45.5784 20.8332 45.5288 21.7876C46.2202 21.0601 47.1003 20.5393 48.0707 20.2832V20.2832Z" fill="#FF866E"/>
<path d="M65.1548 27.3555C64.7418 28.2928 64.1425 29.1363 63.3934 29.8349C62.6443 30.5334 61.7611 31.0724 60.7973 31.419L50.4223 34.8774L46.1166 24.779C45.7312 23.8274 45.5461 22.8064 45.5729 21.78C45.5996 20.7536 45.8377 19.7437 46.2723 18.8134C46.6343 18.0168 47.1701 17.3114 47.8404 16.7489C48.5106 16.1863 49.2983 15.781 50.1456 15.5626C51.2996 15.2955 52.5122 15.4821 53.5325 16.084C54.5527 16.6859 55.3026 17.6569 55.6271 18.7961L56.4398 21.4072L58.9125 20.2832C59.9767 19.7654 61.1995 19.6777 62.3267 20.0384C63.4539 20.3991 64.3987 21.1804 64.9646 22.2199C65.3867 23.0044 65.6234 23.8753 65.6564 24.7656C65.6894 25.6559 65.5178 26.5419 65.1548 27.3555V27.3555Z" stroke="#45413C" stroke-width="0.5" stroke-linecap="round" stroke-linejoin="round"/>
<path d="M10.8934 13.8334C11.8843 12.311 13.4242 11.2294 15.1925 10.8139C16.9609 10.3984 18.8213 10.681 20.3865 11.6028L24.0351 13.6605L25.5913 9.78716C26.2251 8.08667 27.4897 6.69579 29.1224 5.90359C30.7551 5.11139 32.6303 4.97882 34.3582 5.53341C35.6731 5.97054 36.8684 6.70734 37.8497 7.68564C38.831 8.66393 39.5714 9.85695 40.0126 11.1705C40.5533 12.6436 40.7878 14.2117 40.7016 15.7786C40.6153 17.3455 40.2103 18.8783 39.5111 20.2832L31.6953 35.1886L16.2192 28.5659C14.7908 27.919 13.5096 26.9871 12.454 25.8275C11.3985 24.6679 10.5909 23.3049 10.0807 21.8222C9.57972 20.5202 9.39224 19.1186 9.53343 17.7308C9.67462 16.3429 10.1405 15.0078 10.8934 13.8334V13.8334Z" fill="#FF6242"/>
<path d="M13.6082 21.4763C14.5991 19.9539 16.139 18.8723 17.9073 18.4568C19.6757 18.0413 21.5361 18.3239 23.1013 19.2457L26.7499 21.2688L28.3061 17.3955C28.9365 15.6918 30.1998 14.297 31.8328 13.5014C33.4659 12.7058 35.3429 12.5708 37.073 13.1245C38.451 13.575 39.6897 14.373 40.6697 15.4415C40.7086 13.99 40.486 12.5432 40.0126 11.1705C39.5714 9.85695 38.831 8.66393 37.8497 7.68564C36.8684 6.70734 35.6731 5.97054 34.3582 5.53341C32.6303 4.97882 30.7551 5.11139 29.1224 5.90359C27.4897 6.69579 26.2251 8.08667 25.5913 9.78716L24.0351 13.6605L20.3865 11.6374C18.8254 10.7123 16.9679 10.4243 15.2 10.8333C13.4321 11.2423 11.8897 12.3167 10.8934 13.8334C10.1461 15.0036 9.68326 16.3326 9.54213 17.7139C9.40099 19.0953 9.58545 20.4904 10.0807 21.7876C10.574 23.174 11.3184 24.4577 12.2768 25.5745C12.3403 24.1129 12.8006 22.6962 13.6082 21.4763Z" fill="#FF866E"/>
<path d="M10.8934 13.8334C11.8843 12.311 13.4242 11.2294 15.1925 10.8139C16.9609 10.3984 18.8213 10.681 20.3865 11.6028L24.0351 13.6605L25.5913 9.78716C26.2251 8.08667 27.4897 6.69579 29.1224 5.90359C30.7551 5.11139 32.6303 4.97882 34.3582 5.53341C35.6731 5.97054 36.8684 6.70734 37.8497 7.68564C38.831 8.66393 39.5714 9.85695 40.0126 11.1705C40.5533 12.6436 40.7878 14.2117 40.7016 15.7786C40.6153 17.3455 40.2103 18.8783 39.5111 20.2832L31.6953 35.1886L16.2192 28.5659C14.7908 27.919 13.5096 26.9871 12.454 25.8275C11.3985 24.6679 10.5909 23.3049 10.0807 21.8222C9.57972 20.5202 9.39224 19.1186 9.53343 17.7308C9.67462 16.3429 10.1405 15.0078 10.8934 13.8334V13.8334Z" stroke="#45413C" stroke-width="0.5" stroke-linecap="round" stroke-linejoin="round"/>
</svg>
