<svg width="24" height="24" viewBox="0 0 24 24" fill="none" xmlns="http://www.w3.org/2000/svg">
<path d="M2 10.75C2 13.4022 3.05357 15.9457 4.92893 17.8211C6.8043 19.6964 9.34784 20.75 12 20.75C14.6522 20.75 17.1957 19.6964 19.0711 17.8211C20.9464 15.9457 22 13.4022 22 10.75C22 8.09784 20.9464 5.5543 19.0711 3.67893C17.1957 1.80357 14.6522 0.75 12 0.75C9.34784 0.75 6.8043 1.80357 4.92893 3.67893C3.05357 5.5543 2 8.09784 2 10.75V10.75Z" fill="#FFE500"/>
<path d="M12 0.75C10.0222 0.75 8.08879 1.33649 6.4443 2.4353C4.79981 3.53412 3.51808 5.0959 2.76121 6.92317C2.00433 8.75043 1.8063 10.7611 2.19215 12.7009C2.578 14.6407 3.53041 16.4225 4.92893 17.8211C6.32746 19.2196 8.10929 20.172 10.0491 20.5579C11.9889 20.9437 13.9996 20.7457 15.8268 19.9888C17.6541 19.2319 19.2159 17.9502 20.3147 16.3057C21.4135 14.6612 22 12.7278 22 10.75C22 8.09784 20.9464 5.5543 19.0711 3.67893C17.1957 1.80357 14.6522 0.75 12 0.75V0.75ZM12 19.25C10.1952 19.25 8.43102 18.7148 6.93042 17.7122C5.42982 16.7095 4.26025 15.2844 3.5696 13.617C2.87895 11.9496 2.69824 10.1149 3.05033 8.3448C3.40242 6.57472 4.2715 4.9488 5.54765 3.67265C6.82381 2.3965 8.44973 1.52742 10.2198 1.17533C11.9899 0.823244 13.8246 1.00395 15.492 1.6946C17.1594 2.38525 18.5845 3.55482 19.5872 5.05542C20.5898 6.55602 21.125 8.32025 21.125 10.125C21.125 12.5451 20.1636 14.8661 18.4523 16.5773C16.7411 18.2886 14.4201 19.25 12 19.25V19.25Z" fill="#EBCB00"/>
<path d="M2 10.75C2 13.4022 3.05357 15.9457 4.92893 17.8211C6.8043 19.6964 9.34784 20.75 12 20.75C14.6522 20.75 17.1957 19.6964 19.0711 17.8211C20.9464 15.9457 22 13.4022 22 10.75C22 8.09784 20.9464 5.5543 19.0711 3.67893C17.1957 1.80357 14.6522 0.75 12 0.75C9.34784 0.75 6.8043 1.80357 4.92893 3.67893C3.05357 5.5543 2 8.09784 2 10.75V10.75Z" stroke="#45413C" stroke-width="0.2" stroke-linecap="round" stroke-linejoin="round"/>
<path d="M9 2.75C9 2.94891 9.31607 3.13968 9.87868 3.28033C10.4413 3.42098 11.2044 3.5 12 3.5C12.7956 3.5 13.5587 3.42098 14.1213 3.28033C14.6839 3.13968 15 2.94891 15 2.75C15 2.55109 14.6839 2.36032 14.1213 2.21967C13.5587 2.07902 12.7956 2 12 2C11.2044 2 10.4413 2.07902 9.87868 2.21967C9.31607 2.36032 9 2.55109 9 2.75Z" fill="#FFF48C"/>
<path d="M8.97 14.605C8.90245 14.6054 8.83577 14.6203 8.7745 14.6488C8.71324 14.6772 8.65884 14.7186 8.615 14.77C8.57178 14.8225 8.53973 14.8833 8.52082 14.9486C8.50191 15.014 8.49652 15.0825 8.505 15.15C8.62454 15.9931 9.04442 16.7648 9.68745 17.3231C10.3305 17.8814 11.1534 18.1888 12.005 18.1888C12.8566 18.1888 13.6795 17.8814 14.3226 17.3231C14.9656 16.7648 15.3855 15.9931 15.505 15.15C15.5135 15.0825 15.5081 15.014 15.4892 14.9486C15.4703 14.8833 15.4382 14.8225 15.395 14.77C15.3512 14.7186 15.2968 14.6772 15.2355 14.6488C15.1742 14.6203 15.1076 14.6054 15.04 14.605H8.97Z" fill="#FFB0CA" stroke="#45413C" stroke-width="0.2" stroke-linecap="round" stroke-linejoin="round"/>
<path d="M14.785 16.78C13.929 16.3238 12.9697 16.0964 12 16.12C11.0303 16.0964 10.071 16.3238 9.215 16.78C9.54155 17.209 9.9628 17.5568 10.4459 17.7962C10.929 18.0356 11.4608 18.1602 12 18.1602C12.5392 18.1602 13.071 18.0356 13.5541 17.7962C14.0372 17.5568 14.4584 17.209 14.785 16.78V16.78Z" fill="#FF87AF" stroke="#45413C" stroke-width="0.2" stroke-linecap="round" stroke-linejoin="round"/>
<path d="M10.375 11.71C10.412 11.7034 10.4454 11.684 10.4695 11.6552C10.4936 11.6264 10.5068 11.59 10.5068 11.5525C10.5068 11.5149 10.4936 11.4786 10.4695 11.4498C10.4454 11.421 10.412 11.4016 10.375 11.395C7.875 10.68 7.675 10.475 6.96 7.98498C6.95339 7.94801 6.93399 7.91455 6.90519 7.89045C6.8764 7.86635 6.84005 7.85315 6.8025 7.85315C6.76495 7.85315 6.7286 7.86635 6.6998 7.89045C6.67101 7.91455 6.65161 7.94801 6.645 7.98498C5.93 10.485 5.72 10.685 3.235 11.395C3.19804 11.4016 3.16458 11.421 3.14048 11.4498C3.11638 11.4786 3.10317 11.5149 3.10317 11.5525C3.10317 11.59 3.11638 11.6264 3.14048 11.6552C3.16458 11.684 3.19804 11.7034 3.235 11.71C5.735 12.425 5.935 12.635 6.645 15.125C6.65161 15.1619 6.67101 15.1954 6.6998 15.2195C6.7286 15.2436 6.76495 15.2568 6.8025 15.2568C6.84005 15.2568 6.8764 15.2436 6.90519 15.2195C6.93399 15.1954 6.95339 15.1619 6.96 15.125C7.675 12.635 7.88 12.425 10.375 11.71Z" fill="white" stroke="#45413C" stroke-width="0.2" stroke-linecap="round" stroke-linejoin="round"/>
<path d="M13.625 11.71C13.588 11.7034 13.5546 11.684 13.5305 11.6552C13.5064 11.6264 13.4932 11.59 13.4932 11.5525C13.4932 11.5149 13.5064 11.4786 13.5305 11.4498C13.5546 11.421 13.588 11.4016 13.625 11.395C16.125 10.68 16.325 10.475 17.035 7.98498C17.0478 7.95111 17.0694 7.92124 17.0975 7.8984C17.1256 7.87557 17.1592 7.86059 17.195 7.85498C17.2314 7.85895 17.2658 7.87333 17.2942 7.89639C17.3225 7.91945 17.3437 7.95021 17.355 7.98498C18.07 10.485 18.28 10.685 20.765 11.395C20.802 11.4016 20.8354 11.421 20.8595 11.4498C20.8836 11.4786 20.8968 11.5149 20.8968 11.5525C20.8968 11.59 20.8836 11.6264 20.8595 11.6552C20.8354 11.684 20.802 11.7034 20.765 11.71C18.265 12.425 18.065 12.635 17.355 15.125C17.3446 15.1599 17.3237 15.1907 17.295 15.2131C17.2663 15.2355 17.2314 15.2484 17.195 15.25C17.1592 15.2464 17.1252 15.2328 17.0969 15.2106C17.0686 15.1885 17.0471 15.1588 17.035 15.125C16.325 12.635 16.12 12.425 13.625 11.71Z" fill="white" stroke="#45413C" stroke-width="0.2" stroke-linecap="round" stroke-linejoin="round"/>
<path opacity="0.15" d="M4 22.75C4 22.9489 4.84285 23.1397 6.34315 23.2803C7.84344 23.421 9.87827 23.5 12 23.5C14.1217 23.5 16.1566 23.421 17.6569 23.2803C19.1571 23.1397 20 22.9489 20 22.75C20 22.5511 19.1571 22.3603 17.6569 22.2197C16.1566 22.079 14.1217 22 12 22C9.87827 22 7.84344 22.079 6.34315 22.2197C4.84285 22.3603 4 22.5511 4 22.75V22.75Z" fill="#45413C"/>
</svg>
