<svg width="24" height="24" viewBox="0 0 24 24" fill="none" xmlns="http://www.w3.org/2000/svg">
<path opacity="0.15" d="M3.26 22.75C3.26 22.9489 4.1292 23.1397 5.67637 23.2803C7.22355 23.421 9.32197 23.5 11.51 23.5C13.698 23.5 15.7965 23.421 17.3436 23.2803C18.8908 23.1397 19.76 22.9489 19.76 22.75C19.76 22.5511 18.8908 22.3603 17.3436 22.2197C15.7965 22.079 13.698 22 11.51 22C9.32197 22 7.22355 22.079 5.67637 22.2197C4.1292 22.3603 3.26 22.5511 3.26 22.75V22.75Z" fill="#45413C"/>
<path d="M10.35 8.94501L17.735 12.415L17.16 18L15.9 18.635C15.3715 18.9091 14.7915 19.0695 14.1973 19.1056C13.603 19.1418 13.0078 19.053 12.45 18.845L11.7 18.565C10.9981 18.3029 10.2414 18.2221 9.5 18.33L8.305 18.5C8.03617 18.5379 7.7621 18.502 7.51203 18.3964C7.26195 18.2907 7.04524 18.1192 6.885 17.9V17.9C6.84301 17.8404 6.81456 17.7723 6.80164 17.7006C6.78873 17.6288 6.79166 17.5551 6.81024 17.4846C6.82882 17.4141 6.86259 17.3485 6.90919 17.2925C6.95579 17.2364 7.01409 17.1912 7.08 17.16L9.695 15.945L6.47 13.525L10.35 8.94501Z" fill="#EBCB00" stroke="#45413C" stroke-width="0.2" stroke-linecap="round" stroke-linejoin="round"/>
<path d="M5.17 19.295L3 20.845C2.95756 20.8734 2.9074 20.8882 2.8563 20.8873C2.80519 20.8864 2.7556 20.8698 2.71419 20.8399C2.67278 20.8099 2.64155 20.768 2.62471 20.7197C2.60787 20.6714 2.60623 20.6192 2.62 20.57L3.33 18C3.34479 17.9455 3.37029 17.8945 3.405 17.85L13.59 3.49995C13.6665 3.39216 13.7825 3.31902 13.9127 3.29654C14.043 3.27405 14.1768 3.30404 14.285 3.37995L15.355 4.13995C15.464 4.21242 15.5403 4.32475 15.5674 4.45284C15.5945 4.58092 15.5703 4.71452 15.5 4.82495L5.29 19.18C5.2567 19.2247 5.21614 19.2636 5.17 19.295Z" fill="#009FD9"/>
<path d="M4.155 19C4.17348 18.9414 4.20043 18.8858 4.235 18.835L14.905 3.80498L14.285 3.36498C14.2305 3.32813 14.1693 3.30239 14.1049 3.28923C14.0405 3.27607 13.9741 3.27575 13.9095 3.28829C13.8449 3.30083 13.7835 3.32598 13.7287 3.36231C13.6738 3.39863 13.6267 3.44542 13.59 3.49998L3.405 17.84C3.37029 17.8845 3.34479 17.9355 3.33 17.99L2.595 20.57C2.58123 20.6192 2.58287 20.6715 2.59971 20.7197C2.61655 20.768 2.64778 20.8099 2.68919 20.8399C2.73059 20.8698 2.78019 20.8864 2.83129 20.8873C2.8824 20.8882 2.93255 20.8734 2.975 20.845L3.745 20.3L4.155 19Z" fill="#00B8F0"/>
<path d="M5.17 19.295L3 20.845C2.95756 20.8734 2.9074 20.8882 2.8563 20.8873C2.80519 20.8864 2.7556 20.8698 2.71419 20.8399C2.67278 20.8099 2.64155 20.768 2.62471 20.7197C2.60787 20.6714 2.60623 20.6192 2.62 20.57L3.33 18C3.34479 17.9455 3.37029 17.8945 3.405 17.85L13.59 3.49995C13.6665 3.39216 13.7825 3.31902 13.9127 3.29654C14.043 3.27405 14.1768 3.30404 14.285 3.37995L15.355 4.13995C15.464 4.21242 15.5403 4.32475 15.5674 4.45284C15.5945 4.58092 15.5703 4.71452 15.5 4.82495L5.29 19.18C5.2567 19.2247 5.21614 19.2636 5.17 19.295Z" stroke="#45413C" stroke-width="0.2" stroke-linecap="round" stroke-linejoin="round"/>
<path d="M6.605 13.325L5.925 16.205C5.83524 16.5838 5.60396 16.914 5.27859 17.1278C4.95321 17.3416 4.55837 17.4229 4.175 17.355C4.07453 17.3432 3.97736 17.3117 3.88905 17.2624C3.80074 17.213 3.72302 17.1468 3.66034 17.0673C3.59765 16.9879 3.55123 16.897 3.52372 16.7996C3.49621 16.7023 3.48815 16.6004 3.5 16.5L3.835 13.28C3.88179 12.8313 4.04474 12.4025 4.30779 12.036C4.57083 11.6695 4.92488 11.3779 5.335 11.19L9.395 9.35498L6.605 13.325Z" fill="#EBCB00"/>
<path d="M5.065 12.755L7.675 11.82L9.415 9.37L5.355 11.205C4.94488 11.3929 4.59083 11.6845 4.32779 12.051C4.06474 12.4175 3.90179 12.8463 3.855 13.295V13.53C4.19813 13.1879 4.61079 12.9236 5.065 12.755V12.755Z" fill="#FFE500"/>
<path d="M6.605 13.325L5.925 16.205C5.83524 16.5838 5.60396 16.914 5.27859 17.1278C4.95321 17.3416 4.55837 17.4229 4.175 17.355C4.07453 17.3432 3.97736 17.3117 3.88905 17.2624C3.80074 17.213 3.72302 17.1468 3.66034 17.0673C3.59765 16.9879 3.55123 16.897 3.52372 16.7996C3.49621 16.7023 3.48815 16.6004 3.5 16.5L3.835 13.28C3.88179 12.8313 4.04474 12.4025 4.30779 12.036C4.57083 11.6695 4.92488 11.3779 5.335 11.19L9.395 9.35498L6.605 13.325Z" stroke="#45413C" stroke-width="0.2" stroke-linecap="round" stroke-linejoin="round"/>
<path d="M9.39501 13.39L5.67501 15.225C5.43944 15.3422 5.25957 15.5476 5.1744 15.7965C5.08922 16.0455 5.10561 16.318 5.22001 16.555V16.555C5.44815 17.0184 5.84674 17.3756 6.33232 17.5517C6.8179 17.7279 7.3528 17.7093 7.82501 17.5L9.19001 16.88C9.45121 16.7589 9.73801 16.7033 10.0255 16.7181C10.3131 16.733 10.5926 16.8177 10.84 16.965L11.24 17.2C12.8983 18.1729 14.8639 18.4802 16.74 18.06V18.06C17.3931 17.9157 18.0741 17.9643 18.7 18.2L21.03 19.085C21.106 19.1143 21.1881 19.1246 21.269 19.115C21.3499 19.1054 21.4273 19.0761 21.4943 19.0298C21.5613 18.9835 21.616 18.9215 21.6536 18.8492C21.6912 18.7769 21.7106 18.6965 21.71 18.615V13.615C21.71 13.4824 21.6573 13.3552 21.5636 13.2614C21.4698 13.1676 21.3426 13.115 21.21 13.115H20.79C19.7288 13.1144 18.6808 12.8805 17.72 12.43L12 9.71997L9.39501 13.39Z" fill="#FFE500"/>
<path d="M21.225 13.1H20.805C19.7438 13.0994 18.6958 12.8655 17.735 12.415L12 9.71997L10.78 11.435L17.205 14.105C18.3153 14.5612 19.5046 14.7939 20.705 14.79H21.205C21.3461 14.7818 21.4848 14.8297 21.5906 14.9234C21.6965 15.0171 21.761 15.1489 21.77 15.29V13.6C21.7703 13.5303 21.756 13.4614 21.7281 13.3976C21.7002 13.3338 21.6593 13.2766 21.608 13.2295C21.5567 13.1824 21.4961 13.1466 21.4302 13.1243C21.3642 13.102 21.2943 13.0937 21.225 13.1Z" fill="#FFF48C"/>
<path d="M6.29 15.72C7.26502 15.3033 8.1233 14.6545 8.79 13.83L8.96 13.62L5.7 15.225C5.51727 15.3157 5.36665 15.4601 5.26834 15.6388C5.17003 15.8176 5.12874 16.0221 5.15 16.225L6.29 15.72Z" fill="#FFF48C"/>
<path d="M9.39501 13.39L5.67501 15.225C5.43944 15.3422 5.25957 15.5476 5.1744 15.7965C5.08922 16.0455 5.10561 16.318 5.22001 16.555V16.555C5.44815 17.0184 5.84674 17.3756 6.33232 17.5517C6.8179 17.7279 7.3528 17.7093 7.82501 17.5L9.19001 16.88C9.45121 16.7589 9.73801 16.7033 10.0255 16.7181C10.3131 16.733 10.5926 16.8177 10.84 16.965L11.24 17.2C12.8983 18.1729 14.8639 18.4802 16.74 18.06V18.06C17.3931 17.9157 18.0741 17.9643 18.7 18.2L21.03 19.085C21.106 19.1143 21.1881 19.1246 21.269 19.115C21.3499 19.1054 21.4273 19.0761 21.4943 19.0298C21.5613 18.9835 21.616 18.9215 21.6536 18.8492C21.6912 18.7769 21.7106 18.6965 21.71 18.615V13.615C21.71 13.4824 21.6573 13.3552 21.5636 13.2614C21.4698 13.1676 21.3426 13.115 21.21 13.115H20.79C19.7288 13.1144 18.6808 12.8805 17.72 12.43L12 9.71997L9.39501 13.39Z" stroke="#45413C" stroke-width="0.2" stroke-linecap="round" stroke-linejoin="round"/>
</svg>
