<svg width="24" height="24" viewBox="0 0 24 24" fill="none" xmlns="http://www.w3.org/2000/svg">
<path d="M2 10.75C2 13.4022 3.05357 15.9457 4.92893 17.8211C6.8043 19.6964 9.34784 20.75 12 20.75C14.6522 20.75 17.1957 19.6964 19.0711 17.8211C20.9464 15.9457 22 13.4022 22 10.75C22 8.09784 20.9464 5.5543 19.0711 3.67893C17.1957 1.80357 14.6522 0.75 12 0.75C9.34784 0.75 6.8043 1.80357 4.92893 3.67893C3.05357 5.5543 2 8.09784 2 10.75V10.75Z" fill="#FFE500"/>
<path d="M12 0.75C10.0222 0.75 8.08879 1.33649 6.4443 2.4353C4.79981 3.53412 3.51809 5.0959 2.76121 6.92317C2.00433 8.75043 1.8063 10.7611 2.19215 12.7009C2.578 14.6407 3.53041 16.4225 4.92894 17.8211C6.32746 19.2196 8.10929 20.172 10.0491 20.5579C11.9889 20.9437 13.9996 20.7457 15.8268 19.9888C17.6541 19.2319 19.2159 17.9502 20.3147 16.3057C21.4135 14.6612 22 12.7278 22 10.75C22 8.09784 20.9464 5.5543 19.0711 3.67893C17.1957 1.80357 14.6522 0.75 12 0.75V0.75ZM12 19.25C10.1953 19.25 8.43102 18.7148 6.93043 17.7122C5.42983 16.7095 4.26025 15.2844 3.5696 13.617C2.87895 11.9496 2.69825 10.1149 3.05034 8.3448C3.40243 6.57472 4.2715 4.9488 5.54766 3.67265C6.82381 2.3965 8.44973 1.52742 10.2198 1.17533C11.9899 0.823244 13.8246 1.00395 15.492 1.6946C17.1594 2.38525 18.5845 3.55482 19.5872 5.05542C20.5898 6.55602 21.125 8.32025 21.125 10.125C21.125 12.5451 20.1636 14.8661 18.4524 16.5773C16.7411 18.2886 14.4201 19.25 12 19.25V19.25Z" fill="#EBCB00"/>
<path d="M2 10.75C2 13.4022 3.05357 15.9457 4.92893 17.8211C6.8043 19.6964 9.34784 20.75 12 20.75C14.6522 20.75 17.1957 19.6964 19.0711 17.8211C20.9464 15.9457 22 13.4022 22 10.75C22 8.09784 20.9464 5.5543 19.0711 3.67893C17.1957 1.80357 14.6522 0.75 12 0.75C9.34784 0.75 6.8043 1.80357 4.92893 3.67893C3.05357 5.5543 2 8.09784 2 10.75V10.75Z" stroke="#45413C" stroke-width="0.2" stroke-linecap="round" stroke-linejoin="round"/>
<path d="M9 2.75C9 2.94891 9.31607 3.13968 9.87868 3.28033C10.4413 3.42098 11.2044 3.5 12 3.5C12.7956 3.5 13.5587 3.42098 14.1213 3.28033C14.6839 3.13968 15 2.94891 15 2.75C15 2.55109 14.6839 2.36032 14.1213 2.21967C13.5587 2.07902 12.7956 2 12 2C11.2044 2 10.4413 2.07902 9.87868 2.21967C9.31607 2.36032 9 2.55109 9 2.75Z" fill="#FFF48C"/>
<path opacity="0.15" d="M4 22.75C4 22.9489 4.84285 23.1397 6.34315 23.2803C7.84344 23.421 9.87827 23.5 12 23.5C14.1217 23.5 16.1566 23.421 17.6569 23.2803C19.1571 23.1397 20 22.9489 20 22.75C20 22.5511 19.1571 22.3603 17.6569 22.2197C16.1566 22.079 14.1217 22 12 22C9.87827 22 7.84344 22.079 6.34315 22.2197C4.84285 22.3603 4 22.5511 4 22.75V22.75Z" fill="#45413C"/>
<path d="M7.5 10.75C7.5 10.8489 7.47068 10.9456 7.41574 11.0278C7.36079 11.11 7.28271 11.1741 7.19134 11.2119C7.09998 11.2498 6.99945 11.2597 6.90246 11.2404C6.80546 11.2211 6.71637 11.1735 6.64645 11.1036C6.57652 11.0336 6.5289 10.9445 6.50961 10.8475C6.49031 10.7506 6.50022 10.65 6.53806 10.5587C6.5759 10.4673 6.63999 10.3892 6.72221 10.3343C6.80444 10.2793 6.90111 10.25 7 10.25C7.13261 10.25 7.25979 10.3027 7.35355 10.3964C7.44732 10.4902 7.5 10.6174 7.5 10.75Z" fill="#45413C" stroke="#45413C" stroke-width="0.2" stroke-linecap="round" stroke-linejoin="round"/>
<path d="M17.25 10.75C17.25 10.8489 17.2207 10.9456 17.1657 11.0278C17.1108 11.11 17.0327 11.1741 16.9413 11.2119C16.85 11.2498 16.7494 11.2597 16.6525 11.2404C16.5555 11.2211 16.4664 11.1735 16.3964 11.1036C16.3265 11.0336 16.2789 10.9445 16.2596 10.8475C16.2403 10.7506 16.2502 10.65 16.2881 10.5587C16.3259 10.4673 16.39 10.3892 16.4722 10.3343C16.5544 10.2793 16.6511 10.25 16.75 10.25C16.8826 10.25 17.0098 10.3027 17.1036 10.3964C17.1973 10.4902 17.25 10.6174 17.25 10.75Z" fill="#45413C" stroke="#45413C" stroke-width="0.2" stroke-linecap="round" stroke-linejoin="round"/>
<path d="M19.25 13.25C19.25 13.665 18.69 14 18 14C17.31 14 16.75 13.665 16.75 13.25C16.75 12.835 17.31 12.5 18 12.5C18.69 12.5 19.25 12.835 19.25 13.25Z" fill="#FFAA54"/>
<path d="M4.75 13.25C4.75 13.665 5.31 14 6 14C6.69 14 7.25 13.665 7.25 13.25C7.25 12.835 6.69 12.5 6 12.5C5.31 12.5 4.75 12.835 4.75 13.25Z" fill="#FFAA54"/>
<path d="M17.5 16H6.5" stroke="#45413C" stroke-width="0.2" stroke-linecap="round" stroke-linejoin="round"/>
<path d="M8.25 16.75C8.25 16.8826 8.19732 17.0098 8.10355 17.1036C8.00979 17.1973 7.88261 17.25 7.75 17.25C7.61739 17.25 7.49021 17.1973 7.39645 17.1036C7.30268 17.0098 7.25 16.8826 7.25 16.75V15.25C7.25 15.1174 7.30268 14.9902 7.39645 14.8964C7.49021 14.8027 7.61739 14.75 7.75 14.75C7.88261 14.75 8.00979 14.8027 8.10355 14.8964C8.19732 14.9902 8.25 15.1174 8.25 15.25V16.75Z" fill="white" stroke="#45413C" stroke-width="0.2" stroke-linecap="round" stroke-linejoin="round"/>
<path d="M10.5 16.75C10.5 16.8826 10.4473 17.0098 10.3536 17.1036C10.2598 17.1973 10.1326 17.25 10 17.25C9.86739 17.25 9.74021 17.1973 9.64645 17.1036C9.55268 17.0098 9.5 16.8826 9.5 16.75V15.25C9.5 15.1174 9.55268 14.9902 9.64645 14.8964C9.74021 14.8027 9.86739 14.75 10 14.75C10.1326 14.75 10.2598 14.8027 10.3536 14.8964C10.4473 14.9902 10.5 15.1174 10.5 15.25V16.75Z" fill="white" stroke="#45413C" stroke-width="0.2" stroke-linecap="round" stroke-linejoin="round"/>
<path d="M12.75 16.75C12.75 16.8826 12.6973 17.0098 12.6036 17.1036C12.5098 17.1973 12.3826 17.25 12.25 17.25C12.1174 17.25 11.9902 17.1973 11.8964 17.1036C11.8027 17.0098 11.75 16.8826 11.75 16.75V15.25C11.75 15.1174 11.8027 14.9902 11.8964 14.8964C11.9902 14.8027 12.1174 14.75 12.25 14.75C12.3826 14.75 12.5098 14.8027 12.6036 14.8964C12.6973 14.9902 12.75 15.1174 12.75 15.25V16.75Z" fill="white" stroke="#45413C" stroke-width="0.2" stroke-linecap="round" stroke-linejoin="round"/>
<path d="M15 16.75C15 16.8826 14.9473 17.0098 14.8536 17.1036C14.7598 17.1973 14.6326 17.25 14.5 17.25C14.3674 17.25 14.2402 17.1973 14.1464 17.1036C14.0527 17.0098 14 16.8826 14 16.75V15.25C14 15.1174 14.0527 14.9902 14.1464 14.8964C14.2402 14.8027 14.3674 14.75 14.5 14.75C14.6326 14.75 14.7598 14.8027 14.8536 14.8964C14.9473 14.9902 15 15.1174 15 15.25V16.75Z" fill="white" stroke="#45413C" stroke-width="0.2" stroke-linecap="round" stroke-linejoin="round"/>
<path d="M16.405 16.15C16.1802 16.3472 16.0378 16.6219 16.0063 16.9193C15.9748 17.2167 16.0565 17.5151 16.235 17.755L17.67 19.685C17.784 19.8424 17.9296 19.9742 18.0976 20.072C18.2655 20.1698 18.452 20.2314 18.6451 20.253C18.8382 20.2745 19.0337 20.2554 19.219 20.197C19.4044 20.1386 19.5754 20.0421 19.7213 19.9137C19.8672 19.7854 19.9846 19.6279 20.0661 19.4515C20.1476 19.2751 20.1913 19.0836 20.1945 18.8893C20.1977 18.695 20.1602 18.5022 20.0845 18.3232C20.0089 18.1443 19.8966 17.9831 19.755 17.85L18 16.185C17.7852 15.9837 17.5036 15.8688 17.2092 15.8623C16.9149 15.8559 16.6285 15.9583 16.405 16.15V16.15Z" fill="white" stroke="#45413C" stroke-width="0.2" stroke-linecap="round" stroke-linejoin="round"/>
<path d="M18.71 18.27C18.6111 18.27 18.5144 18.2993 18.4322 18.3543C18.35 18.4092 18.2859 18.4873 18.2481 18.5787C18.2102 18.67 18.2003 18.7706 18.2196 18.8676C18.2389 18.9646 18.2865 19.0536 18.3565 19.1236C18.4264 19.1935 18.5155 19.2411 18.6125 19.2604C18.7095 19.2797 18.81 19.2698 18.9013 19.232C18.9927 19.1941 19.0708 19.13 19.1257 19.0478C19.1807 18.9656 19.21 18.8689 19.21 18.77C19.21 18.6374 19.1573 18.5102 19.0636 18.4165C18.9698 18.3227 18.8426 18.27 18.71 18.27Z" fill="#45413C"/>
</svg>
