<svg width="44" height="44" viewBox="0 0 44 44" fill="none" xmlns="http://www.w3.org/2000/svg">
<path fill-rule="evenodd" clip-rule="evenodd" d="M42.6743 22.2675C42.6743 20.7236 42.5357 19.2391 42.2784 17.814H21.7725V26.2361H33.4901C32.9854 28.9576 31.4514 31.2636 29.1455 32.8075V38.2704H36.182C40.2991 34.48 42.6743 28.8983 42.6743 22.2675Z" fill="#4285F4"/>
<path fill-rule="evenodd" clip-rule="evenodd" d="M21.7723 43.5456C27.651 43.5456 32.5795 41.5959 36.1819 38.2706L29.1454 32.8077C27.1957 34.114 24.7018 34.886 21.7723 34.886C16.1015 34.886 11.3016 31.0559 9.5895 25.9097H2.31543V31.5508C5.89803 38.6665 13.2612 43.5456 21.7723 43.5456Z" fill="#34A853"/>
<path fill-rule="evenodd" clip-rule="evenodd" d="M9.5899 25.9094C9.15444 24.603 8.90702 23.2076 8.90702 21.7726C8.90702 20.3375 9.15444 18.9421 9.5899 17.6357V11.9946H2.31583C0.841219 14.9339 0 18.2592 0 21.7726C0 25.2859 0.841219 28.6112 2.31583 31.5505L9.5899 25.9094Z" fill="#FBBC05"/>
<path fill-rule="evenodd" clip-rule="evenodd" d="M21.7723 8.65961C24.969 8.65961 27.839 9.75814 30.0954 11.9156L36.3403 5.67081C32.5696 2.15748 27.6411 0 21.7723 0C13.2612 0 5.89803 4.87907 2.31543 11.9948L9.5895 17.6359C11.3016 12.4896 16.1015 8.65961 21.7723 8.65961Z" fill="#EA4335"/>
</svg>
